<svg width="80" height="80" viewBox="0 0 80 80" fill="none" xmlns="http://www.w3.org/2000/svg">
<path d="M24.9823 15.5719V64.5825C24.825 61.4832 22.5291 55.2847 14.6035 55.2847C6.67793 55.2847 3.75301 61.4832 3.28125 64.5825M24.9823 15.5719C24.8774 11.5271 22.5606 3.4375 14.1318 3.4375C5.70296 3.4375 3.38609 11.5271 3.28125 15.5719V64.5825M24.9823 15.5719C40.1835 15.5719 71.1834 15.5719 73.5737 15.5719C75.9639 15.5719 76.6663 17.6732 76.7187 18.7238C76.7187 35.7435 76.7187 70.4764 76.7187 73.25C76.7187 76.0236 74.5172 76.6119 73.4164 76.5594C57.5338 76.5594 23.5355 76.5594 14.6035 76.5594C5.67151 76.5594 3.33367 68.5748 3.28125 64.5825M32.5304 41.2592V23.2939H50.7719M63.8239 41.2592L69.0133 33.8524V23.2939H50.7719M50.7719 23.2939V30.3854M50.7719 37.477H46.0543M50.7719 37.477H55.6467M50.7719 37.477V30.3854M50.7719 30.3854H61.1506M50.7719 47.5628H69.0133V68.8374H50.7719M38.9778 44.2534L32.5304 52.1329V68.8374H50.7719M50.7719 68.8374V55.2847" stroke="#179860" stroke-width="3" stroke-linecap="round" stroke-linejoin="round"/>
</svg>
