<svg width="80" height="80" viewBox="0 0 80 80" fill="none" xmlns="http://www.w3.org/2000/svg">
<path d="M73.3258 25.6002C72.0892 24.5996 70.5146 24.0002 68.8 24.0002C64.8235 24.0002 61.6 27.2237 61.6 31.2002C61.6 33.5197 62.6967 35.583 64.4 36.8998M73.3258 25.6002C74.957 26.9202 76 28.9384 76 31.2002C76 35.1766 72.7764 38.4002 68.8 38.4002C67.143 38.4002 65.6167 37.8405 64.4 36.8998M73.3258 25.6002L45.2 4.70063C43.9832 3.75993 42.4569 3.2002 40.8 3.2002C36.8235 3.2002 33.6 6.42375 33.6 10.4002C33.6 12.4444 34.4518 14.2896 35.82 15.6002L64.4 36.8998M3.19995 62.8002C3.19995 65.6721 5.52807 68.0002 8.39995 68.0002H58.4V32.8002M3.19995 62.8002C3.19995 59.9283 5.52807 57.6002 8.39995 57.6002C11.2718 57.6002 13.6 59.9283 13.6 62.8002V21.6002M3.19995 62.8002V16.0002M13.6 21.6002V16.0002M13.6 21.6002H43.2M37.3818 33.1639H19.2M37.3818 33.1639V52.8002H26.4727V48.4366H33.0181V37.5275H19.2V33.1639M37.3818 33.1639V60.8002H51.2V56.4366H41.7454V28.8002H19.2V33.1639M13.6 16.4002C13.6 19.2721 11.2718 21.6002 8.39995 21.6002C5.52807 21.6002 3.19995 19.2721 3.19995 16.4002C3.19995 13.5283 5.52807 11.2002 8.39995 11.2002C11.2718 11.2002 13.6 13.5283 13.6 16.4002ZM73.6 52.8002C73.6 55.4512 71.4509 57.6002 68.8 57.6002C66.149 57.6002 64 55.4512 64 52.8002C64 50.1492 67.6 44.0002 68.8 44.0002C70 44.0002 73.6 50.1492 73.6 52.8002ZM73.6 71.2002C73.6 73.8512 71.4509 76.0002 68.8 76.0002C66.149 76.0002 64 73.8512 64 71.2002C64 68.5492 67.6 62.4002 68.8 62.4002C70 62.4002 73.6 68.5492 73.6 71.2002Z" stroke="#179860" stroke-width="3" stroke-linecap="round" stroke-linejoin="round"/>
</svg>
