<svg width="30" height="30" fill="none" xmlns="http://www.w3.org/2000/svg"><g clip-path="url(#clip0_465_439)"><path d="M13.046 22.142v-4.13m0 10.624v-4.508m4.06-6.117v10.625m-5.872-14.88l1.675 2.958m-1.675-2.959l-4.58 2.516m4.58-2.516l-.579-1.022a1.202 1.202 0 00-1.618-.454l-2.502 1.375a1.164 1.164 0 00-.46 1.593l.579 1.024m1.674 2.96l-1.674-2.96m-.91.5c-7.92.927-5.187-8.758 1.566-3.544m3.212 4.784h12.144c.333 0 .607.27.607.598v8.958a1.08 1.08 0 01-1.086 1.07H7.965a1.08 1.08 0 01-1.085-1.07v-7.54m-.95-5.443c-.685-.245-1.211-.374-2.13-.473m5.076-5.278c-.498.848-.76 2.107-.564 3.845m3.883.55c3.228-3.999.212-6.583-2.03-5.59m.044 4.65c.047-.595.34-1.49.71-2.089m10.61-2.042s.587 5.343-1.385 7.45m4.31-5.84s.851-3.696 4.637-4.586M3.469 21.9l14.3-7.855a.819.819 0 00.323-1.118l-.863-1.525a.842.842 0 00-1.135-.316L1.793 18.94a.817.817 0 00-.322 1.116l.863 1.526a.845.845 0 001.135.317zM18.04 2.126l-.655 1.078c-.071.117-.081.156-.228.192l-1.297.316c-.25.062-.264.119-.092.31l.836.992c.09.106.103.23.091.379l-.1 1.225c-.029.254.026.285.267.189l1.14-.468a.628.628 0 01.422 0l1.141.468c.241.096.294.065.266-.189l-.1-1.225c-.01-.15 0-.273.092-.379l.834-.991c.172-.192.16-.249-.092-.31l-1.297-.317c-.146-.036-.155-.075-.227-.192l-.655-1.078c-.132-.22-.213-.22-.346 0zm8.318 9.636l-.657 1.077c-.07.117-.08.156-.226.192l-1.296.317c-.253.062-.266.118-.092.31l.834.991c.09.106.102.23.09.38l-.1 1.223c-.026.255.027.286.268.19l1.14-.468a.633.633 0 01.423 0l1.14.468c.24.096.294.065.267-.19l-.1-1.224c-.012-.15 0-.273.09-.379l.835-.99c.173-.193.16-.25-.092-.311l-1.297-.317c-.145-.036-.155-.075-.226-.192l-.655-1.077c-.133-.22-.214-.22-.346 0zM24.98 4.716c.939 0 1.702-.752 1.702-1.675 0-.925-.763-1.677-1.702-1.677-.937 0-1.702.752-1.702 1.677 0 .923.765 1.675 1.702 1.675z" stroke="#179860" stroke-width="1.5" stroke-miterlimit="10" stroke-linecap="round" stroke-linejoin="round"/></g><defs><clipPath id="clip0_465_439"><path fill="#fff" d="M0 0h30v30H0z"/></clipPath></defs></svg>