<svg width="254" height="8" fill="none" xmlns="http://www.w3.org/2000/svg"><rect opacity=".1" width="1" height="8" rx=".5" fill="#fff"/><path opacity=".1" fill="#fff" d="M1 3.5h10v1H1z"/><rect opacity=".1" x="11" width="1" height="8" rx=".5" fill="#fff"/><path opacity=".1" fill="#fff" d="M12 3.5h10v1H12z"/><rect opacity=".1" x="22" width="1" height="8" rx=".5" fill="#fff"/><path opacity=".1" fill="#fff" d="M23 3.5h10v1H23z"/><rect opacity=".1" x="33" width="1" height="8" rx=".5" fill="#fff"/><path opacity=".1" fill="#fff" d="M34 3.5h10v1H34z"/><rect opacity=".1" x="44" width="1" height="8" rx=".5" fill="#fff"/><path opacity=".1" fill="#fff" d="M45 3.5h10v1H45z"/><rect opacity=".1" x="55" width="1" height="8" rx=".5" fill="#fff"/><path opacity=".1" fill="#fff" d="M56 3.5h10v1H56z"/><rect opacity=".1" x="66" width="1" height="8" rx=".5" fill="#fff"/><path opacity=".1" fill="#fff" d="M67 3.5h10v1H67z"/><rect opacity=".1" x="77" width="1" height="8" rx=".5" fill="#fff"/><path opacity=".1" fill="#fff" d="M78 3.5h10v1H78z"/><rect opacity=".1" x="88" width="1" height="8" rx=".5" fill="#fff"/><path opacity=".1" fill="#fff" d="M89 3.5h10v1H89z"/><rect opacity=".1" x="99" width="1" height="8" rx=".5" fill="#fff"/><path opacity=".1" fill="#fff" d="M100 3.5h10v1h-10z"/><rect opacity=".1" x="110" width="1" height="8" rx=".5" fill="#fff"/><path opacity=".1" fill="#fff" d="M111 3.5h10v1h-10z"/><rect opacity=".1" x="121" width="1" height="8" rx=".5" fill="#fff"/><path opacity=".1" fill="#fff" d="M122 3.5h10v1h-10z"/><rect opacity=".1" x="132" width="1" height="8" rx=".5" fill="#fff"/><path opacity=".1" fill="#fff" d="M133 3.5h10v1h-10z"/><rect opacity=".1" x="143" width="1" height="8" rx=".5" fill="#fff"/><path opacity=".1" fill="#fff" d="M144 3.5h10v1h-10z"/><rect opacity=".1" x="154" width="1" height="8" rx=".5" fill="#fff"/><path opacity=".1" fill="#fff" d="M155 3.5h10v1h-10z"/><rect opacity=".1" x="165" width="1" height="8" rx=".5" fill="#fff"/><path opacity=".1" fill="#fff" d="M166 3.5h10v1h-10z"/><rect opacity=".1" x="176" width="1" height="8" rx=".5" fill="#fff"/><path opacity=".1" fill="#fff" d="M177 3.5h10v1h-10z"/><rect opacity=".1" x="187" width="1" height="8" rx=".5" fill="#fff"/><path opacity=".1" fill="#fff" d="M188 3.5h10v1h-10z"/><rect opacity=".1" x="198" width="1" height="8" rx=".5" fill="#fff"/><path opacity=".1" fill="#fff" d="M199 3.5h10v1h-10z"/><rect opacity=".1" x="209" width="1" height="8" rx=".5" fill="#fff"/><path opacity=".1" fill="#fff" d="M210 3.5h10v1h-10z"/><rect opacity=".1" x="220" width="1" height="8" rx=".5" fill="#fff"/><path opacity=".1" fill="#fff" d="M221 3.5h10v1h-10z"/><rect opacity=".1" x="231" width="1" height="8" rx=".5" fill="#fff"/><path opacity=".1" fill="#fff" d="M232 3.5h10v1h-10z"/><rect opacity=".1" x="242" width="1" height="8" rx=".5" fill="#fff"/><path opacity=".1" fill="#fff" d="M243 3.5h10v1h-10z"/><rect opacity=".1" x="253" width="1" height="8" rx=".5" fill="#fff"/></svg>