<svg width="80" height="80" fill="none" xmlns="http://www.w3.org/2000/svg"><path d="M73.326 25.6A7.2 7.2 0 1064.4 36.9m8.926-11.3A7.2 7.2 0 0164.4 36.9m8.926-11.3L45.2 4.7a7.2 7.2 0 00-9.38 10.9L64.4 36.9M3.2 62.8A5.2 5.2 0 008.4 68h50V32.8m-55.2 30a5.2 5.2 0 1110.4 0V21.6M3.2 62.8V16m10.4 5.6V16m0 5.6h29.6m-5.818 11.564H19.2m18.182 0V52.8h-10.91v-4.363h6.546v-10.91H19.2v-4.363m18.182 0V60.8H51.2v-4.363h-9.455V28.8H19.2v4.364M13.6 16.4a5.2 5.2 0 11-10.4 0 5.2 5.2 0 0110.4 0zm60 36.4a4.8 4.8 0 01-9.6 0c0-2.65 3.6-8.8 4.8-8.8 1.2 0 4.8 6.15 4.8 8.8zm0 18.4a4.8 4.8 0 01-9.6 0c0-2.65 3.6-8.8 4.8-8.8 1.2 0 4.8 6.15 4.8 8.8z" stroke="#179860" stroke-width="3" stroke-linecap="round" stroke-linejoin="round"/></svg>