<svg width="80" height="80" fill="none" xmlns="http://www.w3.org/2000/svg"><path d="M24.982 15.572v49.01c-.157-3.099-2.453-9.297-10.378-9.297-7.926 0-10.851 6.198-11.323 9.297m21.701-49.01c-.105-4.045-2.421-12.134-10.85-12.134s-10.746 8.09-10.85 12.134v49.01m21.7-49.01h48.592c2.39 0 3.092 2.101 3.145 3.152V73.25c0 2.774-2.202 3.362-3.303 3.31H14.603c-8.931 0-11.27-7.985-11.322-11.978m29.25-23.323V23.294h18.24m13.053 17.965l5.19-7.407V23.294H50.771m0 0v7.091m0 7.092h-4.718m4.718 0h4.875m-4.875 0v-7.092m0 0H61.15M50.77 47.563h18.242v21.274h-18.24M38.978 44.253l-6.448 7.88v16.704h18.242m0 0V55.285" stroke="#179860" stroke-width="3" stroke-linecap="round" stroke-linejoin="round"/></svg>