<svg width="80" height="80" fill="none" xmlns="http://www.w3.org/2000/svg"><path d="M67.013 57.6c0 4.734-3.856 8.571-8.613 8.571s-8.614-3.837-8.614-8.57c0-4.735 3.857-8.572 8.614-8.572 4.757 0 8.613 3.837 8.613 8.571z" stroke="#179860" stroke-width="3" stroke-linecap="round" stroke-linejoin="round"/><path d="M61.989 37.6H54.81l-.602 5.587a15.076 15.076 0 00-6.253 3.597l-5.167-2.277-3.589 6.186 4.562 3.312a14.963 14.963 0 00-.436 3.595c0 1.24.151 2.443.436 3.595L39.2 64.507l3.589 6.186 5.167-2.277a15.075 15.075 0 006.253 3.597l.602 5.587h7.178l.602-5.587a15.076 15.076 0 006.253-3.597l5.167 2.277 3.589-6.186-4.562-3.312c.285-1.152.436-2.356.436-3.595 0-1.239-.151-2.443-.436-3.595l4.562-3.312-3.59-6.186-5.166 2.277a15.074 15.074 0 00-6.253-3.597l-.602-5.587zM16.35 7.795h-6.2c-4.28 0-7.75 3.45-7.75 7.707v.771m13.95-8.478l3.1-5.395h8.525l3.875 5.395m-15.5 0h15.5m0 0h3.875M2.4 16.273h5.425m-5.425 0v6.166m0 0v.77c0 4.257 3.47 7.708 7.75 7.708h36.425a2.319 2.319 0 002.325-2.312V10.107a2.319 2.319 0 00-2.325-2.312h-3.1M2.4 22.439h5.425m35.65-14.644v5.395m0-5.395H39.6m0 0v5.395m0-5.395h-3.875m0 0v5.395M6.275 60.205h-.388a2.705 2.705 0 00-2.712 2.697A2.705 2.705 0 005.887 65.6h17.825a2.705 2.705 0 002.713-2.698 2.705 2.705 0 00-2.713-2.697h-.387m-17.05 0L11.7 30.917M6.275 60.205h17.05m0 0l4.283-21.58m1.53-7.708l-1.53 7.707m0 0H33.1c1.585 0 3.01-.96 3.598-2.422l2.126-5.285M48.9 12.419h10.075v13.874H48.9V12.419zm10.075 3.854H73.7c1.712 0 3.1 1.38 3.1 3.083a3.091 3.091 0 01-3.1 3.083H58.975v-6.166z" stroke="#179860" stroke-width="3" stroke-linecap="round" stroke-linejoin="round"/></svg>