<svg width="80" height="80" fill="none" xmlns="http://www.w3.org/2000/svg"><path d="M23.31 14.151l-6.127-1.634m18.174 4.808l-6.127-1.634m40.29 9.177l5.68 1.515L70.485 44.1l-10.923-2.914m-26.686-.449v10.504M18.768 64.255l10.145-5.554M6.087 51.876h5.707a6.344 6.344 0 016.34 6.349v11.427A6.345 6.345 0 0111.794 76H6.087V51.876zm31.069 4.444a4.441 4.441 0 01-4.438 4.444 4.441 4.441 0 01-4.439-4.444 4.441 4.441 0 014.439-4.444 4.441 4.441 0 014.438 4.444zM12.373 4L70.48 19.502l-2.97 11.162a3.17 3.17 0 01-3.88 2.25l-41.937-11.19-3.786 14.23L4.8 32.457 12.373 4zm9.324 17.71l39.758 10.607-3.79 14.239-39.757-10.607 3.79-14.238z" stroke="#857067" stroke-width="3" stroke-linecap="round" stroke-linejoin="round"/></svg>