<svg width="30" height="30" fill="none" xmlns="http://www.w3.org/2000/svg"><path d="M10 2.5v3.75M20 2.5v3.75" stroke="#857067" stroke-width="1.5" stroke-miterlimit="10" stroke-linecap="round" stroke-linejoin="round"/><path opacity=".4" d="M4.375 11.362h21.25" stroke="#857067" stroke-width="1.5" stroke-miterlimit="10" stroke-linecap="round" stroke-linejoin="round"/><path d="M27.5 23.75c0 .938-.262 1.825-.725 2.575A4.962 4.962 0 0122.5 28.75a4.881 4.881 0 01-3.288-1.25 4.492 4.492 0 01-.987-1.175 4.901 4.901 0 01-.725-2.575 5 5 0 015-5c1.5 0 2.837.663 3.75 1.7a5 5 0 011.25 3.3z" stroke="#857067" stroke-width="1.5" stroke-miterlimit="10" stroke-linecap="round" stroke-linejoin="round"/><path d="M20.55 23.75l1.237 1.237 2.663-2.462" stroke="#857067" stroke-width="1.5" stroke-linecap="round" stroke-linejoin="round"/><path d="M26.25 10.625v9.825a4.98 4.98 0 00-3.75-1.7 5 5 0 00-5 5c0 .938.262 1.825.725 2.575.262.45.6.85.987 1.175H10c-4.375 0-6.25-2.5-6.25-6.25V10.625c0-3.75 1.875-6.25 6.25-6.25h10c4.375 0 6.25 2.5 6.25 6.25z" stroke="#857067" stroke-width="1.5" stroke-miterlimit="10" stroke-linecap="round" stroke-linejoin="round"/><path opacity=".4" d="M14.994 17.125h.011m-4.637 0h.011m-.011 3.75h.011" stroke="#857067" stroke-width="2" stroke-linecap="round" stroke-linejoin="round"/></svg>