<svg width="82" height="40" fill="none" xmlns="http://www.w3.org/2000/svg"><path fill-rule="evenodd" clip-rule="evenodd" d="M40.61 1.74a2.856 2.856 0 100 5.71h.767a2.856 2.856 0 000-5.71h-.767zm6.351 8.307v20.076h6.48V18.7c0-.952.63-2.855 3.154-2.855 2.523 0 3.552.172 3.75.26l.683-6.405c-1.28-.201-4.212-.225-5.712 1.299-1.5 1.522-2.103 2.25-2.217 2.422l-1.364-3.374h-4.774zm-9.207 0h6.48v20.076h-6.48V10.047zM82 16.104v14.019h-4.52l-1.193-3.115c-3.495 3.807-6.48 4.067-9.634 2.596s-4.177-5.452-2.046-9.173c1.705-2.977 8.042-3.26 10.998-3.029 0-1.096-.512-3.288-2.558-3.288s-4.603.923-5.626 1.384l-1.79-4.153c1.42-.549 5.114-1.645 8.524-1.645C80.431 9.7 82 13.97 82 16.104zm-6.394 4.846c.057 1.212-.239 3.825-1.876 4.587-2.046.951-3.75.172-4.007-1.472-.255-1.644 1.023-3.115 5.883-3.115z" fill="#2E2D2D"/><path d="M35.02.1c-2.52-.144-7.853-.243-9.01.521-1.444.956-1.53 2.433-.34 3.214.488.32.804.03 1.299-.426.714-.658 1.8-1.658 4.312-1.658-1.672.753-4.794 2.797-3.91 4.95 1.105 2.694 3.825.956 4.335 0 .134-.25.244-.662.382-1.176.387-1.445.99-3.695 2.933-5.425zM7.82.1H0L17.56 32l3.94-7.047L7.82.1zm11.73 0l7.861 14.281-3.94 7.048L11.73.1h7.82z" fill="#179860"/><path d="M3.588 37.917h5.288v.357H3.588v-.357zm7.227 1.989v-4.334h2.457v.37h-2.04v1.506h1.819v.363h-1.818v1.726h2.199v.37h-2.617zM15.89 40c-.275 0-.531-.05-.769-.15a1.778 1.778 0 01-.614-.438 2.155 2.155 0 01-.411-.707 2.951 2.951 0 01-.148-.969c0-.363.053-.684.16-.963.11-.284.256-.521.436-.713.18-.192.39-.336.627-.432.237-.1.485-.15.743-.15a2.646 2.646 0 01.78.112c.098.03.182.061.252.095.07.029.123.056.16.081l-.136.369a2.234 2.234 0 00-.393-.181 1.573 1.573 0 00-.583-.094c-.267 0-.5.046-.7.137a1.384 1.384 0 00-.498.388 1.73 1.73 0 00-.307.594 2.76 2.76 0 00-.099.763c0 .288.033.549.099.782.07.23.17.425.3.588.132.163.292.288.48.375.192.088.412.131.657.131.27 0 .496-.025.676-.075.184-.054.323-.108.418-.162l.116.363a.79.79 0 01-.147.075c-.07.025-.158.052-.264.08a2.54 2.54 0 01-.369.07c-.14.02-.295.031-.467.031zm5.74-2.264c0 .371-.053.698-.16.982a2.058 2.058 0 01-.436.713c-.18.188-.39.33-.633.425a2.062 2.062 0 01-.767.144c-.27 0-.526-.048-.768-.144a1.836 1.836 0 01-.639-.425 2.11 2.11 0 01-.43-.713 2.783 2.783 0 01-.16-.982c0-.371.054-.696.16-.976.107-.283.25-.519.43-.706.184-.192.397-.336.639-.432a2.06 2.06 0 01.768-.144c.27 0 .526.048.767.144.242.096.453.24.633.432.184.187.33.423.436.706.107.28.16.605.16.976zm-.442 0c0-.292-.037-.552-.11-.782a1.734 1.734 0 00-.314-.594 1.305 1.305 0 00-.491-.369 1.499 1.499 0 00-.64-.131c-.237 0-.452.044-.644.131-.189.084-.35.206-.486.37-.135.162-.24.36-.313.593-.074.23-.11.49-.11.782 0 .292.037.555.11.788.074.23.178.425.313.588.136.163.297.288.486.375.192.088.407.131.645.131.237 0 .45-.043.639-.13.192-.088.356-.213.49-.376a1.74 1.74 0 00.314-.588 2.6 2.6 0 00.11-.788zm.997.163h1.389v.394h-1.389v-.394zm2.115 2.007v-4.334h2.426v.37h-2.008v1.525h1.78v.37h-1.78v2.07H24.3zm6.029-3.033c0 .325-.084.582-.252.77a1.432 1.432 0 01-.663.406c.065.083.15.196.252.337.106.142.215.299.325.47.11.166.22.341.326.525.106.183.196.358.27.525h-.448a7.683 7.683 0 00-.283-.5 7.978 7.978 0 00-.307-.482 8.717 8.717 0 00-.301-.438l-.258-.35a4.135 4.135 0 01-.393.019h-.688v1.751h-.418v-4.253c.148-.041.32-.07.516-.087.2-.021.385-.031.553-.031.585 0 1.026.112 1.32.337.3.225.449.559.449 1zm-1.72-.97c-.156 0-.293.007-.412.02a9.02 9.02 0 00-.288.024v1.845h.577c.193 0 .375-.008.547-.025a1.39 1.39 0 00.448-.125.759.759 0 00.301-.281c.074-.121.11-.286.11-.494a.925.925 0 00-.11-.476.82.82 0 00-.288-.294 1.083 1.083 0 00-.412-.15 2.495 2.495 0 00-.473-.043zm2.679-.331h.418v4.334h-.418v-4.334zm1.524 4.334v-4.334h2.457v.37h-2.04v1.506h1.819v.363h-1.819v1.726h2.2v.37h-2.617zm6.306 0a24.162 24.162 0 00-.694-1.138 25.027 25.027 0 00-.454-.688c-.16-.238-.32-.467-.48-.688a14.719 14.719 0 00-.46-.632 11.98 11.98 0 00-.4-.506v3.652h-.411v-4.334h.332c.209.238.432.513.67.826a25.708 25.708 0 011.344 1.895c.201.308.365.577.492.806v-3.527h.411v4.334h-.35zm4.834-2.17c0 .371-.057.694-.172.97a1.843 1.843 0 01-.485.687c-.205.184-.45.321-.737.413a3.09 3.09 0 01-.946.138c-.172 0-.352-.01-.54-.032a3.032 3.032 0 01-.498-.08v-4.179c.143-.041.31-.07.498-.087.188-.021.368-.031.54-.031.344 0 .66.045.946.137.287.092.532.23.737.413.209.183.37.413.485.688.115.275.172.596.172.963zm-2.96 1.795c.024.004.086.013.184.025.102.013.264.019.485.019.307 0 .575-.042.805-.125.23-.088.422-.21.577-.37.156-.158.273-.35.35-.575.078-.229.117-.486.117-.769 0-.283-.039-.538-.117-.763a1.514 1.514 0 00-.35-.575 1.527 1.527 0 00-.577-.363 2.25 2.25 0 00-.805-.131c-.221 0-.383.006-.485.018l-.184.025v3.584zm6.315.006v.37h-2.42v-4.335h.418v3.965h2.002zm1.028.369v-1.782c-.29-.455-.559-.893-.804-1.314a39.75 39.75 0 01-.676-1.238h.485c.172.367.36.74.565 1.12.21.375.426.733.651 1.075a21.69 21.69 0 001.217-2.195h.454c-.217.396-.446.809-.688 1.238-.241.426-.504.86-.786 1.301v1.795h-.418zm6.633-4.334h.418v4.334h-.418v-2.082h-2.31v2.082h-.417v-4.334h.418v1.883h2.31v-1.883zm5.347 2.164c0 .371-.053.698-.16.982a2.058 2.058 0 01-.436.713c-.18.188-.391.33-.633.425a2.062 2.062 0 01-.767.144 2.06 2.06 0 01-.768-.144 1.837 1.837 0 01-.64-.425 2.11 2.11 0 01-.43-.713 2.785 2.785 0 01-.159-.982c0-.371.053-.696.16-.976.106-.283.25-.519.43-.706.184-.192.397-.336.639-.432.241-.096.497-.144.767-.144s.527.048.768.144c.242.096.453.24.633.432.184.187.33.423.436.706.106.28.16.605.16.976zm-.442 0a2.55 2.55 0 00-.111-.782 1.736 1.736 0 00-.313-.594 1.307 1.307 0 00-.492-.369 1.5 1.5 0 00-.639-.131 1.54 1.54 0 00-.645.131c-.188.084-.35.206-.485.37-.135.162-.24.36-.313.593-.074.23-.11.49-.11.782 0 .292.036.555.11.788.074.23.178.425.313.588.135.163.297.288.485.375.193.088.408.131.645.131a1.5 1.5 0 00.64-.13c.192-.088.355-.213.49-.376a1.74 1.74 0 00.314-.588 2.61 2.61 0 00.11-.788zm3.288 1.544a8.89 8.89 0 00-.178-.412c-.073-.17-.157-.357-.252-.557a648.67 648.67 0 00-.57-1.232l-.24-.494a7.043 7.043 0 00-.154-.3 35.25 35.25 0 00-.129 1.701c-.029.609-.055 1.249-.08 1.92h-.411c.036-.788.077-1.542.122-2.264.05-.721.109-1.411.178-2.07h.37a20.533 20.533 0 01.805 1.576c.138.292.271.582.398.87.131.283.246.54.344.769a52.841 52.841 0 01.737-1.639c.14-.296.279-.58.418-.85.139-.276.27-.517.393-.726h.35c.07.659.127 1.349.172 2.07.05.721.092 1.476.129 2.264h-.424c-.024-.671-.053-1.311-.086-1.92-.028-.613-.07-1.18-.123-1.7a6.894 6.894 0 00-.153.3 30.75 30.75 0 00-.522 1.1 648.67 648.67 0 00-.547 1.182 12.91 12.91 0 00-.172.413h-.375zm3.405.626v-4.334h2.457v.37h-2.04v1.506h1.819v.363h-1.819v1.726h2.2v.37h-2.617zm4.322-.275c.332 0 .59-.06.774-.181.184-.125.276-.326.276-.6 0-.16-.03-.29-.092-.395a.773.773 0 00-.233-.269 1.397 1.397 0 00-.338-.187l-.4-.17a4.691 4.691 0 01-.472-.218 1.701 1.701 0 01-.356-.25 1.034 1.034 0 01-.228-.325 1.126 1.126 0 01-.073-.426c0-.37.12-.652.362-.844.242-.192.577-.288 1.007-.288a2.257 2.257 0 01.645.094 1.8 1.8 0 01.264.088c.082.033.15.068.203.106l-.147.356a1.469 1.469 0 00-.436-.2 1.908 1.908 0 00-.547-.075c-.135 0-.26.015-.375.044a.737.737 0 00-.485.357.747.747 0 00-.067.331c0 .133.024.246.073.338.05.091.117.17.203.237.09.067.194.127.313.182.119.054.248.11.387.169.168.07.326.141.473.212.152.071.283.154.393.25.11.096.199.213.264.35.066.138.099.307.099.507 0 .392-.135.686-.406.882-.266.196-.628.294-1.087.294a2.946 2.946 0 01-.81-.106 2.418 2.418 0 01-.271-.1 1.645 1.645 0 01-.172-.088l.135-.369a2.52 2.52 0 00.412.188 2.276 2.276 0 00.712.106zm3.091-1.714h5.288v.357H73.98v-.357z" fill="#2E2D2D"/></svg>