<svg width="800" height="347" fill="none" xmlns="http://www.w3.org/2000/svg"><path d="M447.741 156.939h26.6l-26.6 72.9c-.4 1.1-1 2.6-1.8 4.5s-2.4 5.3-4.9 10.2c-2.5 4.9-5 9.2-7.4 12.9-2.5 3.7-5.5 7.1-9 10.2-3.5 3.1-6.9 4.6-10.1 4.6-4.8 0-9.8-3.6-15-10.7-5.2-7.1-9-14.2-11.6-21.2l-4.1-10.6-26.6-72.9 26.6-.2 30.7 87.2 33.2-86.9zm76.5-.4v115.5h-28.6v-87.4c0-.8.1-1.8.2-3.1s.7-3.5 1.7-6.7 2.5-6 4.2-8.5c1.8-2.5 4.6-4.7 8.6-6.8 3.9-1.9 8.6-3 13.9-3zm114.5 56.1c2.3.7 4 1.2 5.2 1.6 1.2.4 3.1 1.3 5.9 2.8 2.8 1.5 4.9 3.1 6.5 5 1.6 1.8 3.1 4.5 4.4 7.9 1.3 3.5 2 7.4 2 11.6v30.9h-28.9v-35.5c0-9.8-12-14.7-35.9-14.7-3.4 0-6.9.1-10.5.3-3.6.2-6.3.4-8.2.7l-2.8.3v48.9h-27.6v-115.9h85.6c.8 0 1.8.1 3.1.2s3.5.7 6.8 1.7c3.2 1 6.1 2.5 8.6 4.2 2.5 1.8 4.7 4.6 6.8 8.4 2 3.9 3.1 8.4 3.1 13.7 0 5.3-.7 9.8-2 13.5-1.3 3.7-2.8 6.5-4.5 8.3-1.7 1.8-3.8 3.1-6.4 4.1-2.6 1-4.6 1.5-5.9 1.7-1.5.2-3.2.3-5.3.3zm-62.3-9.6h48.6c5.2 0 9.5-1.3 12.9-3.8 2.6-2.1 4-4.7 4.1-7.9 0-2.2-.6-4.1-1.7-5.7-1.2-1.6-2.5-2.8-4-3.6-1.5-.8-3.2-1.4-5.1-1.8-1.9-.4-3.3-.7-4.1-.7-.8-.1-1.5-.1-2.1-.1h-48.6v23.6zm223.4-17.4v86.6h-28.9v-42.6h-56v42.6h-30.6v-86.6c0-5.4 1-10.1 3.1-14 2.1-4 4.6-6.9 7.6-8.7 3-1.8 6-3.2 9-4.3 3-1 5.6-1.6 7.7-1.7l3.1-.2h56c5.4 0 10.1 1 14 3 4 2 6.9 4.4 8.7 7.3 1.8 2.9 3.2 5.7 4.3 8.5 1 2.8 1.6 5.2 1.7 7.2l.3 2.9zm-85 23.7h56v-23.6h-56v23.6z" fill="#10372E"/><path d="M166.641 10.14c.1.5.1 1.1.1 1.6 0 .6.1 1.2.2 1.8 1 5.9 2.4 11.6 3.3 17.5.8 4.9 1.3 9.1 1.7 12.6.6 5.7.6 12.3.2 19.8-.6 9.5-3.6 18.8-8.9 28.1-1.9 3.2-4.8 7.3-8.6 12.299-2.5 3.3-4.8 7.5-6.9 12.5-1.8 4.1-2.7 7.9-3 11.3-.4 5.7.5 11.2 2.7 16.4.3.7.4.7.4-.1-.4-5.4 0-11.4 2.2-16.5 2.1-5 4.8-9.6 8.2-13.7 3.1-3.7 6.4-7.5 10.1-11.5 1.7-1.8 3.6-4.6 5.8-8.4 4.7-7.8 7.6-16.3 8.7-25.7 2.8 7.4 3.7 14.8 2.7 22.2-1 7.5-4.2 13.7-9.4 19.2-2.9 3-6.1 6.2-9.6 9.4-4.1 3.8-7.2 8.1-9.4 12.8-1.4 3.1-2.2 6.6-2.5 10.6-.4 6.2 1.4 11.4 5.4 15.8.3.3.4.3.4-.2-.4-4.6.4-8.9 2.3-13.1l1.8-2.1c.7-.8 1.3-1.5 1.9-2 1.8-1.4 3.8-2.7 5.8-3.8 3.7-2 7.4-3.8 11.3-5.5 1.2-.5 2.3-1.1 3.2-1.8 5.7-2.6 10.8-6.1 15.3-10.4 3.7-3.6 6.5-7.8 8.4-12.7 2.3-5.7 3.4-11.6 3.5-17.8.1-3.4-.4-6.9-1.5-10.5-1-3.5-2.2-6.9-3.7-10-.4-.8-.2-1.4.4-1.8 3.2 4.5 7 2.3 10.2-.3 3.1-2.6 6.2-5.2 9.3-7.9.5-.4 1.1-.6 1.5-1.2.5-.8.7-.7.8.2 0 .5 0 1.1-.1 1.5-1.3 8.4-2.5 16.6-3.6 24.8-.5 3.5-1 7.5-1.7 11.9-1.6 10.3-3.1 20.9-4.6 31.8-.3 1.9-.7 3.6-.7 5.5 0 2.2 1.8 3.4 3.8 2.6.9-.4 1.9-1.2 3.1-2.6 11.6-13 23.3-27.4 34.1-39.8.3-.3.8-.4 1.2-.1.1.1.2.2.2.3 2.1 5.1 4.2 10.2 6.2 15.4 1.4 3.7 4.9 2.8 7.9 2 19.9-5.3 38.4-12.1 55.9-22.4.4-.2.9-.3 1.3-.3.2 0 .3.1.2.4-6.4 13.9-11.4 28.1-15 42.8-2.6 10.7-4.8 18.7-6.4 24-4.5 14.2-12.3 27.4-19.4 40.4-.1.2-.1.4.2.5 2.4 1 4.7 1.5 7.1 2.1 5.2 1.5 10.5 3.1 15.5 4.5 9.3 2.6 18.7 5.3 28.1 8.2.2.1.4.2.4.5 0 .2 0 .4-.2.5-2.1 1.6-4.3 3.2-6.6 4.8-10.5 7.4-21.3 14.8-32.2 22.3-3.9 2.7-8.4 5.6-13.6 8.8-8.6 5.4-17.5 10.1-26.5 14.5-.5.2-.6.6-.2 1 8.1 10.8 16.9 21.8 26.5 32.9 1.5 1.7 3.1 3.5 4.8 5.3.1.1.1.2 0 .3l-.1.1h-32.3c-1.7 0-3.2.6-4.9.7-8.2.2-15.4.1-21.5-.3-15.6-.9-30.9-6.1-44.9-13.6-.2-.1-.4-.1-.5 0-4.7 3.5-8.7 7-12 11.7-.5.7-1 1.4-1 2.2-.1 11.8-.1 23-.1 33.5 0 5.8-1.2 10.5-8 10.5-3.9 0-6.1-4-6.1-7.6.1-11.5.1-23 .1-34.7 0-.3.1-.5.2-.7 5.9-9 13.6-17.2 23.1-22.7 5.6-3.3 10.8-5.8 15.7-7.6 6.1-2.2 13.1-4.6 21-7.2 5.9-1.9 11.1-4 15.7-6.4 10.4-5.5 18.4-14.4 23.3-25.2 1-2.3 1.8-4.6 2.2-6.9.1-.5 0-.5-.4-.2-3.4 3-6.8 5.7-10.2 8.2-8.1 5.9-17.2 10.7-27.5 14.4-8.1 2.9-15.6 5.1-22.6 7.7-2.4-.3-4.8-.9-7.2-1.9-1-.4-2.1-.7-3.3-1-1.1-.2-2.3-.5-3.4-.9h7.1c.2 0 .3-.1.3-.3-.1-6.8-.2-14.1-.1-21.9 0-4.8-.2-8.6-.8-11.2-2.1-10.2-9-17.1-18.7-21.1-6.1-4.9-12.2-9.8-18.2-14.6-1.5-1.2-2.8-2.4-3.8-3.5l14-11.5c.2-.2.4-.2.6 0l50.3 40.5c.2.2.3.4.3.6l-.1 30.6c0 .3.1.4.4.3 3.1-1 6.2-2.3 9.4-3.8.2-.1.3-.3.3-.5l-.1-19c0-.1.1-.3.3-.3.1 0 .1 0 .2.1l13.7 11.8c.2.2.4.2.6 0 1.8-1.7 4-3.3 6.5-4.9 1-.6 1.9-1.3 2.8-2 .3-.3.3-.6 0-.9l-32.7-25.9c-.4-.3-.5-.7-.5-1.1v-39.7c0-.1-.1-.2-.1-.2h-28.5c-.1 0-.3.1-.3.3l-.1 16.2c0 .3-.1.4-.4.2-.8-.7-1.6-1.5-2.4-2.1-7-5.2-13.5-10.3-19.6-15.3-.1-.1-.3-.1-.4 0l-46.5 37.8c-.1.1-.2.1-.2 0-.1-.1-.1-.3-.1-.5.5-3.9 1.3-7.7 1.3-11.6.1-5-.2-10.1-.7-15.6-.4-3.5-1.1-7.1-2.3-10.8-2.8-9-6.5-17.2-11.1-24.6-.1-.2-.2-.5-.1-.7.1-.3.4-.5 1-.6 1.8 2.1 3.7 4.1 5.7 5.9.9.9 1.7 1.3 2.4 1.5 2.2.4 3.8-1.6 3.5-3.7-1-7.9-2.1-16.1-3.5-24.4-.6-3.8-1.2-7.8-1.8-11.9-.9-6.5-1.9-12.9-3-19.4-.8-5-1.4-10-2.1-15.2-.2-1.3-.3-2.6-.4-4 0-.4.1-.4.4-.2 4.9 4.5 9.6 8.3 14.1 11.3 1.4.9 3.5 1.2 5.1.5 1.8-.7 3.1-2 4.1-3.8 8.4-15.5 17.3-32.1 26.5-50 .6-1.1 1.5-2.7 2.4-4.4zm82.4 154.399c-1.7-10.9-1.7-22.4 2.3-32.5.7-1.7 1.7-3.4 3.1-5.3v-.1h-.2c-1.2 1.1-2.1 2.3-3 3.5-1.8 2.7-3.5 5.5-5.1 8.6-5 9.3-6.7 21.3-2.6 31.3.1.3 0 .7-.2.9-5 4-7.9 9.1-9.6 15.4-.1.4 0 .4.2.1 1.3-1.8 2.9-3.4 4.7-4.7 3.1-2.3 6.6-4 10.4-5.1 1.4-.4 3.5-.6 6.5-.5 2 0 4.1-.1 6.3-.3 8-.9 15.4-4 22.2-9.3 2.4-1.9 4.9-3.9 7.5-6.1-2.7 1.4-5.2 3.1-8.1 4.2-8.9 3.3-18.1 4.8-27.7 4.4-.3 0-.4-.2-.2-.4.4-.6 1.2-1 1.7-1.5 8-8.1 16.5-16.5 25.4-25.4 7.8-7.7 15.2-15.9 22.3-24.4.7-.8 1.4-1.7 2.3-2.5.5-.5.5-.6-.1-.1-7.1 5.5-14.3 11-21.1 16.9-12.4 10.8-24.6 21.8-36.6 33.1-.1 0-.2 0-.4-.2.1.1 0 .1 0 0zm50.5 53.2c-7.8.2-15.4 2.5-22.6 6.3-.7.4-1.4.8-2 1.4-.2.2-.2.3.1.3 2.5 0 5.1-.1 7.8-.1 10.2 0 19.2-3.6 28.4-7.7.3-.1.2-.2 0-.2-3.8-.1-7.7-.1-11.7 0zm-47.7 64.8c-4.9-2.2-9.8-4.2-15-5.1-4.7-.8-9-.6-13.3-1-.7-.1-.8.1-.2.6 7 5.3 15.1 8.1 24.3 8.3 3.1.1 6.3.1 9.8.2.5 0 .5-.1.1-.3l-5.7-2.7z" fill="#013C24"/><path d="M207.641 64.24l1.5 2.2c-.6.4-.8.9-.4 1.8 1.5 3.2 2.7 6.5 3.7 10 1 3.6 1.5 7.2 1.5 10.5-.1 6.2-1.3 12.099-3.5 17.799-1.9 4.9-4.8 9.1-8.4 12.7-4.4 4.3-9.5 7.8-15.3 10.4 5.5-4.4 9.7-8.4 12.6-12 3.3-4 6.1-8.7 8.3-14.1 1.7-4 2.7-7.9 3-11.6.5-4.8.2-9.6-1-14.4l-3.2-13.2c-.1-.3.1-.6.4-.6.2-.1.4 0 .5.2l.3.3z" fill="#3F9E09"/><path d="M209.741 77.44l-3.2-13.2c-.1-.2 0-.4.2-.5.2-.2.5-.1.7.1l.3.4c-9.9-17.3-19.5-34.7-28.8-52.2-2.1-3.9-4.1-7.9-6.1-11.8 0-.1-.1-.2-.2-.2-.2-.1-.5 0-.7.2l-5.2 10c.1.5.1 1.1.1 1.6 0 .6.1 1.2.2 1.8 1 5.9 2.4 11.6 3.3 17.5.8 4.9 1.3 9.1 1.7 12.6.6 5.7.6 12.3.2 19.8-.6 9.5-3.6 18.8-8.9 28.1-1.9 3.2-4.8 7.3-8.6 12.299-2.5 3.3-4.8 7.5-6.9 12.5-1.8 4.1-2.7 7.9-3 11.3-.4 5.7.5 11.2 2.7 16.4.3.7.4.7.4-.1-.4-5.4 0-11.4 2.2-16.5 2.1-5 4.8-9.6 8.2-13.7 3.1-3.7 6.4-7.5 10.1-11.5 1.7-1.8 3.6-4.6 5.8-8.4 4.7-7.8 7.6-16.3 8.7-25.7l-.6-2.7c-.1-.4 0-.5.3-.2 5.1 4.8 8.6 10.6 10.7 17.4 2.5 7.1 2.3 14.6 0 21.9-.3 1-.7 2-1.2 2.9-1.2 2.4-2.2 4.7-3.8 6.8-3 4.2-6 7.6-9 10.2-3.6 3.2-6.5 5.8-8.7 7.9-3.5 3.4-6.1 7.5-7.8 12.3l1.8-2.1c.7-.8 1.3-1.5 1.9-2 1.8-1.4 3.8-2.7 5.8-3.8 3.7-2 7.4-3.8 11.3-5.5 1.2-.5 2.3-1.1 3.2-1.8 5.5-4.4 9.7-8.4 12.6-12 3.3-4 6.1-8.7 8.3-14.1 1.7-4 2.7-7.9 3-11.6.4-4.8.1-9.6-1-14.4z" fill="#52BA0F"/><path d="M107.541 121.739l5.5 6.5c-.5.1-.9.3-1 .6-.1.2-.1.5.1.7 4.6 7.3 8.3 15.5 11.1 24.6 1.2 3.7 1.9 7.3 2.3 10.8.6 5.4.8 10.6.7 15.6-.1 4-.8 7.8-1.3 11.6 0 .2 0 .3.1.5 0 .1.1.1.2 0l-5.4 4.5c0-.7.1-1.4.3-2.1.2-.9.3-1.6.3-2.1.3-8.1.2-16.2-.6-24.1-.3-3.7-1-7.5-1.8-11.5-1.6-7.3-3.2-13.5-4.6-18.7-1.1-4-3.4-9.2-6.8-15.5-.1-.2-.1-.4-.1-.6 0-.2 0-.4-.2-.5-.1-.1-.2-.3-.2-.5 0-.1.1-.2.1-.2.1-.1.3-.1.4 0l.9.4z" fill="#3F9E09"/><path d="M205.441 181.939v-15.7c0-.1.1-.2.2-.2l7.5-.1c.1 0 .2.1.2.2l-.1 21.4c0 .1-.1.2-.2.2h-.1l-7.5-5.6c.1-.1 0-.1 0-.2zm-51.9 41.8c.5-8.7 6.3-15.1 14.9-16.3.1 0 .2.1.2.2l.1 16.3c0 .1-.1.3-.2.3h-14.7c-.2-.2-.3-.3-.3-.5zm36.8-5.1c.7 1.7.9 3.4.7 5.3 0 .1-.1.2-.2.2h-14.6c-.2 0-.3-.1-.3-.3l-.1-16.2c0-.2.1-.3.3-.3.8 0 1.6.2 2.4.5 5.7 1.8 9.6 5.4 11.8 10.8zm-36.3 12.4h14.6c.1 0 .2.1.2.2v14.2c0 .1-.1.2-.2.2h-14.6c-.1 0-.2-.1-.2-.2v-14.2c0-.1.1-.2.2-.2zm22 .1h14.8c.1 0 .2.1.2.2v14.1c0 .1-.1.2-.2.2h-14.8c-.1 0-.2-.1-.2-.2v-14.1c.1-.2.1-.2.2-.2z" fill="#013C24"/><path d="M198.641 255.939c-1-.4-2.1-.7-3.3-1-1.1-.2-2.3-.5-3.4-.9h-46c-.3 0-.5-.2-.5-.5v-24.1c0-5.1.4-9 1.2-11.6 1.8-6.1 5.3-10.9 10.3-14.4 5.3-3.6 10.9-5.2 16.9-4.9 2.1.1 4 .6 6 1-6.1-4.9-12.2-9.8-18.2-14.6-1.5-1.2-2.8-2.4-3.8-3.5-5.1 4.1-10.3 8.3-15.5 12.3-6.6 5.2-13 10.7-19.4 16-.6.5-.9 1.1-.9 1.9l.3 44.7c0 .5-.2.7-.7.7h-9.6c-.3 0-.5-.2-.5-.5l.1-37.7c0-.1 0-.1-.1-.2s-.2-.1-.3 0c-4.9 4-9.6 8.1-14.1 12.2-.2.2-.3.2-.5 0l-8.9-7.8c-.1-.1-.1-.3 0-.4l32.2-25.7c0-.7.1-1.4.3-2.1.2-.9.3-1.6.3-2.1.3-8.1.2-16.2-.6-24.1-.3-3.7-1-7.5-1.8-11.5-1.6-7.3-3.2-13.5-4.6-18.7-1.1-4-3.4-9.2-6.8-15.5-.1-.2-.1-.4-.1-.6 0-.2 0-.4-.2-.5-.1-.1-.2-.3-.2-.5 0-.1.1-.2.1-.2.1-.1.3-.1.4 0l.7.5-24.7-28.5-.1-.1c-.2-.1-.4 0-.4.2l-6.9 16.2c-.4.9-1 1.5-2 1.6-1.1.1-2 0-2.6-.1-10.9-2.3-21.7-6.1-32.4-10.1-6-2.3-11.9-4.9-17.8-7.9-3.1-1.6-6.1-3.5-9.2-5-.6-.3-.8-.2-.5.5 4.6 9.6 8.2 19.7 11.3 30 2.8 9.2 5.1 20.7 7.3 28 3.6 12.2 6.8 20.9 12.2 31.1 3.4 6.5 6.3 11.7 8.5 15.8.5.9 1 1.9 1.5 2.8v.1c0 .2-.1.3-.2.4-3.8 1-7.5 2.1-11.3 3.2-3.4 1-7.1 2.1-11.2 3.2-7.7 2-16.9 4.7-27.6 8-.5.1-.9.3-1.2.5 0 0-.1 0-.1.1-.1.1 0 .3.1.3 3.7 2.3 7 5 10.6 7.6 9.5 6.9 19.1 13.7 28.9 20.2 11.9 8 23.9 15.2 36.1 21.5 1.1.6 2.2 1 3.3 1.4.1 0 .1 0 .1.1.2.2.3.5.1.7l-.6.8c-9.8 12.8-19.9 25.3-30.3 37.7v.1c0 .1.1.2.2.2 12.1-.1 24.4-.3 37.1.4 4.5.3 8.8.2 13.3.1 3.2 0 6.1-.2 8.5-.4 8.7-.7 16.4-2.6 25.8-5.4 9.7-3.3 18.9-7.8 27.4-13.7 8.2-5.7 16.3-11.6 25.3-16.2 6.6-3.4 13.3-6.5 20-9.1-2.4-.4-4.8-1-7.3-2zm-90.6 18.5c-.1 0-.1 0 0 0zm-14.4-2.4zm-.1.3l-.1.1c.1 0 .1-.1.1-.1zm-.2.2l-.1.1c.1 0 .1 0 .1-.1zm-.2.2h-.2.2zm-.8.3c0 .1-.1.1-.1.2 0-.1.1-.2.1-.2zm-.4.4c-.1 0-.1.1-.2.1.1-.1.1-.1.2-.1zm-.2.1h-.1.1zm-.4 0h-.2.2zm-.3 0c-.1 0-.1 0-.2-.1.1 0 .2 0 .2.1zm-18-47.9c-4.1 0-7.9 0-11.4-.1s-7.3-.7-11.3-1.7c-5.4-1.3-10.2-4.2-15.2-6.3-.8-.3-.7-.5.1-.4.9 0 1.9.3 2.8.3 5.8-.1 11.3.3 16.6 1.1 5 .8 9.7 2.9 14.2 5 1.4.7 3 1 4.4 1.6.6.3.6.4-.2.5zm-.8-52.7c-6.7-3.1-12.9-7.3-18.7-12.5v-.1h.1c3.9 2.6 8 4.5 12.4 5.7 3.9 1.1 7.7 2 11.7 2.3 3.7.2 7.4.3 11 .3.4 0 .4-.1.1-.4-18.3-17.3-35.2-34.7-50.5-52.2-.5-.5-1-1.1-1.7-1.7-.1-.1-.1-.1 0-.2s.1-.1.2 0c2.3 1.6 4.5 3.3 6.7 5.1 12.5 10 20.9 16.9 25.2 20.8 5.7 5.2 11.4 10.3 17.1 15.4 3.3 3 6.1 6 9.2 9 .1 0 .1.1.2.1.2.1.5-.1.5-.3.2-.8.4-1.6.5-2.5.5-5.4.6-10.5.4-15.4-.4-7.2-2.4-13.7-6.2-19.7-.3-.5-.3-.5.1-.1 5.7 6.8 10.4 15.1 12.1 23.6 1.2 6.2.8 12.6-1.2 19.5-.1.5 0 .9.3 1.3.6.6 1.3 1.3 2.2 2.1 4.1 3.7 6 8.9 7 14.1.1.6 0 .7-.4.2-2.8-3.7-6.2-6.8-10.2-9.2-2.3-1.3-5-2-7.7-2-6.9.2-14.2-.3-20.4-3.2zm36.3 111.2c-2 .6-4.6 1-7.8 1.2-4.6.2-9.2.3-13.8.3-1 0-1-.1-.1-.4.6-.2 1.1-.4 1.7-.7 5-2.3 9.2-4.2 12.6-5.5 3.8-1.4 8.5-2.2 14.1-2.2l8.4-.3c.6 0 .6.1.1.4l-2.5 1.3c-4.4 2.6-8.6 4.6-12.7 5.9zm22.7 12.6v-.1s.1 0 0 .1c.1 0 .1-.1 0 0z" fill="#3F9E09"/></svg>