<svg width="970" height="918" fill="none" xmlns="http://www.w3.org/2000/svg"><g clip-path="url(#clip0_574_156)"><path d="M362.11 613.05c1.475.248 2.743 1.264 3.856 2.482.923 1.011 1.791 2.222 2.612 3.367.171.24.341.477.509.709.991 1.368 1.901 2.532 2.802 3.178.442.317.849.485 1.234.511.375.025.783-.08 1.243-.409l.085-.06.102-.022 67.654-14.28c25.574-16.784 63.89-42.186 95.824-63.912 15.984-10.875 30.365-20.827 40.75-28.315 5.193-3.745 9.381-6.87 12.268-9.184 1.445-1.159 2.555-2.107 3.3-2.824a8.96 8.96 0 00.819-.874 1.764 1.764 0 00.189-.292c-.006-.303-.105-1.142-.301-2.506-.2-1.389-.494-3.28-.871-5.604a1624.4 1624.4 0 00-3.15-18.545c-2.63-15.055-6.19-34.74-9.911-54.536-3.721-19.798-7.601-39.705-10.872-55.207-1.635-7.751-3.117-14.397-4.35-19.375-.617-2.49-1.17-4.558-1.648-6.136-.483-1.597-.875-2.644-1.161-3.13-.221-.377-.636-.865-1.258-1.46-.617-.589-1.414-1.263-2.378-2.012-1.926-1.499-4.494-3.282-7.553-5.277-6.118-3.989-14.176-8.803-22.951-13.841-17.513-10.056-37.861-20.99-51.288-28.007-27.03-3.166-67.649-7.909-101.783-11.862a22848.945 22848.945 0 00-43.864-5.046 3834.261 3834.261 0 00-13.552-1.521 584.906 584.906 0 00-3.853-.412 105.216 105.216 0 00-1.265-.122 9.904 9.904 0 00-.202 1.049c-.147.963-.306 2.394-.474 4.253-.336 3.714-.706 9.099-1.1 15.772-.789 13.345-1.671 31.825-2.558 52.361-1.774 41.05-3.569 90.307-4.681 123.165l23.303 132.029c.182.277.364.54.542.786.266.367.675.563 1.224.652.558.09 1.189.058 1.835.023h.001l.102-.005h.009c.257-.014.52-.027.766-.027 1.142 0 2.607.129 4.028.419 1.413.288 2.832.745 3.849 1.429l-.279.415.279-.415c.466.313.836.812 1.143 1.327.307.518.581 1.107.833 1.649l.006.012v.001l.004.008-.454.21m20.586 9.411s0 0 0 0l-.083.493.083-.493zm0 0c-.694-.117-1.688-.447-2.876-.844h-.001l-.132.394-.027.08m0 0l.148-.478-.012-.004c-1.575-.526-3.441-1.149-5.149-1.403-1.687-.251-3.409-.172-4.51.938m9.523.947c-3.179-1.062-7.33-2.448-9.168-.595m9.168.595l-9.168-.595m-.355-.352c-.259.261-.426.352-.515.379-.054.016-.068.009-.097-.011-.058-.039-.142-.133-.253-.325a8.393 8.393 0 01-.332-.679v-.002l-.215.098-.207.095-.033.015m1.652.43l.355.352m-.355-.352s0 0 0 0l.355.352m-2.007-.782l.034-.016-.034.016m0 0h0m0 0l-6.375-7.664m6.375 7.664l.04-.019.412-.195-.019-.042c-.238-.523-.551-1.211-1.054-1.648-.307-.267-.615-.527-.918-.785l-.324.382m1.863 2.307c-.254-.558-.529-1.162-.949-1.526a80.683 80.683 0 00-.914-.781m0 0l.323-.382c-1.335-1.129-2.586-2.191-3.551-3.586m3.228 3.968c-1.327-1.123-2.631-2.226-3.64-3.684m.412-.284c-.265-.385-.524-.939-.821-1.581l-.454.211m1.275 1.37l-.412.284m.412-.284v-.001l-.412.285m-.863-1.654l.454-.211-.009-.018-.454.21m.009.019l-.009-.019m.009.019c.291.628.569 1.227.863 1.654m-28.983-336.976c.001-.003.001-.002 0 0h0z" fill="#fff" stroke="#A7A7A7"/><path fill-rule="evenodd" clip-rule="evenodd" d="M452.877 319.318l-3.654-3.087 2.885-1.351.769-3.665 5.197-3.473.384-1.351-4.619.386-.192 1.544-1.924-.579-.192-5.402.769-4.438 4.62-5.787-2.889-2.123 1.731-6.174-3.462-4.63 2.308-.579-1.346-4.052 10.004-3.665 8.846 1.157 11.158 9.647 6.923-.386 1.73.772-.192 3.666-3.461.771-2.5 11.962 4.423 2.508-.962 1.351 21.735 18.714-1.923 1.35v.194l-1.346.771.384.772.385.193-.385.386-.961.578.192.194.961 1.35h.385l-1.538 2.894-1.923-.386-.577.579 1.923 2.894-1.923-.193-1.154 3.28 1.731 3.28 2.5 1.157 4.619 5.788v.579l-2.312 2.122-2.5 6.946.577 3.666 8.85-1.737 4.039 2.702-4.039 6.173-6.927.579.193 1.736-5.193.386v5.209l-14.234-12.734-2.885-.385-1.923-.193h-5.192l-12.889-5.016-4.615.386-.577.192 1.154-1.543-.193-6.367.962-.579.577-.192.385-1.737-1.154-.772v-2.508l2.5.193-.193-1.929-1.153-.965-5.962 1.544.769 3.28h-1.346l-.961-3.859-1.351-.193 2.504-3.28-2.119-2.894.773-2.894-5.773-5.016-6.346 4.052-.577-2.508-3.846 1.157.192-3.279 11.731-2.123.769-1.93-1.154-3.086zm18.85 177.11l-.962-4.049-2.307-2.702-1.154-.578.769-5.211 1.154-7.718 3.077-1.351-1.731-4.438 13.273 1.544 4.615-1.544 13.85-10.03 6.154-6.174.769.77.193 3.09 3.273.578 1.923-2.317 4.808-.193 3.461 3.861-3.077 1.543 3.077 1.351v3.087l4.423 5.978 2.885.773 1.734 2.51 4.039 2.313-2.5 6.174 1.154 7.91 1.731-1.928 3.846 6.751-3.27 2.894-2.692-4.245-3.465 3.283-1.923-2.317v-3.087l-4.039-2.121-1.154-3.668-5 7.525-4.23-4.823.961 9.838-12.311-3.279-1.539 3.86-8.077-3.86-2.696-7.91-8.269 5.212-8.85-1.74-1.154 7.525-4.231-1.155 3.462-1.932zm-233.702-8.679l3.463-3.861-2.116-5.015 5.77-5.4 15.773-2.702 8.655-9.453 10.003-3.861-6.541-5.593.578-10.419 4.616-3.668-10.771-15.046 2.5-5.016-1.731-7.524 2.885-1.933-5.386-5.977 4.617-5.597 10.579 4.823.192-7.332 4.424 1.158 8.656-12.54 16.542 1.543 3.654 4.246 14.619-1.351 4.616 6.751 9.041-2.702 6.155 10.42 12.887 5.789 11.733-.193 1.632 1.919 7.01 5.535 1.36-1.669 5.194.389 4.039 3.664 7.115-7.525 10.196 3.861v-7.14l7.5-2.121 1.927.962 1.346-1.543 1.346.966 4.523-6.335.285.161-.192 14.276 3.168 9.532.854 2.098-.67 3.338-3.218-2.191-2.406 2.574-.878 3.029-.789-2.419-2.82 4.687 5.099 1.676 7.331-8.581 2.213 3.817 1.539 4.241-1.539 1.159-1.153-1.928-2.5 3.279-2.834-4.252-.243 4.444-2.5-.192-2.5-.193-.77 4.438-.961 1.351-2.119-2.509-2.5 6.366-4.491-1.192.331-1.887 1.249.062.193-1.654-1.458-.182-.63 3.617-2.887-.692-6.927 3.087 1.158 3.279-4.619 4.823-1.154-1.543-.192.769-1.346-1.154-3.462 1.543-2.308 5.208-8.078-1.736-.578 3.664-3.27-2.313-6.154 5.981-2.117-8.102-10.579 2.506 3.847 2.894-.961 1.351-3.655-1.543-1.923 4.049 5.193.774-5.963 5.981.385-4.438-18.081 2.314-4.039 5.596-12.118.966.193 6.944-7.887 6.559-16.927 2.894v3.668l-9.232-4.823-2.501 4.823-1.539-5.596-8.271-.578-.577 10.031-13.271-13.891-9.81 9.261-6.155-7.525-7.887-2.506z" fill="#EFEFEF" stroke="#A7A7A7" stroke-linejoin="bevel"/><path fill-rule="evenodd" clip-rule="evenodd" d="M371.322 403.435l9.233-4.63.77-6.944 4.233-.581 1.538-6.559-3.655-4.244 6.347-8.296-1.153-6.174-5.579-1.736-3.27-4.052 3.462-1.736 5.964-2.894 9.038 6.173 5.004.58-2.889 2.314 4.427.773v-2.702l6.539 1.158-2.5-2.123 1.73-3.086 2.308 2.315 1.154-2.508 2.5 6.752 4.812 4.052 1.73-4.631 2.308 1.544 2.308-.771 1.346 2.894h4.423l1.346 1.35-1.538 1.543-1.154 3.859-3.077.579-.769-1.158.577-1.157-.193-2.701-2.5.771-1.154-.385-4.038 3.472.577 1.351-1.539 3.473 3.077.192-1.73.965.769 1.351.384 2.893 1.731 1.736v-2.314l1.154 2.506 3.077-3.085 3.462.386-2.206 5.569-.455 1.076.161-.47-1.347-.774-.769 1.736.385 1.932h.577l.961-2.317 1.346.193-.384 1.928-2.885 5.019-.384.578-.286-.161.324-.585-4.077-2.534-.385.385-.576-.385-1.735-.192.388-2.125-5.976-.063 1.492 5.784 3.978 3.059-.647 1.64-1.927.966-7.5 2.12v7.14l-10.197-3.86-7.115 7.525-4.038-3.665-5.194-.388-1.36 1.669-7.011-5.535-1.632-1.919.77-.774-2.886-3.087z" fill="#EFEFEF" stroke="#A7A7A7" stroke-linejoin="bevel"/><path fill-rule="evenodd" clip-rule="evenodd" d="M407.293 330.122h-2.308l1.539-1.736 1.535-3.619-2.983-6.497.712-13.087 2.274-4.194 7.308 9.647 1.73-1.737 12.312 2.895-.769-3.859 4.231 2.315 1.346-1.929 3.465 3.28.381 2.508-3.462 2.122.385 4.631 2.5 1.157-2.116 2.701 3.079.869-.002 2.99v1.157h2.889l3.846-1.157.577 2.508-.192 2.122.192 1.543-1.923-.192-.769 2.122 2.5 1.157-.385 3.473 2.885-2.701 1.73.772-2.307 5.402 2.5 4.052-1.539 9.26 3.846.772.578 2.122-6.731 4.824h-4.808l-3.654 2.315-3.081-1.158-1.923-7.331-1.73-.193-.385-4.245 2.5-.193-.962-2.893 2.5-.386-.961-4.245 4.619-4.437-3.465-1.351-2.116 1.737-6.923-2.702-.961.772.577.772-.962.772-1.154-.965-1.346 1.158 2.5 3.666-1.538 1.157-.77-1.157-1.926 1.543 2.503 2.894 1.347-1.737 4.423 2.894-2.116 2.894 1.154.965-1.538 4.823 2.307 1.351-.577 2.894-2.307.771-2.308-1.543-1.731 4.631-4.811-4.052-2.5-6.753-1.154 2.508-2.308-2.315-1.731 3.087 2.5 2.123-6.538-1.158v2.701l-4.427-.772 2.888-2.315-5.004-.579-9.038-6.174-5.963 2.894-3.27-4.823 4.633-2.511-.305-6.128 6.049 1.169 1.356-6.421 6.346 4.63-1.538-8.103 2.5-3.858 5.004 1.543.577 3.087 2.115-.386.577-6.56z" fill="#EFEFEF" stroke="#A7A7A7" stroke-linejoin="bevel"/><path fill-rule="evenodd" clip-rule="evenodd" d="M445.762 331.087l6.346-4.052 5.773 5.016-.773 2.894 2.119 2.894-2.504 3.28 1.35.193.962 3.859-2.696.964 2.888 11.19-1.542.194-4.808 3.472-.577-2.122-3.846-.772 1.538-9.261-2.5-4.051 2.308-5.402-1.731-.772-2.884 2.701.384-3.473-2.5-1.157.193-.772.577-1.35 1.923.192-.193-1.543.193-2.122zm5.961-23.346l1.923.579.192-1.543 4.62-.386-.385 1.35-5.196 3.473-.769 3.666-2.885 1.35 3.654 3.087 1.154 3.087-.77 1.929-11.73 2.123-.193 3.28h-2.888v-1.158l.002-2.99-3.079-.868 2.115-2.701-2.5-1.158-.384-4.631 3.461-2.122-.381-2.508 2.885 1.736 9.231-11.383 1.73.386.193 5.402zm74.247 96.467l.384 1.351-1.538.578.769 2.121.961.388-.192 2.506-8.269 1.928v-11.381l4.615-1.736-.192 2.894 3.462 1.351zm-119.447-75.823l-13.466-9.453-5.192 3.087-2.308-2.894-4.233.965 5.003 8.295-2.695 1.737 1.541 6.174-1.156 2.894 7.694.579-1.356 6.421-6.048-1.169.304 6.128-4.633 2.511-4.039 1.929 2.115-4.245-2.885.772-2.5-7.717-5.002-1.158.963-14.276-11.157 3.086-3.269-11.383-29.045-5.594v-4.824l-9.618-15.242-6.154.965-7.118-5.402-1.346-3.28 3.27-.965.962 3.087 5.001-13.119-7.117-5.788 4.808-4.244-2.115-1.544 2.693-3.28-1.154-5.402 10.771-4.052 1.347-2.7 10.002-1.158.577-9.647 4.424-5.594-1.155-5.789 6.925.386v-5.788l8.848-1.929 9.04 3.858.77-4.437-8.848-6.56 10.194-.192-4.039-9.647 5.001-.579v3.28l14.234 16.206.192 4.052 8.848 3.28 2.694 5.595-5.194 5.402.577 5.209 17.309-1.158 4.812 9.454 3.461 1.737 2.885 4.244-7.885 12.348 2.5 13.312 3.846-.579 5.577 6.753-6.538 3.28-.385 6.366-2.274 4.194-.712 13.087 2.983 6.497-1.535 3.618zm110.408 29.326l-8.85 1.737-.577-3.666 2.5-6.946 2.311-2.122v-.579l.189-.386v-.578h3.081l-.962-2.316 1.346-1.157 2.885 1.157 1.923-1.35 10.196.965 1.539-1.543 2.692-.965 2.5.192 1.923 3.087-.577 2.316-1.731-.194-.192-1.736h-4.615l-.193 2.508-4.427 2.895 3.658 4.823-2.696 2.894 2.885.964 1.542-.964 1.731 1.929-1.154 7.91-2.885 1.544-1.35-1.158-12.692 4.63-3.269.194-3.466-2.895-.192-1.736 6.927-.579 4.038-6.173-4.038-2.702z" fill="#EFEFEF" stroke="#A7A7A7" stroke-linejoin="bevel"/><path fill-rule="evenodd" clip-rule="evenodd" d="M505.004 248.897l3.654.965.192 5.016 3.273-1.351 14.808-2.508 19.235 10.998 4.619-2.509 1.731 6.174 2.884 2.894 18.658-1.929 1.538 1.736h8.27l-.193.193 43.089-37.429.769.772-3.654 3.859 3.082 3.284-.577 4.246 6.154 6.363-28.282 23.729-1.731 5.016-5.577 5.016-3.269.193-9.811 9.068-3.654 6.752-7.5 1.737 5.192 7.332-2.692 8.681-2.5-4.63-4.808-.386-2.888 2.894-4.231-5.595-5.385 5.402-8.465-.386 2.888 3.473-5.58 4.245 2.692 8.103-3.846.385-3.654-2.701-1.923.386 3.461 4.245 1.154.579-.577 5.787-1.346.772-.961-1.543-3.077-.193-.962 1.929-2.692.965-1.539 1.543-10.196-.964-1.923 1.35-2.884-1.158-1.347 1.158.962 2.315h-3.081v.579l-.188.386-4.62-5.788-2.5-1.158-1.73-3.279 1.154-3.28 1.923.193-1.923-2.894.576-.579 1.924.386 1.538-2.894h-.385l-.961-1.351 1.154-.579-.385-.192.385-.386.384.193.385-.772-.192-1.158v-.193l1.923-1.35-21.735-18.715.962-1.35-4.423-2.508 2.5-11.962 3.461-.772.192-3.666-1.73-.771 2.5-9.261-3.27-6.367 8.85-8.296 6.731-8.489z" fill="#EFEFEF" stroke="#A7A7A7" stroke-linejoin="bevel"/><path fill-rule="evenodd" clip-rule="evenodd" d="M359.397 191.018l5.963-1.158-4.232-3.279 1.347-6.175-10.964-10.611 7.886-7.717 3.654-7.524 9.811-.193 5.385-4.438-2.308-3.665-6.925-2.122 1.154-4.245 2.886 1.929 1.923 1.351 10.388-16.592-5.194-4.438 2.693-4.63-4.424-8.489 7.887-3.666.961-3.087-6.54-5.209 5.387-1.736-.385-3.859 3.846-2.122 11.731 8.489 28.661 36.464 5.193 16.592 27.507-9.84 1.154 4.631 7.116 5.595 10.58 3.087 9.808-15.049 10.389-6.174 5.192 4.245-.769 4.437 2.307.772 2.693 7.525-.77 5.787 3.274 4.631-1.158 2.894 5.965 1.543 5.577 9.453-6.538 5.596-3.846 7.717 3.846 7.524-8.081 12.155.577 6.367-5.385 5.016 4.616 11.962-8.462 4.823 9.231.965 1.923 11.576-3.269 1.736-3.654-.964-6.731 8.488-8.85 8.297 3.269 6.366-2.5 9.261-6.923.386-11.157-9.647-8.847-1.157-10.003 3.665 1.346 4.052-2.308.579 3.462 4.63-1.731 6.174 2.888 2.123-4.619 5.787-.769 4.438-1.731-.387-9.231 11.384-2.884-1.736-3.466-3.28-1.346 1.929-4.231-2.315.77 3.858-12.312-2.894-1.731 1.737-7.308-9.647.385-6.366 6.539-3.281-5.577-6.752-3.847.579-2.5-13.312 7.885-12.348-2.885-4.245-3.461-1.736-4.812-9.454-17.309 1.158-.577-5.209 5.194-5.403-2.694-5.595-8.847-3.279-.193-4.052-14.234-16.206v-3.28l-.77-5.595 2.309-2.315-3.077-.386-.193-2.894zm172.342 166.693l-2.885-.965 2.696-2.893-3.657-4.824 4.426-2.894.193-2.508h4.615l.192 1.736 1.731.193.577-2.315-1.923-3.087-2.5-.192.962-1.93 3.077.193.961 1.543 1.346-.771.577-5.788-1.154-.579-3.461-4.245 1.923-.385 3.654 2.7 3.846-.385-2.692-8.103 5.58-4.245-2.888-3.473 8.465.386 5.385-5.402 4.231 5.595 2.888-2.894 4.808.386 2.5 4.63 2.692-8.681-5.192-7.332 7.5-1.737 3.654-6.752 9.811-9.068 3.269-.193 5.577-5.016 1.731-5.016 28.277-23.731 2.885 7.332 13.273-3.28-5.577 11.576 4.615 8.681-1.154 9.454 3.462 2.894-.577 6.367 1.923 6.367-6.154 3.666 4.423.192 2.5 4.631-4.23 1.736-5-4.051-3.85 1.929.576-5.788-2.692-2.315-2.884 2.701-.77-.965.77-5.016-8.27-2.508 4.423 3.28-2.5 1.929 4.423 3.28.577 3.086-5.961-2.508 1.154 3.666-4.616-.385-3.465.578 5.196 4.438-2.888-.194-5.193 6.946-18.85-5.595-.769 6.946 7.885 1.543.58 8.489-5.58 3.087-1.154-4.437-5.193 3.858-.273-3.53-5.086.392-1.442 3.553-3.401-.121-3.067 7.835-8.229.117-2.185 10.372-6.558 5.571.123 10.251 3.572-.676 1.35-.193.193 1.35h1.153l.385-1.929 4.423 2.508 3.269 1.736-1.346 5.788 4.423.386 7.12 2.122 1.153-1.929 1.539 1.35-2.885 3.859.577 5.211-11.542 1.736-3.846-4.053-.577 3.087-6.927-1.159-5.962 2.317-2.884-5.209-7.308-5.789-4.812 3.088-3.269-2.509.962-.964-.385-3.088-5.961-.192-5.193-4.438 2.885-1.543 1.154-7.91-1.731-1.93-1.542.965z" fill="#EFEFEF" stroke="#A7A7A7" stroke-linejoin="bevel"/><path fill-rule="evenodd" clip-rule="evenodd" d="M509.043 101.111l8.85 1.543 8.077-8.295 5.58-.579 11.924-6.174 7.696 8.875 6.73-6.367-4.23-9.646 6.154-5.981.769-3.28 1.154-3.858 7.503.385 4.616-3.473h14.042l6.923 3.28V57.509l12.119 9.646-1.346 7.138 4.231 8.104-3.461 7.91 2.884 18.908 4.808 3.279-3.462 7.718 6.346 3.858.77 6.945-14.812 10.998-2.308 5.209 4.039 4.244 9.235-.578-8.847 7.717 8.654 4.438-.769 8.489 10.965-1.544 2.693 6.945-5.966 13.12 12.312 2.122 1.538 6.174-8.461 1.544 3.846 4.051-3.462 13.119 5.193 2.701-1.539 8.104-3.269 3.279-42.896 37.236h-8.269l-1.539-1.736-18.658 1.929-2.884-2.894-1.731-6.174-4.619 2.508-19.235-10.997-14.807 2.508-3.274 1.351-.192-5.016 3.269-1.737-1.923-11.575-9.23-.965 8.461-4.824-4.615-11.961 5.384-5.017-.577-6.366 8.081-12.155-3.846-7.524 3.846-7.718 6.539-5.595-5.577-9.454-5.966-1.543 1.158-2.893-3.273-4.631.769-5.788-2.692-7.524-2.308-.772.769-4.438-5.192-4.244 4.231-7.717-7.5-11.383.961-7.525 9.616-5.402zM616.95 317.388l5.193-6.946 2.888.193-5.196-4.437 3.465-.579 4.616.386-1.154-3.666 5.961 2.508-.577-3.086-4.423-3.281 2.5-1.928-4.423-3.281 8.27 2.509-.77 5.016.77.965 3.846 6.366-2.308-2.508-7.885 7.524 7.5 1.93-.769 10.804-10.384-.772-.193 5.788-5.773-1.544-3.269 3.86h-6.923l-2.116-4.438-.58-8.489-7.885-1.544.769-6.945 18.85 5.595z" fill="#EFEFEF" stroke="#A7A7A7" stroke-linejoin="bevel"/><path fill-rule="evenodd" clip-rule="evenodd" d="M627.358 419.32l-1.366 9.392-3.465 2.895-11.731 2.698-2.115 2.509h-7.312v-2.894l-5.192-.774-5.577 3.284-3.462.384.193-6.558-9.62-3.284.77-3.087-7.116-.769-3.269-7.525-2.119.385-.77-2.121 3.077-1.736 6.158 2.894 1.731-2.894-6.731-3.664-.192-3.087-10.389-2.895 2.885-5.789-1.923-9.453 5.961-2.317 6.927 1.158.577-3.086 3.846 4.052 11.543-1.735-.577-5.211 2.884-3.859-1.538-1.35-.385-5.981 5.962.579.192-6.56-3.654-8.875.385-3.859-5.004-3.665.389-1.93 6.153-.193-.961-7.91 5.577.579-4.231-5.788 5.192-3.859 1.154 4.437 5.581-3.086 2.115 4.437h6.923l3.27-3.859 5.773 1.544.192-5.788 10.385.772.769-10.804-7.5-1.93 7.884-7.524 2.308 2.508-3.846-6.367 2.885-2.7 2.692 2.314-.577 5.789 3.85-1.93 5 4.052 4.231-1.736-2.5-4.631-4.423-.193 6.154-3.665 2.115 5.787 7.5 2.316-.381 10.997 5.385 2.315.577.386-9.043 5.209 5.389 8.296 6.154-1.737-1.154 12.734 10.384 5.209-5.769 2.315-3.654 15.242 2.116 8.489-4.039 3.28.577 5.404-17.119 6.558.192 7.136-1.346 6.563-3.461-11.77-5.004-1.929.961-2.509-4.807-3.472-9.423 2.121.961 1.543-7.888 9.069 1.73 8.875 3.126 2.268 1.898 9.564z" fill="#EFEFEF" stroke="#A7A7A7" stroke-linejoin="bevel"/><path fill-rule="evenodd" clip-rule="evenodd" d="M576.75 374.303l1.346-5.788-3.269-1.736-4.423-2.508-.385 1.929h-1.153l-.193-1.35-1.35.193-3.572.676-.123-10.251 6.558-5.571 2.185-10.372 8.229-.117 3.067-7.835 3.401.121 1.442-3.553 5.086-.392.273 3.53 4.231 5.789-5.577-.579.962 7.91-6.154.193-.388 1.929 5.003 3.666-.384 3.858 3.654 8.876-.193 6.559-5.961-.579.384 5.981-1.153 1.929-7.12-2.122-4.423-.386zm70.592 51.322h-5.773v12.348l-1.154.385-2.308-2.895-8.461-2.317-3.654-4.434 1.366-9.392-1.898-9.564-3.126-2.267-1.73-8.876 7.888-9.069-.962-1.543 9.424-2.121 4.807 3.472-.961 2.509 5.004 1.929 3.461 11.77.385 1.929-8.081.384.388 1.929 8.462 9.261-5.769 3.087 2.692 3.475zm-111.369 47.074l4.231-1.351 3.077 1.928-2.115 1.351.384 4.63-5.577-1.735-4.038-2.314-1.735-2.509-2.884-.774-4.423-5.978v-3.087l.961-1.543 6.731-1.932 3.85 11.578 1.538 1.736z" fill="#EFEFEF" stroke="#A7A7A7" stroke-linejoin="bevel"/><path fill-rule="evenodd" clip-rule="evenodd" d="M518.085 448.777l5 .962.769.773-.961 1.351 2.884 4.242-1.923 5.212-.961 1.543-3.077-1.351 3.077-1.543-3.462-3.861-4.807.193-1.924 2.317-3.273-.578-.192-3.09-.769-.77 2.5-2.51 5.004-6.366 1.73 1.158.385 2.318z" fill="#EFEFEF" stroke="#A7A7A7" stroke-linejoin="bevel"/><path fill-rule="evenodd" clip-rule="evenodd" d="M521.162 436.814l5.577 4.63 2.115 5.401v3.279l-5.769-.385-5-.962-.385-2.317-1.73-1.159 1.538-1.543-.385-6.174-1.346-5.016 5.385 4.246zm19.042 59.615l-3.847-6.752-1.73 1.929-1.154-7.91 2.5-6.174 5.577 1.736-.385-4.63 2.115-1.351 4.424.196-1.154-3.861-1.923-.385v-4.63l-2.885-2.702 4.423-2.895.577-3.087-3.077.582-4.615-3.091 1.73-3.083 7.116 4.626 5.388-.962-.384-4.053 4.038-2.894-.769-3.472 2.5.385 2.5-3.857 1.923.192 1.538-4.245-4.23-4.049.384-2.702 2.885-.385v-.966l5.581-3.087 2.884 2.702 5.577-.582 9.619 3.284-.192 6.558 3.462-.384 5.577-3.284 5.192.774v2.894h7.311l2.116-2.509 11.731-2.698 3.465-2.895 3.654 4.434 8.461 2.317 2.308 2.895.385 2.313 15.388 5.789 2.308 12.925 5.196-2.313 3.269-.577 1.923 2.313-8.85 3.861 11.927 10.03-.961 4.438-3.846-2.894-1.154 1.543-20.773.193-9.812 6.751-3.461 16.786-10.774-2.314-.384 8.68-3.654 5.596 9.619 4.246-.577 6.366 4.808 3.665.385 7.524 13.465-2.894 1.538 7.14-4.234.577-5.192 9.069 10.388 8.491-.577 6.943-5.196 5.208.192 10.612-9.615 5.789-5.385-.577-2.307-8.684-8.85-.966-11.351 5.789-2.884-2.121.384-6.947-7.307 2.124-1.923-1.932-9.619 2.317-9.039-1.158-4.808 2.509-.961-5.211 2.5-4.438-3.466-.385.577-4.049-4.807-2.317-1.731 4.437-7.5 1.544.577-3.472-4.039-.966-4.042-4.823 2.115-2.121 1.543 1.929 1.923-3.861 3.077.774 4.038-5.404-2.307-5.593-5.193-4.63-2.504 2.12-4.23-11.766-3.077-1.932-1.731 2.317-6.154-5.212 7.115-4.434-4.23-13.891-5.966 2.121-4.23-10.42 2.5 1.159 1.923 2.317 3.465-3.283 2.692 4.245 3.27-2.894z" fill="#EFEFEF" stroke="#A7A7A7" stroke-linejoin="bevel"/><path fill-rule="evenodd" clip-rule="evenodd" d="M601.754 529.423l-1.538 2.505-11.154-2.313-4.427-11.386 2.888-1.154 3.462 5.977 5-7.713 11.35 9.064-5.196 1.544 3.273 4.827-3.658-1.351zm42.896-107.274l5.769-3.087-8.462-9.261-.388-1.928 8.081-.385-.385-1.929 1.346-6.562-.192-7.137 17.119-6.558-.577-5.404 4.039-3.28-2.116-8.489 3.654-15.241 5.769-2.316-10.384-5.209 1.154-12.733 12.119-2.316 6.154 2.316 16.157 14.277 4.808 8.103 6.154 9.068-1.923 1.929-1.539 1.35 1.058 2.509 1.058 2.508-2.02.675-2.019.675 1.923 2.701-6.923-.193-.192 1.158-4.808.386.385 4.437-7.504 2.7 4.808 9.65 3.273.769v4.438h3.654l.569 6.107.008 6.049-4.616.769-.577 5.405 8.269 4.241-3.269 8.299-3.654.77 9.616 8.875.192 5.789-2.308 1.544-4.807-.193 1.923 1.736-6.923 10.223-12.12-1.543-3.461 1.543-13.658-.577-1.923-2.313-3.269.577-5.196 2.313-2.308-12.925-15.388-5.789-.385-2.313 1.154-.385v-12.348h5.773l-2.692-3.475z" fill="#EFEFEF" stroke="#A7A7A7" stroke-linejoin="bevel"/><path fill-rule="evenodd" clip-rule="evenodd" d="M832.766 412.696l6.923 12.733-12.888 18.91-7.116 16.589 5.385 1.74-11.346 9.453-9.62-1.158 3.846 14.276-18.273 2.317-16.538-1.74-1.158 9.842-5.577 3.665-2.307-3.665-17.889-.773-1.731 8.106-3.269 2.698 3.846 7.91-12.503-.962.192 14.083-8.846 5.208-6.539-.385-1.927-.192.769-4.823-15.192-1.351-2.308-17.752-9.234 2.125-6.346-4.823 5-6.174v-8.106l-16.927 4.827.961-5.982-4.423-4.245 2.885-4.823-4.615-4.438 1.153-1.544 3.847 2.895.961-4.438-11.927-10.031 8.85-3.86 13.658.577 3.461-1.544 12.12 1.544 6.923-10.223-1.923-1.736 4.807.192 2.308-1.543-.192-5.789-9.616-8.876 3.654-.77 3.269-8.298-8.269-4.242.577-5.404 4.615-.77-.007-6.048-.57-6.107h-3.653v-4.438l-3.273-.77-4.808-9.65 7.504-2.7-.385-4.437 4.808-.386.192-1.157 6.923.193-1.923-2.701 4.039-1.351-2.116-5.016 3.462-3.28-6.152-9.063 10.961-11.006 10.012 4.824 12.885-6.363 7.115 2.706-7.506 1.152.006 3.479 5.577 2.887 2.885-6.556 1.346 2.31-5.769 8.299 14.421 20.45 28.85 3.28 12.888-8.296 2.314 1.935-9.231 8.288 6.154 10.416.577 10.609 6.923 1.359 13.666-5.015-1.346 2.694 8.654-.193-.385 9.455 3.451.967z" fill="#EFEFEF" stroke="#A7A7A7" stroke-linejoin="bevel"/><path fill-rule="evenodd" clip-rule="evenodd" d="M819.684 460.929l7.116-16.59 12.888-18.91-6.923-12.733h6.539l-.193-15.05 13.85-.577 8.654-4.63 5.004 5.981 7.308-.774-.77-8.102 3.077-.385 3.846-9.646 10.966.193.192 5.208 3.462-3.858 15.388 1.351 4.039 11.19-5 13.507 9.615 14.276 3.85-1.159 8.077 12.155 3.654.385 7.311 10.035-2.115 6.944 8.461 10.419-2.307 9.068-3.654-1.351-1.731-.581.769 19.873 21.927-.963 1.154 7.525 4.616 1.736v.193l-.385 13.699-7.692-1.351-1.731 14.853 5.961 6.755 5 17.363-5.384 4.246 5.192 6.174.192.385-4.23 2.12-4.808 14.473-19.427 6.944-11.735 13.698-8.657-2.702-28.85 7.333-.385.577-13.658 25.662h6.543l10.961-8.103 1.923 3.665 2.116 3.664 5.388.966-10.581 36.462-9.423-8.487.77 8.684-15.581.385-4.039-6.559-6.157-.581 4.811-12.348 3.846.773 6.923-5.211-3.269-8.102 4.808-10.031 5.192-6.559-9.231-6.947.577-4.631-3.846-2.121-5.773-16.016-11.538.774-3.27 2.121-5.773-2.313-.577-6.174-12.115.577-3.465-6.174 4.619-4.438-2.885-3.664v-13.122l3.846-.192 8.077-7.329-2.115-4.63 5.192-.966-1.346-9.261 7.312-.774-.193-5.977 7.116-.197.192-10.223-5.385-4.053-1.538-8.102 3.461-2.313-41.353-.581-3.273-3.472 1.926-7.333-3.08-1.736-3.846-14.276 9.619 1.159 11.346-9.454-5.385-1.739zm-172.341 94.733l-10.389-8.491 5.192-9.069 4.235-.577-1.538-7.14-13.466 2.894-.384-7.524-4.808-3.665.577-6.366-9.619-4.246 3.653-5.596.385-8.68 10.773 2.314 3.462-16.786 9.811-6.751 20.773-.193 4.616 4.438-2.885 4.823 4.423 4.245-.961 5.982 16.926-4.827v8.106l-5 6.174 6.347 4.823 9.234-2.125 2.308 17.752 15.192 1.351-.769 4.823 1.927.193 4.615 9.645-1.538 10.035 6.923 1.543-4.231 7.136-8.081 2.702 9.043 2.121-5.193 5.212 1.731 6.174-4.427 5.208-15.192-4.631-5.196 7.718-19.619 1.351-2.5-4.053-12.697 9.068-7.115-5.4-4.231 1.928 2.5 4.438-12.504-4.823.577 2.698-4.23.197-.577-3.669-3.27-1.928 9.616-5.789-.192-10.612 5.196-5.208.577-6.943z" fill="#EFEFEF" stroke="#A7A7A7" stroke-linejoin="bevel"/><path fill-rule="evenodd" clip-rule="evenodd" d="M745.054 513.599l-3.847-7.91 3.27-2.698 1.73-8.106 17.889.774 2.308 3.664 5.577-3.664 1.157-9.842 16.539 1.739 18.273-2.317 3.081 1.736-1.927 7.333 3.273 3.471 41.354.582-3.462 2.313 1.538 8.102 5.385 4.053-.192 10.223-7.116.197.193 5.977-7.312.774 1.346 9.261-5.192.966 2.115 4.63-8.077 7.329-3.846.192V565.5l2.885 3.664-4.619 4.438 3.465 6.174 12.115-.577.577 6.173 5.773 2.314 3.27-2.121 11.538-.774 5.773 16.016 3.846 2.121-.577 4.63 9.231 6.948-5.192 6.559-4.808 10.03 3.269 8.103-6.923 5.211-3.846-.773-4.811 12.347-2.308-.385L857 666.98l-4.808-3.087-12.119-10.223.192-11.189-5.961-.196.192-5.786-8.081-16.785-24.619-.581-10.769-.963-8.658-4.053-3.654 5.016-8.465-2.121 1.154-5.401-8.654-2.124-4.423-14.661-25.777 9.068-7.5-16.978 10.196-8.106-9.427 1.932-5.192-4.63-1.731-6.174 5.192-5.212-9.042-2.121 8.081-2.702 4.23-7.136-6.923-1.543 1.539-10.035-4.616-9.646 6.539.385 8.846-5.207-.192-14.084 12.504.962z" fill="#EFEFEF" stroke="#A7A7A7" stroke-linejoin="bevel"/><path fill-rule="evenodd" clip-rule="evenodd" d="M718.896 651.353l12.307 13.699-.961 7.909-19.427.774-12.115-14.084-5.389-.192 2.308 16.589 2.696 6.559-4.427 8.299 6.542.385-3.465 2.702 5.004 4.438-9.619.962 9.042 5.019-.192 8.68-9.812-.578 3.654 16.205-8.077-2.895-.192 10.612-13.081-6.366-23.658 21.416-9.619-.385 4.042-13.314-12.504-.192 4.616-4.631-7.308-14.665 3.654-5.785-13.85-1.543-8.462 3.087-3.653-1.351 6.346-8.491 9.231-2.699.384-7.913-15.384-5.978-2.116-13.891 4.231-.581 1.923-9.454 9.231.582 1.154-3.861 5.388-1.543 2.308-8.876-2.885-2.314 4.039-7.14 2.692 1.544.961-8.68-3.461 1.929-.962-5.597-3.846.581 5.193-7.14-2.885-3.472-1.923 4.438-4.235-3.86 7.312-8.876 5.769 1.74.577-4.631-4.615-7.14-3.654-.966.961-6.751 5.962 1.543 1.346-5.4 4.231-.196-.577-2.698 12.504 4.822-2.5-4.437 4.23-1.929 7.116 5.4 12.696-9.068 2.5 4.053 19.619-1.351 5.196-7.717 15.193 4.63 4.427-5.208 5.192 4.631 9.427-1.932-10.196 8.106 7.5 16.978 25.777-9.069 4.423 14.662 8.653 2.124-1.153 5.4 8.465 2.121 3.654-5.015 8.657 4.053 10.77.962-17.889 14.28-19.811-8.106-14.235 18.329 4.427 4.631-4.042 9.261-16.927-4.05-12.308-10.419-2.115 8.295zM215.521 315.459l-1.154-12.347 6.732-3.087 4.809 7.331 4.424-4.051 20.389-.579 3.077-4.438 5.386 3.473 16.542-5.016 7.117 2.508 1.732-2.894 5.193.772-2.117-8.296 9.426 3.473 1.538-3.473-3.077-2.122 2.693-1.93 2.692 2.508 1.347 3.28 7.117 5.402 6.155-.964 9.617 15.241v4.824l29.045 5.595 3.27 11.383 11.156-3.087-.962 14.277 5.001 1.157 2.501 7.718 2.885-.772-2.116 4.244 4.039-1.929 3.27 4.823-3.462 1.737 3.27 4.051 5.579 1.737 1.154 6.173-6.348 8.297 3.655 4.244-1.538 6.558-4.233.581-.769 6.944-9.233 4.63 2.885 3.087-.769.774-11.734.192-12.887-5.789-6.155-10.419-9.04 2.702-4.617-6.751-14.618 1.351-3.655-4.246-16.541-1.543-8.656 12.54-4.424-1.158-.192 7.332-10.58-4.823-4.616 5.597-3.462-1.544-.769 3.472-4.232-2.702-.77-5.789-6.347 3.087-.577-10.804 5.001.192 5.001-5.786-5.001-4.052 13.08-4.244-11.542-18.715-5.77.386.577-6.174 8.848.193v-10.804l-3.462-.578-1.154-4.245-3.462-1.736-2.308 3.087.384 2.314-1.154 1.93h-2.116l1.347-5.402-15.003-2.123 1.538 6.367-5.578 3.28-1.346-14.47-3.27-.386-1.539-4.63-2.5 1.158-.193-5.017-4.424-3.087z" fill="#EFEFEF" stroke="#A7A7A7" stroke-linejoin="bevel"/><path fill-rule="evenodd" clip-rule="evenodd" d="M730.242 672.962l.962-7.91-12.308-13.699 2.116-8.294 12.307 10.419 16.927 4.049 4.042-9.261-4.426-4.63 14.234-18.329 19.812 8.106 17.888-14.28 24.619.581 8.081 16.786-.192 5.785 5.961.196-.192 11.189 12.119 10.223 3.27 5.789L854.5 672h-15.581l-.961 5.015-11.927 12.733.192 12.925-12.308 11.193 5.193 6.174-5 3.856-2.885 5.789-3.658 7.525 1.158 1.929-5.581 3.279.577 3.472-3.461 3.087 11.35 1.543-8.466 6.755 1.923 3.665-7.307-2.314-.385-3.086-11.35 1.543-1.538 6.366-2.885 2.699-5.385-2.121 4.808-1.159 5.385-11.189-8.077.577-1.154-3.087 4.615-2.505-1.538-11.963-4.039 1.928-6.35-5.785-3.077-7.717-11.538 4.049-6.927-8.876-22.888-1.155-5.577-10.034-8.273 4.053 3.077-10.42-11.539 1.544-1.154-3.857-5.004-4.438 3.466-2.702-6.543-.385 4.427-8.298-2.696-6.559-2.307-16.59 5.388.193 12.115 14.084 19.427-.774zM404.023 72.558l6.538-9.261 10.773 4.245 1.539-5.981 19.234-5.981 4.423 8.103 8.654-17.17 7.119-4.632-3.269-8.103 8.269-2.7-9.423-6.175 3.077-8.874 19.427-7.525.769-3.473 5.193 1.737 5.192-6.753 9.812 3.666-.962 6.174h6.154l2.884 7.524 5.197-.965 1.73 2.894 5-1.157 5.385 10.225 6.35-3.858 11.346 7.524 2.692 32.991h10.966l-.577 5.788 3.077.386-.769 3.28-6.154 5.981 4.231 9.647-6.731 6.366-7.696-8.875-11.923 6.175-5.581.578-8.077 8.296-8.85-1.543-9.616 5.402-.961 7.524 7.5 11.383-4.231 7.718-10.388 6.173-9.808 15.049-10.581-3.087-7.115-5.595-1.154-4.631-27.508 9.84-5.192-16.592-28.662-36.464-11.73-8.49 10.577-6.173 1.346-5.788 3.465-.58-.961-4.243z" fill="#EFEFEF" stroke="#A7A7A7" stroke-linejoin="bevel"/><path fill-rule="evenodd" clip-rule="evenodd" d="M387.673 60.982l1.731 3.665 7.116-.385.769-4.63 5.581-.58-.966 4.63h-1.346l-1.346 1.158 3.081 7.525 1.73.193.962 4.244-3.465.58-1.347 5.787-10.576 6.174-20.582-19.1 7.309-2.316-.962-2.7 12.311-4.245zM496.35 639.971l-3.658-11.771-.385-7.328-.384-5.597 2.119-4.63 10.962 4.438-.385 2.509 10.773 5.593 1.923-4.245-2.5-5.786 5-.773.577-3.665 4.808 5.401 5.384-1.351 5.389-3.857-2.116-7.91-3.273 1.544-1.538-7.14 2.692-4.05-3.077-1.932 2.116-6.174 6.734 3.087-2.884 2.702 4.423 6.751 12.311-9.645 5.385.966 7.308-6.948 4.23-1.154.773-4.438 4.808-2.51 9.039 1.159 9.619-2.318 1.923 1.933 7.308-2.125-.385 6.948 2.885 2.12 11.35-5.789 8.85.967 2.307 8.683 5.385.577 3.269 1.929.577 3.668-1.346 5.4-5.962-1.543-.961 6.751 3.654.966 4.615 7.14-.577 4.63-5.769-1.739-7.312 8.876 4.235 3.86 1.923-4.438 2.885 3.472-5.193 7.14 3.847-.581.961 5.596 3.462-1.928-.962 8.68-2.692-1.544-4.039 7.14 2.885 2.313-2.308 8.876-5.388 1.544-1.154 3.86-9.231-.581-1.923 9.454-4.231.581 2.116 13.891 15.384 5.978-.384 7.913-9.231 2.698-6.346 8.491-5.196-3.471-4.231 3.664-8.654-4.438-8.273 2.894-3.077 5.597-10.196 8.295-7.116-4.631-6.923-1.351-10.196.774-3.654-.774-4.23-3.279-5.004.192-1.539-8.294-16.346-6.948-5.581-11.382 4.423-6.174-6.346-1.928 1.154-8.298-9.038-1.155 1.346-5.982-8.273-3.279-.962-7.525 9.812-2.125-16.927-12.151 14.427-.966zm198.693 88.748l-3.654-16.205 9.811.578.193-8.68-9.042-5.019 9.619-.962 1.154 3.856 11.538-1.543-3.077 10.419 8.273-4.053 5.577 10.035 22.889 1.154 6.927 8.876 11.538-4.049 3.077 7.718 6.35 5.785 4.038-1.929 1.539 11.963-4.616 2.506 1.154 3.087 8.077-.577-5.384 11.189-4.808 1.158 5.385 2.121 2.884-2.698 1.346 6.174-2.115 2.506 5.192 3.087-4.231 12.155-9.615.966-5.196-7.525-1.731 6.174-3.846-.774-1.731 5.404-4.615-6.366-3.654 4.242-12.888-.963-6.731 12.348-3.85-3.279-1.923-7.718-15.197 6.944-2.307-4.63-5 5.789.961 3.856-11.734 3.28-.962-10.031-11.731-9.068-9.042 2.894-3.269-4.823-10.196 3.665-6.731-6.751 6.927-13.507-8.273-5.015-2.308-10.997 23.658-21.416 13.081 6.366.192-10.612 8.077 2.895z" fill="#EFEFEF" stroke="#A7A7A7" stroke-linejoin="bevel"/><path fill-rule="evenodd" clip-rule="evenodd" d="M622.723 846.792l2.692-11.382-5.196-9.261 7.696-5.596 6.346 2.702-2.885-5.981 3.847 2.124-.385-6.755 11.542-7.717-6.927-14.276 9.62-2.702 1.153-5.593 3.462-1.351 6.731 6.751 10.196-3.664 3.269 4.823 9.042-2.895 11.731 9.069.962 10.03 11.734-3.279 1.346 3.86-3.846 1.351 3.27 5.016-7.5 3.472.961 6.947 8.846-2.317 1.154 4.246-7.692 1.351-2.885 4.049 1.539 5.789-3.462 1.928 1.923 13.314 8.654-1.351 7.312 6.559 5-.385 4.423-.385 2.115 10.997-13.081 5.596-.192.962-.577 6.756-6.923-8.299-3.077 6.755-8.658-.389.962 4.053-12.885 4.631-1.346 20.065 3.269.77-1.154 5.981-10.003 4.823-3.462-1.736-2.5-5.015-21.734-6.174-2.116-16.593 4.231-18.133-8.273.192-6.539-6.174 3.847-2.509-1.154-2.121-2.5-4.053-3.846-.385-1.924-5.015-6.153-3.476z" fill="#EFEFEF" stroke="#A7A7A7" stroke-linejoin="bevel"/><path fill-rule="evenodd" clip-rule="evenodd" d="M577.52 716.952l3.077-5.597 8.273-2.894 8.653 4.438 4.231-3.664 5.196 3.471 3.654 1.351 8.462-3.086 13.85 1.543-3.654 5.785 7.308 14.665-4.616 4.63 12.504.193-4.042 13.314 9.619.385 2.308 10.996 8.273 5.016-6.927 13.506-3.462 1.351-1.153 5.593-9.62 2.702-2.884-6.751h-7.885l-5.962 5.015-6.157-5.4-1.346-1.159-5.385 2.121-6.35-9.646-6.346 5.597-7.308-5.597-.961-5.789-8.273-.385-5.962 4.823-4.038-10.997-7.697 2.703-9.23-5.982-.577-3.664 3.654.385-.77-9.842-5.384-4.434.577-1.74-7.12-4.242 1.923-10.804-2.692-2.125-.192-2.698 10.196-.774 6.923 1.351 7.116 4.631 10.196-8.295zm-161.382-67.527l8.658-5.982 9.231 3.861 3.269-6.755 3.85 3.86 11.539 3.857 1.73 14.665 9.043-5.981-.77 9.068 11.154-8.491 8.466.193 4.038 4.245 3.654.774 8.273 3.279-1.346 5.982 9.038 1.154-1.154 8.299 6.347 1.928-4.423 6.174 5.58 11.382 16.346 6.947 1.539 8.295-9.039 2.894-21.542 3.665 3.654 1.932 3.077 5.593-3.077 1.736.192 6.173h2.308l-.385 5.212-3.269.385-.577 5.4 1.346 1.932-8.461 8.873-4.619-.385-2.5 2.509-10.77-8.298-10.773-1.929-.961 5.016-3.462-1.929-.192-3.279.962-1.929.961-2.509-2.308-6.944-6.734-.774.769-2.313-3.462-1.351 1.154-4.438-2.884-5.015-2.885.962-3.077-6.559-1.538.385-.385-2.121-5.773 1.544-4.038-1.351-3.077 1.928-.962-5.208-2.885.578-.576 5.404-4.235-4.246-1.923 3.087-4.616-4.053-.192 2.895-.192 5.019-7.116-2.895 3.077-4.053-3.846-1.736-3.85 2.51-2.5-2.894-3.854.577-7.116-5.786 1.731-3.476-1.538-1.154 1.538-3.092-1.346-1.732 2.316-5.402 3.077-4.246-4.423-5.015-.769-3.861-2.116-3.857 2.693.963.576-2.314-8.079-8.102 3.656-3.087-6.349-9.068-1.346.577-3.27-3.279.385-3.665-3.463-4.438 7.694-2.12 19.426 4.63 2.116 5.208 5.388-10.612 10.192 6.174zm72.708-96.274l-.577-13.314-12.5-2.698-3.081-3.86 1.347-5.789 6.157-1.351-3.461-2.891 5.961-9.453-.577-3.283 5.77-2.895 5.58-11.189 8.077 3.86 1.539-3.86 12.311 3.279-.961-9.838 4.231 4.823 5-7.525 1.153 3.668 4.039 2.121v3.087l-2.5-1.159 4.231 10.42 5.965-2.121 4.231 13.891-7.116 4.434 6.154 5.212 1.731-2.317 3.077 1.932 4.231 11.767 2.504-2.121 5.192 4.63 2.308 5.593-4.039 5.404-3.077-.774-1.923 3.861-1.542-1.929-2.116 2.121 4.043 4.823 4.038.966-.577 3.472 7.5-1.543 1.731-4.438 4.808 2.317-.577 4.049 3.465.385-2.5 4.438.962 5.212-.773 4.437-4.231 1.155-7.308 6.948-5.384-.966-12.312 9.645-4.423-6.751 2.885-2.702-6.735-3.087-2.115 6.174 3.076 1.932-2.692 4.049 1.539 7.14 3.273-1.543 2.115 7.91-5.388 3.857-5.385 1.351-4.808-5.401-.577 3.665-5 .773 2.5 5.785-1.923 4.246-10.773-5.593.385-2.509-10.962-4.438-2.119 4.63.385 5.597-11.923-.774-1.923 1.736-3.081-8.102 8.273-10.42-5-2.505 9.615-3.087-5.577-15.628 6.346-1.543-4.423-7.91-3.653 1.736-1.539-3.087 6.154-9.068-2.5-1.929 3.077-2.894 3.269 4.242 2.308-1.929-2.885-6.559z" fill="#EFEFEF" stroke="#A7A7A7" stroke-linejoin="bevel"/><path fill-rule="evenodd" clip-rule="evenodd" d="M431.335 512.829l.577-6.366 3.077 1.928 4.398-5.742 4.488-2.233 1.197 5.654 7.126 2.614-2.144 3.608 1.156 3.715 7.056 1.837-.935-5.564 4.444-2.828-.676-4.598 2.844-.229 1.134-2.572 1.174-2.26 2.015-1.432 4.23 1.154 1.154-7.525 8.85 1.74 8.269-5.211 2.697 7.909-5.581 11.19-5.769 2.894.577 3.283-5.962 9.454 3.462 2.89-6.158 1.351-1.346 5.789 3.08 3.861 12.5 2.698.577 13.314 2.885 6.559-2.308 1.928-3.269-4.242-3.077 2.895-7.5-1.74.381 9.453-5.577-1.928-1.923 9.068-3.269-4.822-4.231 5.4-6.158-10.997-7.884 9.65-13.84 6.232 2.321-15.769 1.304-.704-2.744-3.63-2.872.134.309-2.499-.364-2.119 1.541.64 2.238 1.319 1.275-1.282 2.078.194 1.006-1.633-.628-2.162-3.797-4.331 3.235-2.196.359-2.291 3.529-1.673-3.166-2.616 3.074-3.846 1.391.177 1.549-1.214-.139 1.571.957 1.411 1.661-1.94 2.198 2.107-2.609-16.028-5.662-.79-.309-3.39-1.978-1.123-7.32-.599-.178-3.497zm-55.541-50.666l-3.894 3.977-10.195 1.928-5.962 5.981.384-4.438-18.08 2.314-4.039 5.596-12.118.966.192 6.944-7.886 6.559-16.927 2.894v3.668l-9.233-4.822-2.5 4.822-1.539-5.596-8.271-.577-.577 10.03-13.272-13.891-9.81 9.261-.192 8.102 5.963 7.717-10.964 3.861.577 11.189-6.54-1.543-13.464 5.015-2.309-6.944-10.963 7.718-3.847-6.948-13.657-.77-3.078-6.558-8.27 1.154-13.657 12.929-1.923 11.382 3.269-5.597 4.809 1.544-3.077 13.314-11.541 4.438-4.232-4.438-14.426 3.087-.769 12.925-3.655.389 4.795 10.993 3.281.577 2.885 6.375 5.385-4.246 3.846 1.348 3.269 6.567 5.974 1.925-.77-2.322 4.231-2.694.192 4.053 11.924 3.272 3.076 9.262 3.654 1.732 6.346-7.325 13.654 1.539 3.077 7.338 8.858-5.979-2.704-1.166 2.885-6.363 5.012-4.824-.962-1.924 2.308-9.454 6.731 1.924.577-3.668-.577-1.155-1.923-5.401 3.269.385 1.346-6.363 5-3.091 3.077 5.593 4.808-.77-.193-2.706 8.462-.963h.192l2.308 3.092 4.615-5.209-1.538-3.476 10.961-5.593 1.923-4.438 4.628 1.744-3.474 4.234 3.666 5.208 1.154 1.552-4.243.962 1.154 5.978-2.5 3.669 4.435 6.17 5.577-5.401 9.231 6.171 12.307-2.502 6.347 8.877-1.154 5.016 4.231 4.631-2.308 5.593 4.423 1.154.385.193 8.269-8.684-2.693-3.08 16.166-4.053 4.616-10.609 12.884-6.183-8.846-2.117.048-8.359-4.243-2.959-8.81-11.175-9.423-9.153-1.19-4.824-.144-4.041-3.137-1.371 1.767-3.609-3.486-.866-.757-4.186-2.668-1.912.505-8.203 1.658.144 1.154-14.302 21.551.277 1.37 4.559 5.817 1.311.421 12.641 4.832 2.827 3.269-2.634 2.872-2.598 3.041-.205 1.286 2.911 8.27 3.344 8.1 1.84-10.468-9.935 8.413-1.395-3.257-5.1 3.269-3.645-2.139-4.102.829-13.086-1.454-5.569-5.132-9.575z" fill="#EFEFEF" stroke="#A7A7A7" stroke-linejoin="bevel"/><path fill-rule="evenodd" clip-rule="evenodd" d="M387.288 585.757l14.427-7.525-1.158 5.404 22.316 1.347 24.042-10.608 7.885-9.649 6.157 10.996 4.231-5.4 3.269 4.823 1.924-9.068 5.576 1.928-.38-9.453 7.5 1.74 2.5 1.928-6.154 9.068 1.538 3.087 3.654-1.736 4.423 7.91-6.346 1.544 5.577 15.627-9.615 3.087 5 2.505-8.273 10.42 3.08 8.102 1.923-1.736 11.923.774.385 7.328 3.658 11.771-14.427.966 16.927 12.151-9.812 2.125.962 7.525-3.654-.774-4.039-4.245-8.465-.193-11.154 8.491.769-9.068-9.042 5.981-1.731-14.664-11.538-3.857-3.85-3.861-3.269 6.755-9.231-3.86-8.658 5.981-10.192-6.174-5.389 10.612-2.115-5.208-19.426-4.63-1.731-5.597 1.731-6.751-4.039.77-.577-3.472-4.039-1.736-4.04.77.193-11.382 8.271-.966-.193-1.928 8.656-.578-.577-3.668 6.348-1.543-1.731-22.186zm-64.822-36.27l.962 7.91-9.81.385.192-6.174 8.656-2.121zM210.328 188.895v-4.244l6.155.965 4.039-8.104 13.272-4.051 14.041-12.926 2.501 4.436 18.081.58.192-9.261 9.233.193 4.039-6.367 10.579 7.525-2.885-9.068 30.776-17.558-2.116-7.33 15.195 6.559 1.347-3.472 2.692 4.63 15.773 3.665-3.462 5.788 19.234 3.28 6.925 2.122 2.308 3.666-5.385 4.437-9.811.194-3.654 7.524-7.886 7.717 10.964 10.611-1.347 6.174 4.232 3.28-5.963 1.158.193 2.894 3.077.385-2.309 2.316.77 5.595-5.001.579 4.04 9.646-10.195.193 8.848 6.56-.77 4.437-9.04-3.859-8.848 1.93v5.788l-6.924-.386 1.154 5.788-4.424 5.595-.577 9.646-10.002 1.158-1.347 2.701-10.771 4.052 1.154 5.402-2.693 3.28 2.116 1.543-4.809 4.245 7.117 5.788-5.001 13.119-.962-3.087-3.27.965-2.693-2.508-2.692 1.929 3.077 2.122-1.538 3.473-9.426-3.473 2.116 8.296-5.193-.771-1.731 2.894-7.117-2.509-16.542 5.017-5.386-3.473-3.078 4.437-20.388.579-2.693-16.206 4.808-15.435-16.926-9.068.962-6.945-11.156.386-6.54-11.962 8.078-1.351-7.117-8.296 3.27-5.402h-8.463l-5.001-9.839-7.694-7.331 1.924-17.558 4.616 1.351 3.847-11.19 18.081 4.437zM55.103 406.522l6.732 1.159 3.27-7.333 8.463-1.736 3.078-3.279h5l2.502-8.103 10.194 1.351-2.693 6.174 7.309 14.854-9.425 6.947 9.618-1.351.385 4.053 18.85-1.543 2.692 6.559 4.809 1.351 1.731-6.755 7.117-2.698 4.232-.197-.577 8.876 5.578 3.861 15.003-6.174 11.541 9.068-3.27 6.751 7.694-1.543-1.731 6.751 6.539 3.087-2.693 5.404 5.963.963 2.501 13.313 5.386-4.822 7.309 10.415 4.424-3.472 14.041 24.311-3.078 4.245-9.424-.966 2.885 7.718-14.427 7.909 2.694 3.28-1.732 3.668-8.271 1.155-13.656 12.929-1.924 11.381 3.27-5.596 4.809 1.543-3.078 13.314-11.54 4.438-4.232-4.438-14.426 3.087-.77 12.925-3.654.389 4.809 10.997-2.309 3.279-7.886 1.929-5.578-4.053 1.154-4.631-4.809.196-9.809-12.929-5.002 5.982-1.923-4.053-8.848 4.826-5.386-3.86-10.771-.577-1.924 5.592 2.309 2.317-3.463 5.789-4.808-2.702-7.31 2.702 2.693 3.28-9.425 1.351-3.27 2.698-7.309-2.895-2.5 1.159-3.655-3.279-2.885-.193-.962-5.404-.577-2.891-7.502-.966-5.193-8.102 2.885-3.668-9.04-7.717 3.655-.578 3.077-6.944-.77-13.313 3.848-1.159-1.539-6.366 6.348-5.401-5.001-2.509 1.923-5.789-4.616-3.279.384-5.208 5.578-2.895-1.154-1.736 1.731-2.894-2.116-5.597 6.733-3.472-10.58-8.683.962-9.261 8.271-.77.962 3.857 4.424-1.736-.962-5.015 5.193-.385-1.538-12.54-6.348-2.51-.961-8.102-4.81-1.929 3.463-11.385-3.078-2.121-3.27-9.453.77-4.438 6.925 1.736-3.463-8.68 2.116-1.932-1.154-5.208 11.925.578-1.73 7.332 5.193 2.317 2.885-1.932z" fill="#EFEFEF" stroke="#A7A7A7" stroke-linejoin="bevel"/><path fill-rule="evenodd" clip-rule="evenodd" d="M62.99 228.833l4.423-.193-5.193-7.525 6.924-2.315-4.616-2.701 1.538-17.17 2.693 3.472 5.001-10.226-1.538-.578-3.655-1.351-3.077 5.595-12.118.386L55.68 180.6l5.193-.193-6.155-5.595 1.154-4.63h6.733l3.27 4.051-2.309 2.508 4.424 2.894h5.386l15.003-15.821h3.462l1.347 7.911 6.155-2.122-.77 3.473 6.732 1.157-1.538 4.63 6.347 7.718 2.693-.965.577 7.91 6.54.193 6.924-5.595 2.501.386v2.122l9.041 1.351-5.194 1.929 1.346 2.894 4.039-1.93 1.347 4.824 15.965.578.962-2.508 17.696.965 4.616 5.595-2.693 1.158.385 6.174 5.001.193 7.694 7.331-7.502 1.158-.577 21.415-10.579-2.508-2.693 8.489 2.885 7.331-16.926 2.894-.962 4.438-21.543-2.122-22.889 9.839 1.153 12.926-6.539 3.473-1.539-3.473 2.501-3.665-5.386-1.929-4.617 5.016-6.154-9.647-12.503 1.93-1.54-2.316 3.656-7.138-.77-1.158-4.039.772-4.809-1.736 4.424-4.438-6.155-5.016-3.846 1.158.384 1.157-3.27 1.929-6.924-8.681-.193-2.894-1.73-2.894.576-1.93 10.195 3.28 8.27-6.559-6.924-9.454zm75.207 169.009l5.386 11.19 5.385-16.209 12.503-3.087 1.346-4.049 20.005-2.316 2.115-12.54 3.463 12.733 3.27-.771-.385-9.647 13.657-9.84-8.849-2.893 6.733-4.052-3.655-5.788 13.849-8.682-.577-3.859-7.117-2.894 2.885-6.367 16.927 2.316-.962-4.052 3.271.386 1.345 14.47 5.579-3.28-1.539-6.367 15.003 2.122-1.347 5.403h2.117l2.308 9.839-.577 6.174 5.77-.386 11.541 18.714-13.08 4.245 5.001 4.052-5.001 5.786-5.001-.193.577 10.805 6.348-3.087.769 5.789 4.232 2.702.769-3.472 3.462 1.543 5.386 5.978-2.885 1.932 1.731 7.525-2.5 5.015 10.771 15.046-4.616 3.669-.578 10.419 6.541 5.593-10.003 3.86-8.655 9.453-15.773 2.703-5.77 5.4 2.116 5.015-3.463 3.861 7.887 2.505 6.155 7.525-.193 8.103 5.963 7.717-10.964 3.861.577 11.189-6.539-1.544-13.464 5.016-2.309-6.944-10.964 7.717-3.847-6.947-13.657-.77-3.077-6.559 1.731-3.668-2.693-3.279 14.426-7.91-2.885-7.718 9.425.967 3.078-4.246-14.042-24.311-4.423 3.472-7.31-10.415-5.385 4.823-2.501-13.314-5.963-.963 2.693-5.404-6.54-3.087 1.731-6.751-7.693 1.544 3.27-6.752-11.541-9.068-15.004 6.174-5.577-3.861.577-8.876-4.232.197 4.423-3.476-1.923-3.279-9.809-5.016 10.771-6.559z" fill="#EFEFEF" stroke="#A7A7A7" stroke-linejoin="bevel"/><path fill-rule="evenodd" clip-rule="evenodd" d="M33.753 297.709l4.808-3.473-4.231-3.859-6.156.965-.961-7.138 6.347-3.473-3.847-3.859 12.695-10.997-2.693-2.315 2.885-3.858-7.5-3.859-1.732-7.332 17.504-5.016 1.73 2.894.193 2.894 6.924 8.682 3.27-1.93-.384-1.157 3.847-1.157 6.155 5.016-4.424 4.437 4.809 1.737 4.039-.773.769 1.159-3.655 7.138 1.54 2.315 12.502-1.929 6.155 9.646 4.616-5.016 5.386 1.929-2.5 3.666 1.538 3.473 6.54-3.473 2.501 5.209-6.156 4.244-5.962 19.294h12.503l-5.579 5.981 2.886 12.155 7.501 2.508-1.346 10.032-6.155 5.403 3.077 7.909-15.003 13.892 4.424 11.576-8.271 7.332-10.194-1.351-2.501 8.102h-5l-3.079 3.28-8.463 1.736-3.27 7.332-6.732-1.158-2.885 1.932-5.193-2.317 1.73-7.333-11.925-.577-.577-2.51-9.04-1.543 1.346-5.982-8.27-11.188-.77-5.016-6.732-10.226 4.04-5.209-4.81 2.508-1.346-7.138L.09 340.154l10.388-18.329 4.231.772 4.232-7.331-1.154-5.209 6.347 2.508 1.539-3.473 2.308-4.823 4.424 2.508 2.885-7.139-1.538-1.929z" fill="#EFEFEF" stroke="#A7A7A7" stroke-linejoin="bevel"/><path fill-rule="evenodd" clip-rule="evenodd" d="M110.114 347.872l6.155-5.402 1.347-10.032-7.502-2.508-2.885-12.155 5.578-5.981h-12.503l5.963-19.294 6.155-4.244-2.5-5.209-1.154-12.927 22.889-9.839 21.543 2.122.962-4.437 16.927-2.894-2.886-7.331 2.693-8.489 10.58 2.508.576-21.416 7.502-1.157 5.001 9.839h8.463l-3.27 5.402 7.117 8.296-8.078 1.351 6.539 11.961 11.157-.385-.962 6.945 16.926 9.068-4.808 15.435 2.693 16.206-4.425 4.051-4.808-7.331-6.732 3.087 1.154 12.348 4.424 3.086.192 5.017 2.501-1.158 1.538 4.631.962 4.051-16.927-2.315-2.885 6.367 7.117 2.894.577 3.858-13.849 8.682 3.655 5.789-6.732 4.051 8.848 2.893-13.657 9.84.385 9.647-3.27.771-3.463-12.733-2.115 12.541-20.005 2.315-1.346 4.05-12.502 3.087-5.386 16.208-5.386-11.189-10.771 6.559 9.809 5.015 1.924 3.279-4.424 3.476-7.117 2.698-1.731 6.755-4.809-1.351-2.692-6.559-18.85 1.544-.386-4.053-9.617 1.351 9.425-6.948-7.309-14.853 2.693-6.174 8.27-7.332-4.423-11.577 15.003-13.891-3.078-7.91zm145.031-13.698l1.154 4.245 3.462.578v10.804l-8.847-.193-2.309-9.839 1.154-1.93-.384-2.315 2.308-3.086 3.462 1.736zm107.906 129.264l-3.847-2.894 10.58-2.506 2.116 8.102-10.195 1.929-5.193-.774 1.923-4.049 3.655 1.543.961-1.351zm147.145-94.536l3.466 2.894 3.269-.193 12.692-4.63 1.35 1.157 5.192 4.438 5.962.192.385 3.087-.962.965 3.269 2.508 4.812-3.087 7.308 5.788 2.884 5.21 1.923 9.453-2.884 5.789 10.388 2.895.192 3.087 6.731 3.664-1.731 2.895-6.157-2.895-3.077 1.736.769 2.121 2.119-.385 3.269 7.525 7.116.77-.769 3.087-5.577.581-2.885-2.702-5.581 3.087v.966l-2.884.385-8.462-2.895-1.154-2.313-5.196 3.087-2.115-3.861-4.231-2.702-1.346.196-5.769-3.086-1.35 1.928-7.693.577-.769-3.664-.192-.966 3.846-.966h.577l-.577-3.472.192-2.506-.961-.389-.77-2.12 1.539-.578-.385-1.351-3.461-1.351.192-2.894-4.615 1.736-.294-6.886-1.245-9.708-11.542-10.609v-5.209l5.192-.386z" fill="#EFEFEF" stroke="#A7A7A7" stroke-linejoin="bevel"/><path fill-rule="evenodd" clip-rule="evenodd" d="M521.354 431.606l-.192-.196 1.153-.962-2.5-2.51.962-.77 2.885 2.506 3.077-3.472 1.346-.192 1.811-.037.785 1.967 1.199-.404.734 2.268 1.559-.875-2.709 4.033.66 1.831.216 1.764 8.464 1.625-.057-6.532-3.196-1.84 3.205-1.044-3.12-2.786 4.277.362-.783-1.379 1.281-.727-2.111.018-.318-1.425-2.116-.2.415-1.827 1.346-.197 4.231 2.703 2.115 3.86 5.196-3.087 1.154 2.313 8.462 2.895-.385 2.702 4.231 4.049-1.539 4.246-1.923-.193-2.5 3.857-2.5-.385.77 3.472-4.039 2.894.385 4.053-5.389.963-7.115-4.627-1.731 3.083 4.615 3.091 3.077-.581-.577 3.087-4.423 2.894 2.885 2.702v4.631l1.923.385 1.154 3.86-4.423-.196-3.077-1.928-4.231 1.351-1.538-1.736-3.85-11.578-6.731 1.932 1.923-5.212-2.885-4.241.962-1.351-.769-.774 5.769.385v-3.28l-2.115-5.4-5.577-4.63.961-4.631-.769-.577zm48.665-65.406h-1.154l-.192-1.351-1.35.193.581 1.93-1.158.964.577.386 4.427 2.894 3.077-4.437-4.423-2.508-.385 1.929zm-181.192 70.033l-.192-6.752h6.538v4.246l-4.807 2.702-1.539-.196zm186.769 42.447l-5.193 1.928-1.538 1.351-4.619-5.404-4.808-4.823-2.885 1.74-1.538-1.159.192-3.668-1.923-2.505.385-2.703 6.346-1.351 1.346-4.049 7.119-.581 6.539 4.63v4.631l5.769 4.438-1.923 7.14 8.077 6.944-2.308 2.894-9.038-9.453zm-14.427-138.333l.577 4.823-4.423 2.315-.769-.578.961-1.351-6.154-5.209-2.115-4.63.577-.579 3.077 1.736 2.115-1.736 1.154-2.122 8.269 3.665-.577 1.93-3.653-.965-.577 1.157 1.538 1.544z" fill="#EFEFEF" stroke="#A7A7A7" stroke-linejoin="bevel"/><path clip-rule="evenodd" d="M491.539.024l-5.193 6.748-5.192-1.732-.769 3.464-19.435 7.53-3.077 8.877 9.435 6.17-8.281 2.694 3.281 8.107-7.128 4.631-8.653 17.177-4.423-8.107-19.231 5.978-1.539 5.978-10.781-4.234-6.538 9.25-1.731-.193-3.077-7.518 1.346-1.154h1.346l.962-4.631-5.577.577-.769 4.631-7.116.385-1.731-3.669-12.307 4.246.961 2.707-7.307 2.31 20.577 19.1-3.847 2.117.385 3.861-5.385 1.744 6.539 5.209-.962 3.079-7.884 3.668 4.423 8.492-2.693 4.631 5.193 4.439-10.385 16.587-1.923-1.347-2.885-1.937-1.153 4.246-19.243-3.272 3.461-5.797-15.769-3.657-2.692-4.631-1.346 3.464-15.193-6.555 2.116 7.325-30.782 17.561 2.885 9.07-10.577-7.53-4.038 6.375-9.231-.192-.192 9.261-18.089-.589-2.5-4.426-14.039 12.918-13.269 4.054-4.038 8.107-6.154-.963v4.234l-18.089-4.426-3.846 11.186-4.616-1.347-1.923 17.549-5-.192-.384-6.171 2.692-1.154-4.616-5.606-17.692-.962-.961 2.514-15.974-.577-1.346-4.824-4.039 1.925-1.346-2.899 5.193-1.924-9.039-1.348v-2.129l-2.5-.385-6.923 5.594-6.538-.193-.577-7.902-2.693.962-6.358-7.722 1.551-4.631-6.743-1.155.77-3.476-6.155 2.129-1.346-7.915h-3.462l-15 15.818h-5.384l-4.423-2.887 2.307-2.514-3.269-4.042h-6.73l-1.154 4.631 6.153 5.593-5.192.193-2.308 15.625 12.116-.385 3.077-5.593 3.654 1.347 1.538.577-5 10.224-2.692-3.476-1.539 17.176 4.616 2.707-6.923 2.309 5.192 7.53-4.423.192 6.923 9.455-8.27 6.555-10.204-3.284-.577 1.937-17.5 5.016 1.731 7.325 7.5 3.861-2.884 3.861 2.692 2.309L29.7 276.879l3.846 3.849-6.346 3.477.961 7.144 6.154-.974 4.23 3.861-4.807 3.476 1.539 1.925-2.885 7.145-4.423-2.514-2.308 4.823-1.538 3.476-6.346-2.514 1.153 5.209-4.23 7.337-4.231-.77L.072 340.16l10.59 11.764 1.345 7.133 4.808-2.502-4.038 5.208 6.73 10.224.77 5.016 8.269 11.198-1.346 5.978 9.038 1.54.577 2.514 1.154 5.196-2.116 1.937 3.462 8.684-6.923-1.744-.77 4.438 3.27 9.455 3.077 2.129-3.462 11.378 4.808 1.925.962 8.107 6.346 2.514 1.538 12.533-5.192.385.961 5.016-4.423 1.744-.961-3.861-8.27.77-.96 9.262 10.576 8.684-6.73 3.464 2.115 5.606-1.731 2.886 1.154 1.744-5.577 2.887-.385 5.208 4.615 3.284-1.923 5.786 5 2.502-6.346 5.412 1.539 6.363-3.846 1.155.769 13.315-3.077 6.953-3.654.577 9.038 7.71-2.884 3.669 5.192 8.107 7.5.962.577 2.887.962 5.413 2.884.192 3.654 3.272 2.5-1.155 7.32 2.899 3.27-2.706 9.422-1.347-2.692-3.284 7.307-2.695 4.808 2.695 3.462-5.786-2.308-2.321 1.923-5.593 10.77.577 5.384 3.861 8.858-4.823 1.923 4.053 5-5.978 9.808 12.919 4.808-.193-1.154 4.631 5.577 4.054 7.884-1.925 2.308-3.284 3.269.578 2.885 6.375 5.397-4.246 3.846 1.347 3.269 6.555 5.961 1.937-.769-2.322 4.231-2.694.192 4.054 11.923 3.271 3.077 9.262 3.654 1.732 6.346-7.325 13.666 1.539 3.077 7.338 8.846-5.99-2.692-1.155 2.885-6.363 5-4.823-.962-1.925 2.308-9.454 6.73 1.924.577-3.668-.577-1.155-1.923-5.401 3.27.385 1.346-6.363 5-3.091 3.077 5.593 4.807-.77-.192-2.706 8.474-.962h.192l2.308 3.091 4.615-5.208-1.538-3.476 10.961-5.594 1.923-4.438 4.616 1.744-3.462 4.234 3.654 5.208 1.154 1.552-4.231.962 1.154 5.978-2.5 3.669 4.423 6.17 5.577-5.4 9.231 6.17 12.319-2.502 6.346 8.877-1.153 5.016 4.23 4.631-2.307 5.593 4.423 1.155.384.192 8.27-8.684-2.693-3.079 16.154-4.054 4.628-10.609 12.884-6.183-8.846-2.116.048-8.36-4.243-2.959-8.81-11.174-9.423-9.154-1.19-4.823-.144-4.042-3.137-1.371 1.767-3.609-3.486-.866-.757-4.185-2.668-1.913.505-8.203 1.658.144 1.154-14.302 21.55.277 1.371 4.559 5.817 1.311.421 12.642 4.831 2.826 6.142-5.232 3.041-.204 1.286 2.91 8.269 3.344 8.101 1.841-10.468-9.936 8.413-1.395-3.257-5.1 3.269-3.645-2.139-4.101.829-13.087-1.454-5.569-5.133-9.575 2.262-2.005 3.27 2.314.577-3.665 8.079 1.736 2.308-5.207 3.461-1.544 1.346 1.155.193-.77 1.153 1.543 4.62-4.822-1.158-3.28 6.927-3.087 2.887.693.63-3.618 1.458.183-.193 1.654-1.249-.062-.331 1.886 4.49 1.193 2.5-6.367 2.119 2.51.962-1.351.769-4.438 5 .385.243-4.445 2.834 4.252 2.5-3.279 1.154 1.928 1.538-1.158-1.538-4.242-2.213-3.817-7.332 8.581-5.099-1.676 2.821-4.686.788 2.418.879-3.028 2.406-2.575 3.218 2.192.669-3.338-.854-2.099-3.168-9.531.193-14.276 3.269-5.597.385-1.928-1.347-.193-.961 2.317h-.577l-.385-1.932.77-1.736 1.346.774-.16.47.643-1.566 2.017-5.079-3.462-.386-3.077 3.085-1.154-2.506v2.314l-1.73-1.736-.385-2.893-.769-1.351 1.731-.965-3.077-.192 1.538-3.473-.577-1.351 4.039-3.473 1.153.386 2.5-.772.193 2.702-.577 1.157.769 1.158 3.077-.579 1.154-3.859 1.538-1.543-1.346-1.35h-4.423l-1.346-2.894.577-2.895-2.308-1.35 1.538-4.823-1.153-.965 2.115-2.894-4.423-2.894-1.346 1.736-2.504-2.894 1.927-1.543.769 1.158 1.539-1.158-2.5-3.666 1.346-1.157 1.154.964.961-.772-.577-.771.962-.772 6.923 2.701 2.115-1.736 3.466 1.35-4.62 4.438.962 4.244-2.477.326.938 2.954-2.5.193.385 4.244 1.731.193 1.923 7.332 3.081 1.157 3.653-2.314h4.808l6.731-4.824 4.808-3.473 1.542-.193-2.888-11.19 2.696-.964h1.346l-.769-3.28 5.961-1.544 1.154.964.192 1.93-2.5-.193v2.508l1.154.772-.384 1.737-.577.192-.962.579.192 6.367-1.153 1.543.577-.193 4.615-.385 12.888 5.016h5.193l4.807.578 14.235 12.734 11.542 10.61 1.245 9.707.294 6.886-.08 11.413 8.349-1.96.577 3.472h-.577l-3.846.966.961 4.631 7.693-.578 1.35-1.928 5.769 3.087-.415 1.827 2.116.2.318 1.425 2.111-.018-1.28.727.782 1.379-4.277-.362 3.12 2.786-3.205 1.044 3.196 1.84.057 6.532-8.463-1.625-.217-1.764-.659-1.83 2.709-4.034-1.56.875-.734-2.268-1.199.404-.785-1.967-3.157.229-3.077 3.472-2.885-2.506-.961.77 2.5 2.51-1.154.962.961.773-.961 4.631-5.385-4.246 1.346 5.016.385 6.174-1.539 1.543-5.003 6.366-2.5 2.51-6.154 6.174-13.85 10.031-4.616 1.543-13.273-1.543 1.731 4.437-3.077 1.351-1.923 12.929 1.154.578 2.308 2.702.961 4.049-3.461 1.932-2.015 1.432-2.308 4.833-2.844.229.676 4.597-4.444 2.828.935 5.565-7.056-1.837-1.156-3.715 2.144-3.609-7.126-2.614-1.198-5.653-4.487 2.233-4.398 5.742-3.077-1.928-.577 6.366.177 3.497 7.321.599 1.978 1.122.309 3.39 5.662.791 2.609 16.028-2.198-2.107-1.661 1.94-.957-1.412.139-1.57-1.549 1.213-1.391-.176-3.074 3.846 3.166 2.616-3.529 1.673-.359 2.291-3.235 2.195 3.797 4.332.628 2.162-1.006 1.633-2.078-.195-1.275 1.283-3.779-1.959.364 2.119-.31 2.499 2.872-.135 2.745 3.631-1.304.703-2.321 15.769-10.203 4.376-22.315-1.347 1.158-5.404-14.427 7.525 1.73 22.186-6.348 1.543.577 3.669-8.657.577.193 1.924-8.27.975-.192 11.378 4.039-.769 4.038 1.732.577 3.476 4.038-.77-1.73 6.748 1.73 5.593-7.692 2.129 3.462 4.427-.385 3.668 3.269 3.284 1.346-.578 6.347 9.07-3.654 3.079 8.077 8.107-.577 2.31-2.693-.963 2.116 3.861.769 3.862 4.423 5.015-3.077 4.246-2.307 5.401 1.346 1.732-1.539 3.091 1.539 1.155-1.731 3.476 7.115 5.786 3.846-.578 2.5 2.887 3.847-2.502 3.846 1.732-3.077 4.054 7.127 2.899.193-5.016.192-2.899 4.615 4.054 1.923-3.092 4.231 4.246.577-5.4 2.885-.578.961 5.209 3.077-1.925 4.039 1.347 5.769-1.551.384 2.129 1.539-.385 3.077 6.555 2.884-.962 2.885 5.016-1.154 4.438 3.462 1.347-.77 2.322 6.731.77 2.32 6.952-.962 2.502-.961 1.924.18 3.284 3.474 1.925.961-5.016 10.769 1.936 10.77 8.288 2.5-2.502 4.615.385 8.462-8.877-1.347-1.925.577-5.4 3.27-.385.384-5.208h-2.307l-.193-6.183 3.077-1.732-3.077-5.593-3.654-1.937 21.551-3.668 9.038-2.887 5-.193 4.231 3.284 3.654.77.192 2.694 2.693 2.129-1.924 10.802 7.116 4.246-.577 1.732 5.385 4.438.769 9.839-3.654-.385.577 3.669 9.243 5.978 7.692-2.706 4.038 11.006 5.962-4.824 8.269.385.962 5.786 7.307 5.593 6.347-5.593 6.358 9.647 5.384-2.117 1.347 1.154 6.153 5.401 5.962-5.016h7.885l2.884 6.748 6.923 14.278-11.538 7.722.384 6.748-3.846-2.117 2.885 5.978-6.346-2.695-7.693 5.594 5.193 9.249-2.693 11.391 6.154 3.476 1.923 5.016 3.846.385 2.5 4.054 1.154 2.117-3.846 2.513 6.539 6.171 8.269-.192-4.231 18.126 2.115 16.599 21.743 6.171 2.5 5.016 3.462 1.732 10-4.824 1.154-5.978-3.27-.77 1.347-20.063 12.884-4.631-.961-4.053 8.653.385 3.077-6.748 6.923 8.299.577-6.76.193-.962 13.089-5.593-2.116-10.994-4.435.385-5 .385-7.308-6.568-8.653 1.36-1.923-13.316 3.461-1.936-1.538-5.786 2.884-4.041 7.693-1.359-1.154-4.247-8.846 2.322-.962-6.94 7.5-3.477-3.269-5.015 3.846-1.36-1.346-3.849-.962-3.861 5-5.785 2.308 4.619 15.204-6.941 1.923 7.722 3.847 3.272 6.73-12.341 12.885.962 3.654-4.246 4.615 6.363 1.731-5.388 3.846.769 1.731-6.182 5.204 7.53 9.616-.963 4.23-12.16-5.192-3.08 2.115-2.513-1.346-6.171 1.539-6.375 11.346-1.54.384 3.092 7.308 2.309-1.923-3.669 8.462-6.747-11.347-1.54 3.462-3.091-.577-3.476 5.577-3.272-1.154-1.937 3.654-7.517 2.885-5.786 5-3.861-5.193-6.183 12.32-11.186-.192-12.918 11.923-12.738.961-5.016h15.577l.962-2.31-3.269-5.797 4.807 3.091.769-11.379 2.308.385 6.154.578 4.05 6.555 15.577-.385-.769-8.684 9.423 8.492 10.577-36.458-5.384-.974-2.116-3.657-1.923-3.669-10.961 8.095h-6.539l13.654-25.656.385-.577 28.858-7.326 8.654 2.695 11.73-13.701 19.423-6.94 4.808-14.47 4.243-2.129-.192-.385-5.205-6.17 5.397-4.246-5.012-17.357-5.962-6.76 1.731-14.855 7.704 1.347.385-13.688v-.192l-4.627-1.745-1.154-7.517-21.923.962-.769-19.871 1.73.578 3.654 1.347 2.308-9.07-8.462-10.416 2.116-6.94-7.308-10.032-3.654-.385-8.077-12.161-3.846 1.155-9.627-14.277 5-13.496-4.039-11.198-15.384-1.348-3.462 3.861-.192-5.208-10.962-.192-3.846 9.646-3.077.385.769 8.107-7.319.77-5-5.99-8.654 4.631-13.846.589.192 15.036h-6.539l-3.461-.962.385-9.455-8.654.193 1.346-2.695-12.897 4.824-.769.192-6.923-1.359-.577-10.609-6.154-10.416 9.231-8.288-2.308-1.937-12.884 8.3-28.859-3.284-14.423-20.448 5.77-8.299-1.347-2.31-2.884 6.556-5.577-2.887v-3.476l7.5-1.155-7.115-2.706-12.885 6.363-10.012-4.824-10.962 11.006-4.807-8.107-16.154-14.278-6.154-2.309-12.115 2.309-6.154 1.732-5.385-8.287 9.039-5.208-.577-.397-5.385-2.31.385-10.994-7.512-2.321-2.116-5.786-1.923-6.363.577-6.375-3.461-2.886 1.153-9.455-4.615-8.684 5.577-11.571-13.269 3.271-2.885-7.325-6.154-6.363.577-4.246-3.077-3.283 3.654-3.862-.769-.769 3.269-3.284 1.539-8.095-5.193-2.707 3.462-13.122-3.846-4.042 8.461-1.552-1.538-6.17-12.308-2.117 5.962-13.123-2.693-6.94-10.961 1.539.769-8.492-8.666-4.438 8.858-7.71-9.243.577-4.038-4.246 2.308-5.208 14.819-11.006-.769-6.94-6.346-3.861 3.462-7.711-4.808-3.283-2.897-18.909 3.474-7.914-4.243-8.095 1.346-7.145-12.115-9.647V67.54l-6.923-3.272H573.87l-4.615 3.464-7.5-.385-1.154 3.861-3.089-.385.577-5.785h-10.962l-2.692-32.994-11.346-7.517-6.346 3.849-5.385-10.224-5 1.166-1.731-2.899-5.192.963-2.896-7.518h-6.154l.961-6.182-9.807-3.657z" stroke="#A7A7A7" stroke-linejoin="bevel"/><path fill-rule="evenodd" clip-rule="evenodd" d="M393.057 318.932l-5.192 3.087-2.308-2.894-4.233.964 5.003 8.296-2.695 1.737 1.541 6.174-1.156 2.894 7.694.579 6.346 4.63-1.538-8.103 2.5-3.859 5.004 1.544.577 3.087 2.115-.386.577-6.56h-2.308l1.539-1.737-13.466-9.453zm-28.66 91.974l1.988 1.176-1.175 2.351 2.837.694 1.396 1.406 2.742-1.746 6.436.095-.589-1.797-2.562 1.011-2.472-1.57 2.652-2.437 5.782 4.572-2.405 3.558-5.319.919-1.978-1.682-1.697 3.429-3.924-.385 1.458 3.572-1.795.082.049-.999-2.136-.067-.026.869-1.622.279-2.064-2.394 1.641-1.292 2.414-.455-.098-1.885-.418-.495-1.542.092-.461.841-.873.668-4.983-2.699 1.478-1.493-.871-1.508-.972-.773-1.4 2.314-5.937.039 1.102-5.304-3.006 4.84-2.234-.019-.412-.455-.877-.155-.752.667-.96-3.237 1.455-1.01 1.698-.231 2.623-.131-.985-1.693 4.876-1.099.098-1.965 1.073-.69 2.811 1.611 1.01-.032 2.515-.08 1.351 2.161-.361 1.447 5.421 1.085v0zm158.496-18.468l2.884-3.856 1.923 1.351 1.347-.967-.385-1.351-5.385-.577-.769.193-4.231 2.313 2.116 2.509 1.154-.577.384.962h.962zm1.72-6.844l-.182-.292-1.731.385.157.343 1.756-.436zm-15.571-62.996l.193 1.157-.385.772-.384-.193-.385-.193-.385-.772 1.346-.771zm-.961 2.122l.384.193-1.154.578-.192-.193.962-.578zm-90.596 79.489l1.927.962 1.346-1.544 1.346.967 4.522-6.335.325-.585-4.078-2.534-.384.385-.577-.385-1.735-.192.389-2.125-5.976-.063 1.492 5.784 3.977 3.059-.647 1.64-1.927.966zm-6.55-11.159l-.407-2.618 2.323-.258.394 2.586-2.31.29zm-71.248 157.774l.974.361-.565 1.419 1.827.614-1.154 2.514-.745-.301-.337.253-.204.926-.841.673-.986-1.01.517-.926.469.18.709-1.046.216-1.961-.288-.385.408-1.311z" fill="#fff" stroke="#A7A7A7" stroke-linejoin="bevel"/><path d="M461 421s8 3.976 8 8.837c0-4.861 8-8.837 8-8.837h-16z" fill="#2E2D2D"/><path d="M447 396l22-20 22 20v23h-44v-23z" fill="#179860"/><path d="M462.26 400.814c.541-.215 1.083-.49 1.624-.826a6.707 6.707 0 001.456-1.19h1.19v9.702h-1.694v-7.434a5.452 5.452 0 01-.952.574 9.557 9.557 0 01-1.106.462l-.518-1.288zm13.431.504c0 .336-.07.667-.21.994-.14.317-.322.63-.546.938a7.89 7.89 0 01-.742.882c-.28.28-.56.555-.84.826a14.876 14.876 0 00-1.036 1.092 5.382 5.382 0 00-.434.574c-.121.177-.187.327-.196.448h4.312v1.428h-6.174a2.25 2.25 0 01-.014-.266v-.252c0-.448.07-.859.21-1.232.149-.383.341-.737.574-1.064.233-.327.495-.635.784-.924.289-.289.579-.574.868-.854.224-.215.439-.425.644-.63.205-.205.383-.406.532-.602.159-.205.285-.411.378-.616.093-.215.14-.434.14-.658 0-.485-.14-.831-.42-1.036-.28-.205-.621-.308-1.022-.308-.261 0-.504.037-.728.112a3.241 3.241 0 00-.602.266c-.168.103-.317.21-.448.322a3.473 3.473 0 00-.294.252l-.84-1.19a4.594 4.594 0 011.372-.896 4.21 4.21 0 011.708-.35c1.036 0 1.797.247 2.282.742.495.485.742 1.153.742 2.002z" fill="#fff"/><g filter="url(#filter0_f_574_156)"><ellipse cx="469" cy="434" rx="6" ry="1" fill="#A7A7A7"/></g><path d="M653 687s8 3.976 8 8.837c0-4.861 8-8.837 8-8.837h-16z" fill="#2E2D2D"/><path d="M639 662l22-20 22 20v23h-44v-23z" fill="#179860"/><path d="M654.26 666.814c.541-.215 1.083-.49 1.624-.826a6.707 6.707 0 001.456-1.19h1.19v9.702h-1.694v-7.434a5.452 5.452 0 01-.952.574 9.557 9.557 0 01-1.106.462l-.518-1.288zm14.047 2.828c0 1.633-.299 2.889-.896 3.766-.597.868-1.423 1.302-2.478 1.302-1.055 0-1.881-.434-2.478-1.302-.597-.877-.896-2.133-.896-3.766 0-.812.075-1.531.224-2.156.159-.635.383-1.167.672-1.596a3.117 3.117 0 011.064-.98c.42-.224.891-.336 1.414-.336 1.055 0 1.881.439 2.478 1.316.597.868.896 2.119.896 3.752zm-1.75 0c0-.504-.028-.975-.084-1.414a4.457 4.457 0 00-.28-1.134 1.922 1.922 0 00-.49-.77 1.1 1.1 0 00-.77-.28c-.308 0-.569.093-.784.28-.205.187-.373.443-.504.77-.121.317-.21.695-.266 1.134-.047.439-.07.91-.07 1.414 0 .504.023.975.07 1.414.056.439.145.821.266 1.148.131.317.299.569.504.756.215.187.476.28.784.28a1.1 1.1 0 00.77-.28c.205-.187.369-.439.49-.756.131-.327.224-.709.28-1.148.056-.439.084-.91.084-1.414z" fill="#fff"/><g filter="url(#filter1_f_574_156)"><ellipse cx="661" cy="700" rx="6" ry="1" fill="#A7A7A7"/></g><path d="M306 430s8 3.976 8 8.837c0-4.861 8-8.837 8-8.837h-16z" fill="#2E2D2D"/><path d="M292 405l22-20 22 20v23h-44v-23z" fill="#179860"/><path d="M307.26 409.814c.541-.215 1.083-.49 1.624-.826a6.707 6.707 0 001.456-1.19h1.19v9.702h-1.694v-7.434a5.452 5.452 0 01-.952.574 9.557 9.557 0 01-1.106.462l-.518-1.288zm11.415.07c-.224.271-.457.56-.7.868a19.871 19.871 0 00-1.89 3.038h2.59v-3.906zm1.652-2.086v5.992h1.092v1.386h-1.092v2.324h-1.652v-2.324h-4.256v-1.204c.187-.411.434-.882.742-1.414a31.184 31.184 0 012.268-3.29c.429-.541.859-1.031 1.288-1.47h1.61z" fill="#fff"/><g filter="url(#filter2_f_574_156)"><ellipse cx="314" cy="443" rx="6" ry="1" fill="#A7A7A7"/></g><path d="M354 284s8 3.976 8 8.837c0-4.861 8-8.837 8-8.837h-16z" fill="#2E2D2D"/><path d="M340 259l22-20 22 20v23h-44v-23z" fill="#179860"/><path d="M357.304 271.71c-.252 0-.513-.019-.784-.056a6.408 6.408 0 01-.756-.126 8.41 8.41 0 01-.644-.154 2.872 2.872 0 01-.448-.182l.336-1.442c.196.093.481.201.854.322.373.112.835.168 1.386.168.737 0 1.269-.14 1.596-.42.327-.289.49-.672.49-1.148 0-.308-.065-.565-.196-.77a1.31 1.31 0 00-.518-.49 2.079 2.079 0 00-.756-.266 4.567 4.567 0 00-.896-.084h-.574v-1.372h.7c.215 0 .429-.019.644-.056.224-.047.425-.121.602-.224.177-.112.322-.257.434-.434.112-.177.168-.406.168-.686 0-.224-.042-.415-.126-.574a1.14 1.14 0 00-.336-.392 1.26 1.26 0 00-.462-.224 2.175 2.175 0 00-.56-.07c-.42 0-.793.065-1.12.196a4.64 4.64 0 00-.868.42l-.616-1.26c.131-.084.289-.173.476-.266.187-.093.392-.182.616-.266a4.58 4.58 0 01.742-.196c.261-.056.537-.084.826-.084.541 0 1.008.065 1.4.196.392.131.714.317.966.56.261.233.453.513.574.84.131.317.196.667.196 1.05 0 .448-.126.849-.378 1.204-.243.355-.56.625-.952.812.504.177.919.471 1.246.882.336.411.504.938.504 1.582 0 .429-.075.831-.224 1.204a2.537 2.537 0 01-.686.952c-.308.261-.7.471-1.176.63-.467.149-1.027.224-1.68.224zm7.957 0c-.252 0-.513-.019-.784-.056a6.408 6.408 0 01-.756-.126 8.41 8.41 0 01-.644-.154 2.872 2.872 0 01-.448-.182l.336-1.442c.196.093.481.201.854.322.373.112.835.168 1.386.168.737 0 1.269-.14 1.596-.42.327-.289.49-.672.49-1.148 0-.308-.065-.565-.196-.77a1.31 1.31 0 00-.518-.49 2.079 2.079 0 00-.756-.266 4.567 4.567 0 00-.896-.084h-.574v-1.372h.7c.215 0 .429-.019.644-.056.224-.047.425-.121.602-.224.177-.112.322-.257.434-.434.112-.177.168-.406.168-.686 0-.224-.042-.415-.126-.574a1.14 1.14 0 00-.336-.392 1.26 1.26 0 00-.462-.224 2.175 2.175 0 00-.56-.07c-.42 0-.793.065-1.12.196a4.64 4.64 0 00-.868.42l-.616-1.26c.131-.084.289-.173.476-.266.187-.093.392-.182.616-.266a4.58 4.58 0 01.742-.196c.261-.056.537-.084.826-.084.541 0 1.008.065 1.4.196.392.131.714.317.966.56.261.233.453.513.574.84.131.317.196.667.196 1.05 0 .448-.126.849-.378 1.204-.243.355-.56.625-.952.812.504.177.919.471 1.246.882.336.411.504.938.504 1.582 0 .429-.075.831-.224 1.204a2.537 2.537 0 01-.686.952c-.308.261-.7.471-1.176.63-.467.149-1.027.224-1.68.224z" fill="#fff"/><g filter="url(#filter3_f_574_156)"><ellipse cx="362" cy="297" rx="6" ry="1" fill="#A7A7A7"/></g><path d="M154 318s8 3.976 8 8.837c0-4.861 8-8.837 8-8.837h-16z" fill="#2E2D2D"/><path d="M140 293l22-20 22 20v23h-44v-23z" fill="#179860"/><path d="M161.304 305.71c-.252 0-.513-.019-.784-.056a6.408 6.408 0 01-.756-.126 8.41 8.41 0 01-.644-.154 2.872 2.872 0 01-.448-.182l.336-1.442c.196.093.481.201.854.322.373.112.835.168 1.386.168.737 0 1.269-.14 1.596-.42.327-.289.49-.672.49-1.148 0-.308-.065-.565-.196-.77a1.31 1.31 0 00-.518-.49 2.079 2.079 0 00-.756-.266 4.567 4.567 0 00-.896-.084h-.574v-1.372h.7c.215 0 .429-.019.644-.056.224-.047.425-.121.602-.224.177-.112.322-.257.434-.434.112-.177.168-.406.168-.686 0-.224-.042-.415-.126-.574a1.14 1.14 0 00-.336-.392 1.26 1.26 0 00-.462-.224 2.175 2.175 0 00-.56-.07c-.42 0-.793.065-1.12.196a4.64 4.64 0 00-.868.42l-.616-1.26c.131-.084.289-.173.476-.266.187-.093.392-.182.616-.266a4.58 4.58 0 01.742-.196c.261-.056.537-.084.826-.084.541 0 1.008.065 1.4.196.392.131.714.317.966.56.261.233.453.513.574.84.131.317.196.667.196 1.05 0 .448-.126.849-.378 1.204-.243.355-.56.625-.952.812.504.177.919.471 1.246.882.336.411.504.938.504 1.582 0 .429-.075.831-.224 1.204a2.537 2.537 0 01-.686.952c-.308.261-.7.471-1.176.63-.467.149-1.027.224-1.68.224z" fill="#fff"/><g filter="url(#filter4_f_574_156)"><ellipse cx="162" cy="331" rx="6" ry="1" fill="#A7A7A7"/></g><path d="M90 482s8 3.976 8 8.837c0-4.861 8-8.837 8-8.837H90z" fill="#2E2D2D"/><path d="M76 457l22-20 22 20v23H76v-23z" fill="#179860"/><path d="M93.948 464.782c-.27 0-.532.023-.784.07-.252.047-.48.117-.686.21-.01.075-.019.159-.028.252v.252c0 .373.023.728.07 1.064.056.327.145.616.266.868.13.243.303.439.518.588.224.14.5.21.826.21.27 0 .5-.056.686-.168.196-.112.355-.257.476-.434s.21-.369.266-.574c.056-.215.084-.42.084-.616 0-.56-.135-.985-.406-1.274-.27-.299-.7-.448-1.288-.448zm.21-1.344c.579 0 1.069.084 1.47.252.41.159.742.378.994.658s.434.607.546.98c.121.364.182.747.182 1.148 0 .364-.065.737-.196 1.12a3 3 0 01-.588 1.05 3.181 3.181 0 01-.994.77c-.401.196-.877.294-1.428.294-1.11 0-1.96-.364-2.548-1.092-.579-.737-.868-1.75-.868-3.038 0-.933.135-1.759.406-2.478.28-.728.672-1.339 1.176-1.834a5.01 5.01 0 011.848-1.12c.728-.261 1.545-.397 2.45-.406l.098 1.4a6.702 6.702 0 00-1.414.168 3.85 3.85 0 00-1.176.448 3.162 3.162 0 00-.896.798c-.243.327-.43.728-.56 1.204a3.476 3.476 0 011.498-.322zm9.161 3.29c0-.308-.061-.583-.182-.826s-.336-.448-.644-.616c-.299-.168-.705-.294-1.218-.378-.504-.084-1.143-.126-1.918-.126.103-.896.182-1.745.238-2.548.056-.812.103-1.624.14-2.436h4.956v1.428h-3.514c-.009.159-.023.341-.042.546-.009.196-.023.397-.042.602a11.615 11.615 0 01-.098 1.064c1.381.075 2.399.392 3.052.952.663.551.994 1.307.994 2.268 0 .439-.075.845-.224 1.218a2.515 2.515 0 01-.686.966c-.308.271-.695.485-1.162.644-.467.149-1.013.224-1.638.224-.252 0-.509-.019-.77-.056a8.975 8.975 0 01-.756-.14 7.064 7.064 0 01-.63-.154 2.762 2.762 0 01-.42-.154l.322-1.428c.196.093.476.196.84.308.373.103.826.154 1.358.154.364 0 .677-.037.938-.112.261-.084.471-.196.63-.336.168-.14.289-.299.364-.476.075-.187.112-.383.112-.588z" fill="#fff"/><g filter="url(#filter5_f_574_156)"><ellipse cx="98" cy="495" rx="6" ry="1" fill="#A7A7A7"/></g><path d="M566 642s8 3.976 8 8.837c0-4.861 8-8.837 8-8.837h-16z" fill="#2E2D2D"/><path d="M552 617l22-20 22 20v23h-44v-23z" fill="#179860"/><path d="M567.26 621.814c.541-.215 1.083-.49 1.624-.826a6.707 6.707 0 001.456-1.19h1.19v9.702h-1.694v-7.434a5.452 5.452 0 01-.952.574 9.557 9.557 0 01-1.106.462l-.518-1.288zm13.977 5.082c0 .401-.07.775-.21 1.12-.14.345-.35.644-.63.896s-.63.448-1.05.588c-.411.14-.887.21-1.428.21-.635 0-1.162-.089-1.582-.266-.42-.177-.756-.401-1.008-.672a2.56 2.56 0 01-.546-.868 2.905 2.905 0 01-.154-.896c0-.28.037-.537.112-.77.084-.243.196-.462.336-.658.14-.205.299-.392.476-.56.177-.168.364-.317.56-.448-.429-.299-.751-.621-.966-.966-.205-.355-.308-.784-.308-1.288 0-.364.07-.709.21-1.036.149-.336.359-.63.63-.882s.597-.453.98-.602a3.484 3.484 0 011.274-.224c.551 0 1.017.079 1.4.238.392.159.709.364.952.616.252.252.434.532.546.84.112.308.168.607.168.896 0 .513-.14.971-.42 1.372-.28.392-.602.705-.966.938.551.299.957.644 1.218 1.036.271.392.406.854.406 1.386zm-4.942.084c0 .14.028.289.084.448.056.159.149.303.28.434.131.131.299.243.504.336.205.084.462.126.77.126.28 0 .523-.037.728-.112.205-.075.373-.173.504-.294.131-.131.229-.275.294-.434.065-.168.098-.336.098-.504 0-.261-.051-.49-.154-.686a1.44 1.44 0 00-.448-.504 2.605 2.605 0 00-.672-.378 6.293 6.293 0 00-.868-.294 2.718 2.718 0 00-.812.784c-.205.299-.308.658-.308 1.078zm3.052-4.788c0-.121-.028-.252-.084-.392a.994.994 0 00-.252-.406 1.403 1.403 0 00-1.078-.434c-.252 0-.471.042-.658.126a1.148 1.148 0 00-.434.308 1.232 1.232 0 00-.252.406c-.056.14-.084.28-.084.42 0 .355.131.691.392 1.008.271.317.719.569 1.344.756.345-.215.616-.457.812-.728.196-.28.294-.635.294-1.064z" fill="#fff"/><g filter="url(#filter6_f_574_156)"><ellipse cx="574" cy="655" rx="6" ry="1" fill="#A7A7A7"/></g><path d="M669 542s8 3.976 8 8.837c0-4.861 8-8.837 8-8.837h-16z" fill="#2E2D2D"/><path d="M655 517l22-20 22 20v23h-44v-23z" fill="#179860"/><path d="M670.26 521.814c.541-.215 1.083-.49 1.624-.826a6.707 6.707 0 001.456-1.19h1.19v9.702h-1.694v-7.434a5.452 5.452 0 01-.952.574 9.557 9.557 0 01-1.106.462l-.518-1.288zm7.957 0c.541-.215 1.083-.49 1.624-.826a6.707 6.707 0 001.456-1.19h1.19v9.702h-1.694v-7.434a5.452 5.452 0 01-.952.574 9.557 9.557 0 01-1.106.462l-.518-1.288z" fill="#fff"/><g filter="url(#filter7_f_574_156)"><ellipse cx="677" cy="555" rx="6" ry="1" fill="#A7A7A7"/></g><path d="M884 483s8 3.976 8 8.837c0-4.861 8-8.837 8-8.837h-16z" fill="#2E2D2D"/><path d="M870 458l22-20 22 20v23h-44v-23z" fill="#179860"/><path d="M885.26 462.814c.541-.215 1.083-.49 1.624-.826a6.707 6.707 0 001.456-1.19h1.19v9.702h-1.694v-7.434a5.452 5.452 0 01-.952.574 9.557 9.557 0 01-1.106.462l-.518-1.288zm13.431.504c0 .336-.07.667-.21.994-.14.317-.322.63-.546.938a7.89 7.89 0 01-.742.882c-.28.28-.56.555-.84.826a14.876 14.876 0 00-1.036 1.092 5.382 5.382 0 00-.434.574c-.121.177-.187.327-.196.448h4.312v1.428h-6.174a2.25 2.25 0 01-.014-.266v-.252c0-.448.07-.859.21-1.232.149-.383.341-.737.574-1.064.233-.327.495-.635.784-.924.289-.289.579-.574.868-.854.224-.215.439-.425.644-.63.205-.205.383-.406.532-.602.159-.205.285-.411.378-.616.093-.215.14-.434.14-.658 0-.485-.14-.831-.42-1.036-.28-.205-.621-.308-1.022-.308-.261 0-.504.037-.728.112a3.241 3.241 0 00-.602.266c-.168.103-.317.21-.448.322a3.473 3.473 0 00-.294.252l-.84-1.19a4.594 4.594 0 011.372-.896 4.21 4.21 0 011.708-.35c1.036 0 1.797.247 2.282.742.495.485.742 1.153.742 2.002z" fill="#fff"/><g filter="url(#filter8_f_574_156)"><ellipse cx="892" cy="496" rx="6" ry="1" fill="#A7A7A7"/></g><path d="M560 192s8 3.976 8 8.837c0-4.861 8-8.837 8-8.837h-16z" fill="#2E2D2D"/><path d="M546 167l22-20 22 20v23h-44v-23z" fill="#179860"/><path d="M570.734 172.318c0 .336-.07.667-.21.994-.14.317-.322.63-.546.938a7.89 7.89 0 01-.742.882c-.28.28-.56.555-.84.826a14.876 14.876 0 00-1.036 1.092 5.382 5.382 0 00-.434.574c-.121.177-.187.327-.196.448h4.312v1.428h-6.174a2.25 2.25 0 01-.014-.266v-.252c0-.448.07-.859.21-1.232.149-.383.341-.737.574-1.064.233-.327.495-.635.784-.924.289-.289.579-.574.868-.854.224-.215.439-.425.644-.63.205-.205.383-.406.532-.602.159-.205.285-.411.378-.616.093-.215.14-.434.14-.658 0-.485-.14-.831-.42-1.036-.28-.205-.621-.308-1.022-.308-.261 0-.504.037-.728.112a3.241 3.241 0 00-.602.266c-.168.103-.317.21-.448.322a3.473 3.473 0 00-.294.252l-.84-1.19a4.594 4.594 0 011.372-.896 4.21 4.21 0 011.708-.35c1.036 0 1.797.247 2.282.742.495.485.742 1.153.742 2.002z" fill="#fff"/><g filter="url(#filter9_f_574_156)"><ellipse cx="568" cy="205" rx="6" ry="1" fill="#A7A7A7"/></g><path d="M453 107s8 3.976 8 8.837c0-4.861 8-8.837 8-8.837h-16z" fill="#2E2D2D"/><path d="M439 82l22-20 22 20v23h-44V82z" fill="#179860"/><path d="M458.26 86.814a10.25 10.25 0 001.624-.826 6.698 6.698 0 001.456-1.19h1.19V94.5h-1.694v-7.434a5.434 5.434 0 01-.952.574c-.383.187-.751.34-1.106.462l-.518-1.288z" fill="#fff"/><g filter="url(#filter10_f_574_156)"><ellipse cx="461" cy="120" rx="6" ry="1" fill="#A7A7A7"/></g><path d="M525.44 445.669v-.927h3.441v9.635h-3.441v-1.056c-.659.92-1.656 1.38-2.989 1.38-1.348 0-2.502-.511-3.463-1.531-.918-.977-1.376-2.155-1.376-3.535 0-1.581.494-2.867 1.484-3.858.903-.906 2.057-1.358 3.462-1.358 1.176 0 2.137.416 2.882 1.25zm-2.107 1.681c-.574 0-1.076.209-1.506.625-.459.446-.688.97-.688 1.574 0 .632.222 1.157.667 1.573.458.432.975.647 1.548.647.588 0 1.104-.223 1.549-.668a2.12 2.12 0 00.645-1.552c0-.618-.222-1.143-.667-1.574a2.197 2.197 0 00-1.548-.625zm-16.718-2.608h5.893c1.147 0 1.964.23 2.452.69.444.417.667.977.667 1.681 0 .561-.136 1.042-.409 1.445-.229.33-.581.596-1.054.797v.043c.559.115 1.018.338 1.377.668.459.417.688.97.688 1.66 0 .776-.229 1.394-.688 1.854-.531.532-1.312.798-2.345.798h-6.581v-9.636zm3.441 3.837h1.291c.416 0 .71-.072.882-.215.172-.158.258-.388.258-.69 0-.273-.079-.474-.237-.604-.172-.158-.48-.237-.925-.237h-1.269v1.746zm0 3.708h1.527c.359 0 .638-.094.839-.281a.934.934 0 00.28-.689c0-.302-.086-.539-.258-.712-.158-.158-.445-.237-.861-.237h-1.527v1.919zm-15.686 2.091v-9.636h3.442v3.945l2.903-3.945h4.323l-3.979 4.527 4.345 5.109h-4.452l-3.14-4.268v4.268h-3.442zm-1.951-3.105v2.889a5.342 5.342 0 01-2.387.539c-1.52 0-2.782-.489-3.785-1.466-.99-.963-1.484-2.163-1.484-3.6 0-1.48.516-2.723 1.548-3.729 1.018-.977 2.309-1.466 3.872-1.466.774 0 1.519.18 2.236.539v2.889c-.587-.417-1.182-.625-1.785-.625-.674 0-1.233.222-1.677.668-.445.445-.667.999-.667 1.66 0 .632.201 1.171.602 1.616.459.489 1.047.733 1.764.733.674 0 1.262-.215 1.763-.647zM477.4 447.35c-.588 0-1.104.209-1.548.625-.445.417-.667.942-.667 1.574 0 .575.222 1.085.667 1.53.43.431.946.647 1.548.647.588 0 1.097-.216 1.527-.647.445-.416.667-.927.667-1.53 0-.604-.222-1.128-.667-1.574-.444-.416-.953-.625-1.527-.625zm4.28-1.336c.99.963 1.484 2.141 1.484 3.535 0 1.394-.494 2.579-1.484 3.556-1.075 1.064-2.509 1.596-4.301 1.596-1.778 0-3.205-.532-4.28-1.596-.989-.977-1.484-2.162-1.484-3.556 0-1.394.495-2.572 1.484-3.535 1.09-1.064 2.516-1.595 4.28-1.595 1.749 0 3.183.531 4.301 1.595zm-25.981 8.364H452L454.43 440h3.678l2.903 7.674 3.076-7.674h3.721l2.15 14.378h-3.72l-1.054-8.278-3.463 8.278h-1.484l-3.312-8.278-1.226 8.278z" fill="#2E2D2D"/></g><defs><filter id="filter0_f_574_156" x="461" y="431" width="16" height="6" filterUnits="userSpaceOnUse" color-interpolation-filters="sRGB"><feFlood flood-opacity="0" result="BackgroundImageFix"/><feBlend in="SourceGraphic" in2="BackgroundImageFix" result="shape"/><feGaussianBlur stdDeviation="1" result="effect1_foregroundBlur_574_156"/></filter><filter id="filter1_f_574_156" x="653" y="697" width="16" height="6" filterUnits="userSpaceOnUse" color-interpolation-filters="sRGB"><feFlood flood-opacity="0" result="BackgroundImageFix"/><feBlend in="SourceGraphic" in2="BackgroundImageFix" result="shape"/><feGaussianBlur stdDeviation="1" result="effect1_foregroundBlur_574_156"/></filter><filter id="filter2_f_574_156" x="306" y="440" width="16" height="6" filterUnits="userSpaceOnUse" color-interpolation-filters="sRGB"><feFlood flood-opacity="0" result="BackgroundImageFix"/><feBlend in="SourceGraphic" in2="BackgroundImageFix" result="shape"/><feGaussianBlur stdDeviation="1" result="effect1_foregroundBlur_574_156"/></filter><filter id="filter3_f_574_156" x="354" y="294" width="16" height="6" filterUnits="userSpaceOnUse" color-interpolation-filters="sRGB"><feFlood flood-opacity="0" result="BackgroundImageFix"/><feBlend in="SourceGraphic" in2="BackgroundImageFix" result="shape"/><feGaussianBlur stdDeviation="1" result="effect1_foregroundBlur_574_156"/></filter><filter id="filter4_f_574_156" x="154" y="328" width="16" height="6" filterUnits="userSpaceOnUse" color-interpolation-filters="sRGB"><feFlood flood-opacity="0" result="BackgroundImageFix"/><feBlend in="SourceGraphic" in2="BackgroundImageFix" result="shape"/><feGaussianBlur stdDeviation="1" result="effect1_foregroundBlur_574_156"/></filter><filter id="filter5_f_574_156" x="90" y="492" width="16" height="6" filterUnits="userSpaceOnUse" color-interpolation-filters="sRGB"><feFlood flood-opacity="0" result="BackgroundImageFix"/><feBlend in="SourceGraphic" in2="BackgroundImageFix" result="shape"/><feGaussianBlur stdDeviation="1" result="effect1_foregroundBlur_574_156"/></filter><filter id="filter6_f_574_156" x="566" y="652" width="16" height="6" filterUnits="userSpaceOnUse" color-interpolation-filters="sRGB"><feFlood flood-opacity="0" result="BackgroundImageFix"/><feBlend in="SourceGraphic" in2="BackgroundImageFix" result="shape"/><feGaussianBlur stdDeviation="1" result="effect1_foregroundBlur_574_156"/></filter><filter id="filter7_f_574_156" x="669" y="552" width="16" height="6" filterUnits="userSpaceOnUse" color-interpolation-filters="sRGB"><feFlood flood-opacity="0" result="BackgroundImageFix"/><feBlend in="SourceGraphic" in2="BackgroundImageFix" result="shape"/><feGaussianBlur stdDeviation="1" result="effect1_foregroundBlur_574_156"/></filter><filter id="filter8_f_574_156" x="884" y="493" width="16" height="6" filterUnits="userSpaceOnUse" color-interpolation-filters="sRGB"><feFlood flood-opacity="0" result="BackgroundImageFix"/><feBlend in="SourceGraphic" in2="BackgroundImageFix" result="shape"/><feGaussianBlur stdDeviation="1" result="effect1_foregroundBlur_574_156"/></filter><filter id="filter9_f_574_156" x="560" y="202" width="16" height="6" filterUnits="userSpaceOnUse" color-interpolation-filters="sRGB"><feFlood flood-opacity="0" result="BackgroundImageFix"/><feBlend in="SourceGraphic" in2="BackgroundImageFix" result="shape"/><feGaussianBlur stdDeviation="1" result="effect1_foregroundBlur_574_156"/></filter><filter id="filter10_f_574_156" x="453" y="117" width="16" height="6" filterUnits="userSpaceOnUse" color-interpolation-filters="sRGB"><feFlood flood-opacity="0" result="BackgroundImageFix"/><feBlend in="SourceGraphic" in2="BackgroundImageFix" result="shape"/><feGaussianBlur stdDeviation="1" result="effect1_foregroundBlur_574_156"/></filter><clipPath id="clip0_574_156"><path fill="#fff" d="M0 0h970v918H0z"/></clipPath></defs></svg>