<svg width="80" height="80" fill="none" xmlns="http://www.w3.org/2000/svg"><path d="M17.637 11.673h-5.219A5.218 5.218 0 007.2 16.89v50.691a5.218 5.218 0 005.218 5.218h55.164a5.218 5.218 0 005.218-5.218v-50.69a5.218 5.218 0 00-5.218-5.22h-5.218m-39.51 0h34.292M7.2 22.856h65.6M7.2 37.018h65.6M40 22.855v42.49m15.655-42.49v42.49M28.818 44.1l2.237 2.237L35.9 41.49m8.573 16.027l2.236 2.237 4.846-4.846m9.318-25.718l2.236 2.236 4.846-4.845m-43.61-3.727v42.49M7.2 51.183h65.6M7.2 65.346h65.6M20.246 16.89a2.61 2.61 0 01-2.61-2.609V9.809a2.61 2.61 0 115.219 0v4.473a2.609 2.609 0 01-2.61 2.61zm39.509 0a2.609 2.609 0 01-2.61-2.609V9.809a2.61 2.61 0 115.219 0v4.473a2.61 2.61 0 01-2.61 2.61z" stroke="#179860" stroke-width="3" stroke-linecap="round" stroke-linejoin="round"/></svg>