<svg width="66" height="30" viewBox="0 0 66 30" fill="none" xmlns="http://www.w3.org/2000/svg">
<g id="&#208;&#187;&#208;&#190;&#208;&#179;&#208;&#190;&#209;&#130;&#208;&#184;&#208;&#191;" clip-path="url(#clip0_295_890)">
<path id="leaf_1" opacity="0.302" d="M1.1756 23.6945C0.965817 25.0415 0.781371 26.2415 0.638174 27.1655C0.637585 27.1679 0.636996 27.1709 0.636406 27.1733C0.498513 28.0763 0.400103 28.7021 0.347656 28.9553C2.21805 27.8801 4.98592 26.3453 5.63885 23.0033C5.6801 22.7933 5.71192 22.5791 5.73373 22.3631L6.05725 15.9707C3.60169 17.7101 1.73719 20.9567 1.1756 23.6945Z" fill="white"/>
<path id="leaf_2" opacity="0.6" d="M1.04297 24.0686C1.04297 24.0692 1.04297 24.0692 1.04297 24.0704C1.04297 24.0692 1.04297 24.0692 1.04297 24.0686ZM7.94233 15.3014C7.21633 15.5102 6.5192 15.8696 5.8645 16.3382C3.44195 18.0728 1.60279 21.311 1.04886 24.041C1.04709 24.05 1.04533 24.0596 1.04297 24.0686C1.34409 22.1402 1.71593 19.847 2.14552 17.4614L2.14611 17.4578L2.24216 16.9406C2.90983 13.4528 4.75134 11.2118 8.2022 10.2164L17.7645 7.45882L18.345 7.29142L18.3568 7.28782L18.3945 7.27703C18.4098 7.27403 18.4251 7.27043 18.4351 7.26562C17.728 9.38602 16.0138 12.4736 13.2783 13.802C13.0891 13.8932 12.8953 13.9772 12.6967 14.051L7.94233 15.3014Z" fill="white"/>
<path id="leaf_3" d="M2.38602 17.8674C2.38602 17.8662 2.38602 17.865 2.38661 17.8638L2.38602 17.8674ZM2.48325 17.3424C3.15563 13.8276 5.01129 11.5686 8.48925 10.566L19.3775 7.425C19.5778 7.3506 19.7735 7.2666 19.9644 7.1736C22.9851 5.7066 24.77 2.1102 25.3381 0L4.40786 6.1632C3.29352 6.6036 0.0872143 7.5588 0 12.3576L0.407196 29.5554C0.586339 28.6848 1.34239 23.6598 2.38543 17.8674L2.38661 17.8638C2.41843 17.6874 2.45025 17.5134 2.48325 17.3424Z" fill="white"/>
<path id="text" d="M62.6525 24.8313L60.0084 30.0009H57.6389L60.3691 24.8133L56.8322 18.3207H59.2701L61.5712 22.6611L63.6314 18.3207H66.0009L62.6525 24.8313ZM53.7402 13.0977H55.8345V25.9605H53.7402V13.0977ZM50.7337 16.3797C50.0471 16.3797 49.4802 15.7971 49.4802 15.0915C49.4802 14.3859 50.0471 13.8033 50.7337 13.8033C51.4208 13.8033 51.9871 14.3859 51.9871 15.0915C51.9871 15.7971 51.4208 16.3797 50.7337 16.3797ZM45.5727 21.7965C45.5727 20.8965 45.3841 20.4909 45.2291 20.2965C44.9545 19.9437 44.5768 19.9083 44.3711 19.9083C43.8042 19.9083 43.4436 20.1729 43.2208 20.5791C42.9457 21.0555 42.9286 21.6555 42.9286 22.0611V25.9605H40.8342V21.7965C40.8342 20.8965 40.6451 20.4909 40.4907 20.2965C40.2161 19.9437 39.8383 19.9083 39.6321 19.9083C39.0658 19.9083 38.7052 20.1729 38.4818 20.5791C38.2072 21.0555 38.1901 21.6555 38.1901 22.0611V25.9605H36.0952V18.3207H38.1901V19.1853C38.9798 18.1443 39.9586 18.0735 40.4047 18.0735C41.9674 18.0735 42.5679 19.0971 42.7571 19.4673C43.1177 18.8499 43.8384 18.0735 45.1437 18.0735C46.2769 18.0735 46.8603 18.6207 47.1526 19.0083C47.6328 19.6617 47.6676 20.3145 47.6676 21.1611V25.9605H45.5727V21.7965ZM32.0191 24.9723C31.2636 26.0841 30.2854 26.2077 29.7356 26.2077C27.4692 26.2077 25.9412 24.3903 25.9412 22.1319C25.9412 19.8729 27.4351 18.0735 29.6325 18.0735C30.1823 18.0735 31.3326 18.1791 32.0191 19.3083V18.3207H34.114V25.9605H32.0191V24.9723ZM30.1652 19.9791C28.9802 19.9791 28.1045 20.9319 28.1045 22.1319C28.1045 23.3493 28.9802 24.3021 30.1652 24.3021C31.3497 24.3021 32.2254 23.3493 32.2254 22.1319C32.2254 20.9319 31.3497 19.9791 30.1652 19.9791ZM21.4685 18.7971H25.0738V20.7729H21.4685V25.9605H19.2363V14.1915H25.3142V16.1679H21.4685V18.7971ZM51.7814 25.9605H49.6865V18.3207H51.7814V25.9605Z" fill="white"/>
</g>
<defs>
<clipPath id="clip0_295_890">
<rect width="66" height="30" fill="white"/>
</clipPath>
</defs>
</svg>
