<svg width="50" height="50" viewBox="0 0 50 50" fill="none" xmlns="http://www.w3.org/2000/svg">
<g clip-path="url(#clip0_859_5884)">
<path d="M49.7102 24.1171L45.4615 18.351L45.5103 11.1879C45.5125 10.8701 45.4128 10.5599 45.2259 10.3028C45.039 10.0457 44.7746 9.8553 44.4716 9.75941L37.6429 7.59688L33.478 1.76827C33.0977 1.23557 32.4149 1.01591 31.7958 1.2218L25 3.49031L18.2041 1.22122C17.5845 1.01523 16.9018 1.23489 16.522 1.76768L12.3577 7.59571L5.5285 9.75941C5.2255 9.85518 4.96114 10.0455 4.77421 10.3025C4.58727 10.5595 4.48759 10.8696 4.48977 11.1874L4.53861 18.3505L0.289726 24.1166C0.101511 24.3725 0 24.6819 0 24.9996C0 25.3173 0.101511 25.6267 0.289726 25.8826L4.53851 31.6487L4.48967 38.8118C4.48747 39.1297 4.58714 39.4399 4.77407 39.697C4.961 39.954 5.22536 40.1445 5.52841 40.2404L12.357 42.4029L16.5219 48.2315C16.7069 48.4905 16.9702 48.6834 17.273 48.7817C17.5757 48.8801 17.9021 48.8788 18.204 48.778L24.9999 46.5095L31.7957 48.7786C32.0977 48.8793 32.424 48.8806 32.7268 48.7823C33.0296 48.6839 33.2928 48.4911 33.4779 48.2321L37.6422 42.4041L44.4716 40.2405C44.7746 40.1447 45.0389 39.9544 45.2259 39.6974C45.4128 39.4404 45.5125 39.1303 45.5103 38.8125L45.4615 31.6488L49.7102 25.8827C49.8984 25.6269 50 25.3176 50 24.9999C50 24.6823 49.8984 24.373 49.7102 24.1171ZM42.7715 30.2815C42.5811 30.5401 42.4794 30.8533 42.4816 31.1745L42.5263 37.7346L36.2702 39.7162C35.963 39.8131 35.6958 40.0074 35.5089 40.2698L31.6958 45.6073L25.4713 43.5293C25.1654 43.427 24.8345 43.427 24.5285 43.5293L18.3041 45.6073L14.4903 40.2692C14.303 40.0071 14.0359 39.8127 13.729 39.715L7.47352 37.734L7.51816 31.1739C7.52035 30.8528 7.41866 30.5395 7.22827 30.281L3.33618 24.9999L7.22788 19.7183C7.41828 19.4598 7.51997 19.1465 7.51777 18.8254L7.47313 12.2653L13.7292 10.2837C14.0364 10.1868 14.3036 9.99248 14.4905 9.73011L18.3036 4.39259L24.528 6.47054C24.834 6.5729 25.1649 6.5729 25.4709 6.47054L31.6953 4.39259L35.5091 9.7307C35.6964 9.99274 35.9635 10.1872 36.2704 10.2849L42.5259 12.2658L42.4812 18.826C42.479 19.1471 42.5807 19.4603 42.7711 19.7189L46.664 24.9999L42.7715 30.2815Z" fill="#179860"/>
<path d="M32.3185 18.3671L22.2101 28.476L17.6821 23.948C17.1006 23.3665 16.1589 23.3665 15.5779 23.948C14.997 24.5295 14.9964 25.4712 15.5779 26.0522L21.1583 31.6327C21.4488 31.9231 21.8297 32.0684 22.2107 32.0684C22.5917 32.0684 22.9721 31.9231 23.2631 31.6327L34.4239 20.4719C35.0054 19.8904 35.0054 18.9487 34.4239 18.3677C33.8424 17.7866 32.8994 17.7861 32.3185 18.3671Z" fill="#179860"/>
</g>
<defs>
<clipPath id="clip0_859_5884">
<rect width="50" height="50" fill="white"/>
</clipPath>
</defs>
</svg>
