<svg width="17" height="18" viewBox="0 0 17 18" fill="none" xmlns="http://www.w3.org/2000/svg">
<path d="M15.5835 5.10413H11.3335" stroke="white" stroke-width="1.5" stroke-miterlimit="10" stroke-linecap="round" stroke-linejoin="round"/>
<path d="M4.24984 5.10413H1.4165" stroke="#A7A7A7" stroke-width="1.5" stroke-miterlimit="10" stroke-linecap="round" stroke-linejoin="round"/>
<path d="M7.08317 7.58333C8.45238 7.58333 9.56234 6.47337 9.56234 5.10417C9.56234 3.73496 8.45238 2.625 7.08317 2.625C5.71396 2.625 4.604 3.73496 4.604 5.10417C4.604 6.47337 5.71396 7.58333 7.08317 7.58333Z" stroke="#A7A7A7" stroke-width="1.5" stroke-miterlimit="10" stroke-linecap="round" stroke-linejoin="round"/>
<path d="M5.6665 12.8959H1.4165" stroke="white" stroke-width="1.5" stroke-miterlimit="10" stroke-linecap="round" stroke-linejoin="round"/>
<path d="M15.5833 12.8958H12.75" stroke="#A7A7A7" stroke-width="1.5" stroke-miterlimit="10" stroke-linecap="round" stroke-linejoin="round"/>
<path d="M9.91667 15.375C11.2859 15.375 12.3958 14.265 12.3958 12.8958C12.3958 11.5266 11.2859 10.4166 9.91667 10.4166C8.54746 10.4166 7.4375 11.5266 7.4375 12.8958C7.4375 14.265 8.54746 15.375 9.91667 15.375Z" stroke="#A7A7A7" stroke-width="1.5" stroke-miterlimit="10" stroke-linecap="round" stroke-linejoin="round"/>
</svg>
