<svg width="254" height="8" viewBox="0 0 254 8" fill="none" xmlns="http://www.w3.org/2000/svg">
<rect opacity="0.1" width="1" height="8" rx="0.5" fill="white"/>
<rect opacity="0.1" x="1" y="3.5" width="10" height="1" fill="white"/>
<rect opacity="0.1" x="11" width="1" height="8" rx="0.5" fill="white"/>
<rect opacity="0.1" x="12" y="3.5" width="10" height="1" fill="white"/>
<rect opacity="0.1" x="22" width="1" height="8" rx="0.5" fill="white"/>
<rect opacity="0.1" x="23" y="3.5" width="10" height="1" fill="white"/>
<rect opacity="0.1" x="33" width="1" height="8" rx="0.5" fill="white"/>
<rect opacity="0.1" x="34" y="3.5" width="10" height="1" fill="white"/>
<rect opacity="0.1" x="44" width="1" height="8" rx="0.5" fill="white"/>
<rect opacity="0.1" x="45" y="3.5" width="10" height="1" fill="white"/>
<rect opacity="0.1" x="55" width="1" height="8" rx="0.5" fill="white"/>
<rect opacity="0.1" x="56" y="3.5" width="10" height="1" fill="white"/>
<rect opacity="0.1" x="66" width="1" height="8" rx="0.5" fill="white"/>
<rect opacity="0.1" x="67" y="3.5" width="10" height="1" fill="white"/>
<rect opacity="0.1" x="77" width="1" height="8" rx="0.5" fill="white"/>
<rect opacity="0.1" x="78" y="3.5" width="10" height="1" fill="white"/>
<rect opacity="0.1" x="88" width="1" height="8" rx="0.5" fill="white"/>
<rect opacity="0.1" x="89" y="3.5" width="10" height="1" fill="white"/>
<rect opacity="0.1" x="99" width="1" height="8" rx="0.5" fill="white"/>
<rect opacity="0.1" x="100" y="3.5" width="10" height="1" fill="white"/>
<rect opacity="0.1" x="110" width="1" height="8" rx="0.5" fill="white"/>
<rect opacity="0.1" x="111" y="3.5" width="10" height="1" fill="white"/>
<rect opacity="0.1" x="121" width="1" height="8" rx="0.5" fill="white"/>
<rect opacity="0.1" x="122" y="3.5" width="10" height="1" fill="white"/>
<rect opacity="0.1" x="132" width="1" height="8" rx="0.5" fill="white"/>
<rect opacity="0.1" x="133" y="3.5" width="10" height="1" fill="white"/>
<rect opacity="0.1" x="143" width="1" height="8" rx="0.5" fill="white"/>
<rect opacity="0.1" x="144" y="3.5" width="10" height="1" fill="white"/>
<rect opacity="0.1" x="154" width="1" height="8" rx="0.5" fill="white"/>
<rect opacity="0.1" x="155" y="3.5" width="10" height="1" fill="white"/>
<rect opacity="0.1" x="165" width="1" height="8" rx="0.5" fill="white"/>
<rect opacity="0.1" x="166" y="3.5" width="10" height="1" fill="white"/>
<rect opacity="0.1" x="176" width="1" height="8" rx="0.5" fill="white"/>
<rect opacity="0.1" x="177" y="3.5" width="10" height="1" fill="white"/>
<rect opacity="0.1" x="187" width="1" height="8" rx="0.5" fill="white"/>
<rect opacity="0.1" x="188" y="3.5" width="10" height="1" fill="white"/>
<rect opacity="0.1" x="198" width="1" height="8" rx="0.5" fill="white"/>
<rect opacity="0.1" x="199" y="3.5" width="10" height="1" fill="white"/>
<rect opacity="0.1" x="209" width="1" height="8" rx="0.5" fill="white"/>
<rect opacity="0.1" x="210" y="3.5" width="10" height="1" fill="white"/>
<rect opacity="0.1" x="220" width="1" height="8" rx="0.5" fill="white"/>
<rect opacity="0.1" x="221" y="3.5" width="10" height="1" fill="white"/>
<rect opacity="0.1" x="231" width="1" height="8" rx="0.5" fill="white"/>
<rect opacity="0.1" x="232" y="3.5" width="10" height="1" fill="white"/>
<rect opacity="0.1" x="242" width="1" height="8" rx="0.5" fill="white"/>
<rect opacity="0.1" x="243" y="3.5" width="10" height="1" fill="white"/>
<rect opacity="0.1" x="253" width="1" height="8" rx="0.5" fill="white"/>
</svg>
