<svg width="80" height="80" viewBox="0 0 80 80" fill="none" xmlns="http://www.w3.org/2000/svg">
<path d="M9.6 60C10.9255 60 12 61.0745 12 62.4V71.2H7.2V62.4C7.2 61.0745 8.27452 60 9.6 60ZM9.6 60L20 50.4M56.8 52.8V71.2H24.8V52.8M70.4 60C71.7255 60 72.8 61.0745 72.8 62.4V71.2H68V62.4C68 61.0745 69.0745 60 70.4 60ZM70.4 60L60.8 49.6M56 44.8V34.4C56 33.9582 55.6418 33.6 55.2 33.6H52C51.5582 33.6 51.2 33.9582 51.2 34.4V39.6M40.8 19.2V20.8C40.8 22.1255 41.9389 23.1503 43.1015 23.7867C44.5904 24.6018 45.6 26.183 45.6 28C45.6 29.6696 44.7476 31.1401 43.4542 32M38.1458 32C36.8524 31.1401 36 29.6696 36 28M6.4 76H73.6C74.9255 76 76 74.9255 76 73.6C76 72.2745 74.9255 71.2 73.6 71.2H6.4C5.07452 71.2 4 72.2745 4 73.6C4 74.9255 5.07452 76 6.4 76ZM46.4 71.2V60C46.4 58.2327 44.9673 56.8 43.2 56.8H38.4C36.6327 56.8 35.2 58.2327 35.2 60V71.2H46.4ZM19.2 51.2L22.7299 54.7299L40.8 36.6598L58.8701 54.7299L62.4 51.2L40.8 29.6L19.2 51.2ZM43.2 11.2C43.2 12.5255 42.1255 13.6 40.8 13.6C39.4745 13.6 38.4 12.5255 38.4 11.2C38.4 9.87452 39.4745 8.8 40.8 8.8C42.1255 8.8 43.2 9.87452 43.2 11.2ZM31.2 4H50.4V11.2L45.6 19.2H36L31.2 11.2V4Z" stroke="#179860" stroke-width="3" stroke-linecap="round" stroke-linejoin="round"/>
</svg>
