<svg width="80" height="80" viewBox="0 0 80 80" fill="none" xmlns="http://www.w3.org/2000/svg">
<path d="M58.3209 71.5367C59.0282 74.9961 62.1092 77.5998 65.8028 77.5998C69.4964 77.5998 72.5773 74.9961 73.2847 71.5367M58.3209 71.5367C58.2207 71.047 58.1681 70.5401 58.1681 70.021C58.1681 68.6405 58.5399 67.3463 59.1895 66.2315M58.3209 71.5367H46.5634M46.5634 71.5367C46.6636 71.047 46.7161 70.5401 46.7161 70.021C46.7161 68.6405 46.3444 67.3463 45.6948 66.2315M46.5634 71.5367C45.856 74.9961 42.7751 77.5998 39.0815 77.5998C35.3879 77.5998 32.3069 74.9961 31.5995 71.5367M59.1895 66.2315C60.5096 63.9662 62.9769 62.4421 65.8028 62.4421C68.6287 62.4421 71.096 63.9662 72.4161 66.2315M59.1895 66.2315H52.0604M45.6948 66.2315C44.3747 63.9662 41.9074 62.4421 39.0815 62.4421C36.2556 62.4421 33.7883 63.9662 32.4682 66.2315M45.6948 66.2315H52.0604M32.4682 66.2315C31.8186 67.3463 31.4468 68.6405 31.4468 70.021C31.4468 70.5401 31.4994 71.047 31.5995 71.5367M32.4682 66.2315H25.0812M25.0812 66.2315C23.7611 63.9662 21.2938 62.4421 18.4679 62.4421C15.642 62.4421 13.1747 63.9662 11.8546 66.2315M25.0812 66.2315C25.7308 67.3463 26.1026 68.6405 26.1026 70.021C26.1026 70.5401 26.05 71.047 25.9498 71.5367M11.8546 66.2315C11.205 67.3463 10.8332 68.6405 10.8332 70.021C10.8332 70.5401 10.8858 71.047 10.986 71.5367M11.8546 66.2315H7.01591M10.986 71.5367C11.6933 74.9961 14.7743 77.5998 18.4679 77.5998C22.1615 77.5998 25.2425 74.9961 25.9498 71.5367M10.986 71.5367H4.72552V66.2315H7.01591M25.9498 71.5367H31.5995M73.2847 71.5367C73.3849 71.047 73.4374 70.5401 73.4374 70.021C73.4374 68.6405 73.0657 67.3463 72.4161 66.2315M73.2847 71.5367H78.4V66.2315H75.7278M72.4161 66.2315H75.7278M7.01591 66.2315L12.3602 57.5159H16.941M52.0604 57.5159V66.2315M52.0604 57.5159V29.8531H68.0932L71.0622 35.1583M52.0604 57.5159H40.9901M75.7278 66.2315V59.979M75.7278 44.2529V43.495L71.0622 35.1583M75.7278 44.2529H59.6951V35.1583H71.0622M75.7278 44.2529V50.6949M75.7278 50.6949H70.3836V53.7265H75.7278M75.7278 50.6949V53.7265M75.7278 53.7265V59.979M59.1895 50.316H63.5124M75.7278 59.979H72.4161M16.941 57.5159H40.9901M16.941 57.5159C16.941 55.4064 16.941 53.8974 16.941 52.2107M16.941 49.1792C16.941 50.3253 16.941 51.2942 16.941 52.2107M40.9901 57.5159V51.4528M16.941 52.2107H7.77938C6.50694 52.2107 4.34378 51.3012 5.87071 47.6634L6.63418 45.3897M29.1991 18.0579C37.2812 19.5553 44.4851 22.198 50.0062 25.417L45.2264 50.8382C38.9073 51.8634 31.2282 51.7485 23.1461 50.251C14.6979 48.6857 7.20971 45.8694 1.59998 42.4514L6.26945 17.6168C12.7435 16.4378 20.751 16.4926 29.1991 18.0579Z" stroke="#179860" stroke-width="3" stroke-linecap="round" stroke-linejoin="round"/>
</svg>
