<svg width="80" height="80" viewBox="0 0 80 80" fill="none" xmlns="http://www.w3.org/2000/svg">
<g id="&#208;&#184;&#208;&#186;&#208;&#190;&#208;&#189;&#208;&#186;&#208;&#184; &#208;&#191;&#209;&#128;&#208;&#181;&#208;&#184;&#208;&#188;&#209;&#131;&#209;&#137;&#208;&#181;&#209;&#129;&#209;&#130;&#208;&#178;&#208;&#176;">
<path id="Vector" d="M75.1998 30.8841L65.9366 21.6137H57.0595M75.1998 30.8841V48.6524M75.1998 30.8841H57.4454V43.7082C64.8559 43.7082 66.6056 47.0043 66.5542 48.6524H75.1998M65.9366 66.4206H75.1998V57.5365M75.1998 48.6524V57.5365M57.0595 21.6137H48.1823V24.7039M57.0595 21.6137V15.897H49.1086M9.89454 54.3691L4.7998 43.7082V30.8841M4.7998 30.8841V24.8584C4.7998 23.6223 5.93197 23.2103 6.49805 23.1588H8.04191M4.7998 30.8841H42.0068L48.1823 24.7039M48.1823 54.3691V24.7039M13.7542 38.1459H40.6173M40.6173 45.5622H22.7086M75.1998 57.5365H64.3928M44.0138 57.5365H26.7226M42.0068 66.4206H28.5752M49.1086 15.897H45.2489L37.9928 23.1588H8.04191M49.1086 15.897C48.594 13.7854 46.4531 9.56223 42.0068 9.56223C36.4489 9.56223 34.1331 8.48069 32.4349 6.78112C30.7366 5.08155 29.1928 4 23.9437 4C18.6945 4 16.07 5.85408 13.7542 9.56223C11.9016 12.5288 9.17407 19.8627 8.04191 23.1588M17.6138 18.9871C18.1799 15.9485 20.9177 10.0876 27.3402 10.9528M30.1191 17.133C31.663 17.496 35.3991 17.3552 37.9928 13.8884M28.2665 64.2575C28.2665 70.7427 23.0133 76 16.5331 76C10.053 76 4.7998 70.7427 4.7998 64.2575C4.7998 57.7723 10.053 52.515 16.5331 52.515C23.0133 52.515 28.2665 57.7723 28.2665 64.2575ZM65.9366 64.2575C65.9366 70.7427 60.6835 76 54.2033 76C47.7232 76 42.47 70.7427 42.47 64.2575C42.47 57.7723 47.7232 52.515 54.2033 52.515C60.6835 52.515 65.9366 57.7723 65.9366 64.2575ZM21.7823 64.2575C21.7823 67.1588 19.4321 69.5107 16.5331 69.5107C13.6341 69.5107 11.284 67.1588 11.284 64.2575C11.284 61.3562 13.6341 59.0043 16.5331 59.0043C19.4321 59.0043 21.7823 61.3562 21.7823 64.2575ZM59.4524 64.2575C59.4524 67.1588 57.1023 69.5107 54.2033 69.5107C51.3043 69.5107 48.9542 67.1588 48.9542 64.2575C48.9542 61.3562 51.3043 59.0043 54.2033 59.0043C57.1023 59.0043 59.4524 61.3562 59.4524 64.2575Z" stroke="#857067" stroke-width="3" stroke-linecap="round" stroke-linejoin="round"/>
</g>
</svg>
