<svg width="80" height="80" viewBox="0 0 80 80" fill="none" xmlns="http://www.w3.org/2000/svg">
<g id="&#208;&#184;&#208;&#186;&#208;&#190;&#208;&#189;&#208;&#186;&#208;&#184; &#208;&#191;&#209;&#128;&#208;&#181;&#208;&#184;&#208;&#188;&#209;&#131;&#209;&#137;&#208;&#181;&#209;&#129;&#209;&#130;&#208;&#178;&#208;&#176;">
<path id="Vector 23" d="M40.1914 60.2465C34.6464 59.8818 36.0818 55.4788 28.3664 52.3117C20.7734 49.1948 15.4522 55.0649 13.7407 58.3896C10.8881 58.2857 5.18306 59.8546 5.18306 66.961C5.18306 74.0675 10.8881 75.9481 13.7407 76H69.5984C74.4218 76 75.1997 73.5065 75.1997 71.6363C75.1997 69.7662 73.4882 66.961 69.5984 66.961C65.7086 66.961 63.2191 65.4026 61.352 63.3766C59.4849 61.3506 57.151 57.6104 45.326 59.7922C43.1136 60.2004 41.4676 60.3304 40.1914 60.2465ZM40.1914 60.2465C40.0585 58.7623 40.2036 56.4684 40.9851 54.026M48.4378 44.987C57.6178 40.1558 63.5303 39.2208 67.8869 32.0519M48.4378 44.987C44.2294 47.2018 42.034 50.7477 40.9851 54.026M48.4378 44.987C46.6744 40.2597 45.7927 30.4623 56.373 29.0909C66.9533 27.7195 73.0214 20.3117 74.733 16.7792C75.5628 23.5325 75.3553 38.6286 67.8869 44.987C58.5513 52.935 51.5497 49.6623 48.4378 44.987ZM40.9851 54.026C41.1873 50.8052 40.7827 43.5532 37.5463 40.3117M37.5463 40.3117C33.5009 36.2597 29.7667 32.987 24.7877 31.2727C20.8046 29.9013 16.9044 25.7143 15.4522 23.7922M37.5463 40.3117C39.7246 37.974 42.5875 31.3974 36.6128 23.7922C29.1443 14.2857 24.321 21.1429 16.2301 15.3766C9.75748 10.7636 6.89458 5.87013 6.27221 4C4.61255 10.5974 3.37819 26.1299 11.7179 35.4805C22.1427 47.1688 31.4782 47.013 37.5463 40.3117Z" stroke="#857067" stroke-width="3" stroke-linecap="round" stroke-linejoin="round"/>
</g>
</svg>
