<svg width="80" height="80" viewBox="0 0 80 80" fill="none" xmlns="http://www.w3.org/2000/svg">
<g id="&#208;&#184;&#208;&#186;&#208;&#190;&#208;&#189;&#208;&#186;&#208;&#184; &#208;&#191;&#209;&#128;&#208;&#181;&#208;&#184;&#208;&#188;&#209;&#131;&#209;&#137;&#208;&#181;&#209;&#129;&#209;&#130;&#208;&#178;&#208;&#176;">
<path id="Vector" d="M40.1331 10.1071C48.2903 10.1071 54.903 16.7269 54.903 24.8929M29.8585 35.5146C27.0864 32.8268 25.3633 29.0613 25.3633 24.8929M22.1573 35.5146C20.3182 32.4023 19.2628 28.771 19.2628 24.8929C19.2628 13.3541 28.6067 4 40.1331 4C51.6595 4 61.0035 13.3541 61.0035 24.8929C61.0035 28.771 59.9481 32.4023 58.109 35.5146M11.468 50.125C9.60381 53.6693 7.45612 58.4945 5.54642 63.0182C2.9194 69.2411 7.55402 76 14.3026 76H65.9637C72.7123 76 77.3469 69.2411 74.7198 63.0182C72.8101 58.4944 70.6625 53.6693 68.7983 50.125M11.468 50.125C13.1308 46.9636 14.5681 44.8214 15.4098 44.8214H64.8565C65.6982 44.8214 67.1354 46.9636 68.7983 50.125M11.468 50.125L35.3169 59.2857M68.7983 50.125L45.1099 59.2857M16.5335 44.8215H64.3749C66.9462 44.8215 69.0306 42.7348 69.0306 40.1607C69.0306 37.5867 66.9462 35.5 64.3749 35.5H16.5335C13.9623 35.5 11.8778 37.5867 11.8778 40.1607C11.8778 42.7348 13.9623 44.8215 16.5335 44.8215ZM44.9494 61.2143C44.9494 63.8771 42.7931 66.0357 40.1331 66.0357C37.4732 66.0357 35.3169 63.8771 35.3169 61.2143C35.3169 58.5515 37.4732 56.3929 40.1331 56.3929C42.7931 56.3929 44.9494 58.5515 44.9494 61.2143Z" stroke="#857067" stroke-width="3" stroke-linecap="round" stroke-linejoin="round"/>
</g>
</svg>
