<svg width="24" height="14" fill="none" xmlns="http://www.w3.org/2000/svg"><path fill-rule="evenodd" clip-rule="evenodd" d="M11.742 13.445h1.435s.433-.045.655-.271c.203-.208.197-.598.197-.598s-.028-1.828.865-2.097c.88-.265 2.012 1.766 3.21 2.547.907.591 1.595.462 1.595.462l3.205-.043s1.677-.098.882-1.35c-.065-.102-.463-.925-2.383-2.617-2.01-1.771-1.74-1.485.68-4.548 1.475-1.866 2.064-3.005 1.88-3.493-.176-.465-1.26-.342-1.26-.342l-3.609.021s-.268-.034-.466.078c-.194.11-.318.368-.318.368s-.572 1.444-1.333 2.672c-1.607 2.59-2.25 2.727-2.512 2.566-.611-.375-.459-1.506-.459-2.31 0-2.51.401-3.557-.78-3.828-.393-.09-.682-.15-1.685-.16C10.253.49 9.164.508 8.546.795c-.41.19-.727.616-.534.64.239.03.779.139 1.065.509.37.477.357 1.55.357 1.55s.213 2.956-.496 3.323c-.487.252-1.154-.263-2.587-2.613C5.618 3 5.063 1.669 5.063 1.669s-.106-.249-.297-.382c-.231-.16-.554-.212-.554-.212l-3.43.021s-.514.014-.704.226c-.168.19-.013.58-.013.58s2.685 5.964 5.725 8.97c2.787 2.755 5.952 2.574 5.952 2.574z" fill="#4C75A3"/></svg>