<svg width="20" height="20" fill="none" xmlns="http://www.w3.org/2000/svg"><path fill-rule="evenodd" clip-rule="evenodd" d="M0 20l4.914-1.323c1.847.896 6.372 2.19 9.704.207 4.164-2.48 6.746-6.902 4.622-12.771C17.116.244 10.412-.665 7.163.368 3.915 1.401-2.582 5.906 1.166 14.916L0 20zM5.122 6.919c-.208 1.405-.312 3.451 2 5.848 2.31 2.397 5.205 2.46 6.288 2.15 1.083-.31 2.457-2.15 1.083-3.204-1.343-1.03-1.513-.915-2.413-.312l-.065.044c-.958.64-1.52.165-2.332-.662a26.556 26.556 0 00-.267-.265c-.77-.761-1.624-1.606-.879-2.4.833-.89.792-1.84 0-2.522-.79-.682-1.603-.992-2.56 0-.767.794-.89 1.213-.855 1.323z" fill="#41C051"/></svg>