<svg width="20" height="20" viewBox="0 0 20 20" fill="none" xmlns="http://www.w3.org/2000/svg">
<path id="&#208;&#184;&#208;&#186;&#208;&#190;&#208;&#189;&#208;&#186;&#208;&#176;" fill-rule="evenodd" clip-rule="evenodd" d="M0 20L4.91422 18.6774C6.76052 19.5729 11.286 20.8679 14.6177 18.8841C18.7823 16.4043 21.3643 11.9819 19.2404 6.113C17.1164 0.244081 10.4115 -0.665186 7.16309 0.368074C3.91471 1.40133 -2.58204 5.90634 1.16608 14.9164L0 20ZM5.12244 6.91894C4.91421 8.32417 4.8101 10.37 7.12144 12.7672C9.43279 15.1643 12.3272 15.2263 13.41 14.9164C14.4928 14.6064 15.8671 12.7672 14.4928 11.7133C13.1504 10.6838 12.9801 10.7979 12.0804 11.4007L12.0148 11.4446C11.057 12.0852 10.4948 11.6099 9.68266 10.7833C9.59692 10.6961 9.50724 10.6074 9.41638 10.5176C8.64663 9.75669 7.79243 8.91231 8.53741 8.11752C9.37032 7.22891 9.32868 6.27832 8.53741 5.59636C7.74613 4.91441 6.93404 4.60444 5.97618 5.59636C5.2099 6.38991 5.08774 6.80872 5.12244 6.91894Z" fill="#41C051"/>
</svg>
