<svg width="81" height="80" fill="none" xmlns="http://www.w3.org/2000/svg"><g stroke="#179860" stroke-width="3" stroke-linecap="round" stroke-linejoin="round"><path d="M4.5 27.145h72v9.407h-72v-9.407zM40.5 3.2l33.429 23.945H7.07L40.5 3.2zm-6 33.352h12v2.565a2.569 2.569 0 01-2.571 2.566H37.07a2.569 2.569 0 01-2.571-2.566v-2.565zm0 31.641h12v-2.565a2.568 2.568 0 00-2.571-2.566H37.07a2.568 2.568 0 00-2.571 2.566v2.565z"/><path d="M36.214 63.062h8.572V41.683h-8.572v21.38zm23.143-26.51h12v2.565a2.568 2.568 0 01-2.571 2.566h-6.857a2.569 2.569 0 01-2.572-2.566v-2.565zm0 31.641h12v-2.565a2.568 2.568 0 00-2.571-2.566h-6.857a2.568 2.568 0 00-2.572 2.566v2.565z"/><path d="M61.071 63.062h8.572V41.683H61.07v21.38zM9.643 36.552h12v2.565a2.569 2.569 0 01-2.572 2.566h-6.857a2.569 2.569 0 01-2.571-2.566v-2.565zm0 31.641h12v-2.565a2.568 2.568 0 00-2.572-2.566h-6.857a2.568 2.568 0 00-2.571 2.566v2.565z"/><path d="M11.357 63.062h8.572V41.683h-8.572v21.38zM4.5 72.47a4.28 4.28 0 014.286-4.277h63.428A4.28 4.28 0 0176.5 72.47v5.13h-72v-5.13z"/></g></svg>