<svg width="24" height="14" viewBox="0 0 24 14" fill="none" xmlns="http://www.w3.org/2000/svg">
<path id="&#208;&#184;&#208;&#186;&#208;&#190;&#208;&#189;&#208;&#186;&#208;&#176;" fill-rule="evenodd" clip-rule="evenodd" d="M11.7425 13.4455H13.177C13.177 13.4455 13.6102 13.4001 13.8317 13.1739C14.0353 12.9659 14.0288 12.5756 14.0288 12.5756C14.0288 12.5756 14.0008 10.748 14.894 10.4789C15.7748 10.2136 16.9057 12.2452 18.1042 13.0264C19.0106 13.6174 19.6994 13.488 19.6994 13.488L22.9045 13.4455C22.9045 13.4455 24.5811 13.3473 23.7861 12.0957C23.721 11.9934 23.3229 11.1698 21.4029 9.47771C19.393 7.70662 19.6625 7.99316 22.0833 4.92963C23.5576 3.06394 24.1469 1.92499 23.9628 1.43721C23.7873 0.972448 22.7029 1.09522 22.7029 1.09522L19.0942 1.1164C19.0942 1.1164 18.8265 1.08182 18.6282 1.19448C18.4342 1.30465 18.3098 1.56206 18.3098 1.56206C18.3098 1.56206 17.7384 3.00568 16.9769 4.23362C15.37 6.82429 14.7274 6.96142 14.4647 6.8003C13.8536 6.42533 14.0063 5.29425 14.0063 4.49047C14.0063 1.97972 14.4074 0.932889 13.2253 0.661915C12.8331 0.572044 12.5441 0.512585 11.5409 0.502876C10.2532 0.490439 9.16355 0.506648 8.54644 0.793671C8.13588 0.984565 7.81913 1.40984 8.01216 1.43432C8.25073 1.46449 8.79076 1.57273 9.07709 1.94265C9.447 2.42048 9.43407 3.49315 9.43407 3.49315C9.43407 3.49315 9.64662 6.44868 8.93782 6.8157C8.45145 7.0675 7.78414 6.55347 6.3515 4.20304C5.6176 2.9991 5.06328 1.66814 5.06328 1.66814C5.06328 1.66814 4.95654 1.41947 4.76589 1.28635C4.53466 1.12507 4.21157 1.07395 4.21157 1.07395L0.78225 1.09522C0.78225 1.09522 0.267571 1.10886 0.0784334 1.32142C-0.0898297 1.51063 0.0649971 1.90148 0.0649971 1.90148C0.0649971 1.90148 2.7496 7.86518 5.78966 10.8705C8.57746 13.6263 11.7425 13.4455 11.7425 13.4455Z" fill="#4C75A3"/>
</svg>
