<svg width="80" height="80" viewBox="0 0 80 80" fill="none" xmlns="http://www.w3.org/2000/svg">
<g id="&#208;&#184;&#208;&#186;&#208;&#190;&#208;&#189;&#208;&#186;&#208;&#184; &#208;&#191;&#209;&#128;&#208;&#181;&#208;&#184;&#208;&#188;&#209;&#131;&#209;&#137;&#208;&#181;&#209;&#129;&#209;&#130;&#208;&#178;&#208;&#176;">
<path id="Vector" d="M23.3099 14.151L17.183 12.5165M35.3571 17.3252L29.2302 15.6906M69.5202 24.8676L75.1998 26.3829L70.4846 44.1003L59.5622 41.1864M32.8761 40.737V51.2414M18.7682 64.2554L28.9132 58.7007M6.08692 51.8763H11.7935C15.2953 51.8763 18.1341 54.7185 18.1341 58.2246V69.6516C18.1341 73.1577 15.2953 76 11.7935 76H6.08692V51.8763ZM37.156 56.3201C37.156 58.7744 35.1688 60.764 32.7176 60.764C30.2663 60.764 28.2791 58.7744 28.2791 56.3201C28.2791 53.8658 30.2663 51.8763 32.7176 51.8763C35.1688 51.8763 37.156 53.8658 37.156 56.3201ZM12.3733 4L70.4803 19.502L67.5098 30.6636C67.0589 32.3575 65.3219 33.3648 63.6301 32.9135L21.6934 21.7255L17.9066 35.9542L4.7998 32.4575L12.3733 4ZM21.6972 21.7108L61.4546 32.3174L57.6653 46.5557L17.9079 35.9491L21.6972 21.7108Z" stroke="#857067" stroke-width="3" stroke-linecap="round" stroke-linejoin="round"/>
</g>
</svg>
