<svg width="30" height="30" viewBox="0 0 30 30" fill="none" xmlns="http://www.w3.org/2000/svg">
<g id="&#208;&#184;&#208;&#186;&#208;&#190;&#208;&#189;&#208;&#186;&#208;&#176;" clip-path="url(#clip0_465_439)">
<path id="Vector" d="M13.0457 22.1423V18.0112M13.0457 28.6363V24.1282M17.1068 18.0112V28.6363M11.2345 13.7551L12.9088 16.7144M11.2345 13.7551L6.65379 16.2708M11.2345 13.7551L10.6555 12.7328C10.3371 12.1689 9.60802 11.9658 9.03728 12.2795L6.53499 13.6543C5.96261 13.9679 5.75637 14.6846 6.07477 15.2469L6.65379 16.2708M8.32807 19.2301L6.65379 16.2708M5.74486 16.7713C-2.17615 17.6976 0.557108 8.01349 7.31027 13.2269M10.5219 18.0112H22.6657C22.9989 18.0112 23.2727 18.281 23.2727 18.6093V27.5669C23.2727 28.1552 22.7845 28.6363 22.1873 28.6363H7.9651C7.36799 28.6363 6.87976 28.1552 6.87976 27.5669V20.0264M5.9296 14.5839C5.24506 14.3385 4.71883 14.2101 3.80003 14.111M8.87567 8.83256C8.37752 9.68087 8.11525 10.9403 8.31151 12.6776M12.1945 13.2285C15.4227 9.22908 12.4073 6.64516 10.1656 7.6381M10.2085 12.2876C10.2563 11.6928 10.5499 10.7973 10.9194 10.1993M21.5292 8.15656C21.5292 8.15656 22.1164 13.4999 20.1436 15.6077M24.4538 9.76699C24.4538 9.76699 25.305 6.07148 29.0906 5.18092M3.46853 21.9001L17.7683 14.0459C18.1691 13.8249 18.3143 13.3227 18.0915 12.9279L17.2289 11.4035C17.0046 11.0086 16.4948 10.8656 16.094 11.0866L1.79261 18.9408C1.3934 19.1602 1.24823 19.6624 1.47092 20.0572L2.33363 21.5832C2.55637 21.9765 3.06768 22.1195 3.46853 21.9001ZM18.0405 2.12733L17.3856 3.20477C17.3147 3.3218 17.3048 3.3608 17.1579 3.39652L15.8614 3.71345C15.6107 3.77521 15.5975 3.83204 15.7691 4.02385L16.6054 5.01516C16.6944 5.12079 16.7077 5.2443 16.6961 5.3938L16.5955 6.61917C16.5674 6.87267 16.6219 6.90352 16.8627 6.80768L18.0025 6.33962C18.1213 6.29089 18.3077 6.29089 18.4248 6.33962L19.5663 6.80768C19.8071 6.90352 19.8599 6.87267 19.8318 6.61917L19.7329 5.3938C19.7214 5.2443 19.7329 5.12079 19.8236 5.01516L20.6583 4.02385C20.8298 3.83204 20.8183 3.77521 20.5659 3.71345L19.2694 3.39652C19.1226 3.3608 19.1143 3.3218 19.0418 3.20477L18.3869 2.12733C18.2549 1.90792 18.1741 1.90792 18.0405 2.12733ZM26.359 11.7626L25.7024 12.8401C25.6315 12.9571 25.6216 12.9961 25.4765 13.0318L24.1799 13.3488C23.9275 13.4105 23.9144 13.4674 24.0876 13.6592L24.9222 14.6505C25.0129 14.7561 25.0245 14.8796 25.0129 15.0291L24.9124 16.2529C24.8859 16.508 24.9387 16.5388 25.1795 16.443L26.3194 15.9749C26.4381 15.9262 26.6245 15.9262 26.7433 15.9749L27.8831 16.443C28.1239 16.5388 28.1768 16.508 28.1503 16.2529L28.0497 15.0291C28.0382 14.8796 28.0497 14.7561 28.1405 14.6505L28.9751 13.6592C29.1483 13.4674 29.1351 13.4105 28.8828 13.3488L27.5862 13.0318C27.4411 12.9961 27.4311 12.9571 27.3602 12.8401L26.7054 11.7626C26.5717 11.5432 26.4909 11.5432 26.359 11.7626ZM24.98 4.71617C25.9186 4.71617 26.6824 3.96371 26.6824 3.04069C26.6824 2.11598 25.9186 1.36353 24.98 1.36353C24.0431 1.36353 23.2777 2.11598 23.2777 3.04069C23.2777 3.96371 24.0431 4.71617 24.98 4.71617Z" stroke="#179860" stroke-width="1.5" stroke-miterlimit="10" stroke-linecap="round" stroke-linejoin="round"/>
</g>
<defs>
<clipPath id="clip0_465_439">
<rect width="30" height="30" fill="white"/>
</clipPath>
</defs>
</svg>
