<svg width="82" height="40" viewBox="0 0 82 40" fill="none" xmlns="http://www.w3.org/2000/svg">
<g id="&#208;&#187;&#208;&#190;&#208;&#179;&#208;&#190;&#209;&#130;&#208;&#184;&#208;&#191;">
<path id="Union" fill-rule="evenodd" clip-rule="evenodd" d="M40.6096 1.73914C39.0324 1.73914 37.7539 3.01767 37.7539 4.59482C37.7539 6.17196 39.0324 7.45049 40.6096 7.45049H41.3774C42.9545 7.45049 44.2331 6.17196 44.2331 4.59482C44.2331 3.01767 42.9545 1.73914 41.3774 1.73914H40.6096ZM46.9611 10.0466V30.1229H53.4403V18.7001C53.4403 17.7482 54.0712 15.8445 56.5946 15.8445C59.1181 15.8445 60.1468 16.0175 60.3457 16.1041L61.0277 9.70042C59.7489 9.49851 56.8163 9.47543 55.3158 10.9985C53.8154 12.5215 53.213 13.2484 53.0993 13.4215L51.7352 10.0466H46.9611ZM37.7539 10.0466H44.2331V30.1229H37.7539V10.0466ZM81.9997 16.1041V30.1229H77.4814L76.2879 27.0076C72.7925 30.8151 69.8087 31.0748 66.6544 29.6036C63.5 28.1325 62.477 24.1519 64.6083 20.4309C66.3134 17.454 72.6504 17.1713 75.6058 17.4021C75.6058 16.306 75.0943 14.1137 73.0483 14.1137C71.0022 14.1137 68.4447 15.0368 67.4216 15.4983L65.6313 11.3446C67.0522 10.7965 70.7465 9.70042 74.1565 9.70042C80.4311 9.70042 81.9997 13.9695 81.9997 16.1041ZM75.6058 20.9501C75.6627 22.1616 75.3671 24.775 73.7303 25.5365C71.6842 26.4884 69.9792 25.7095 69.7234 24.0654C69.4677 22.4212 70.7465 20.9501 75.6058 20.9501Z" fill="#2E2D2D"/>
<g id="Union_2">
<path d="M35.0208 0.100314C32.4991 -0.0444565 27.1666 -0.1429 26.0106 0.621488C24.5656 1.57697 24.4806 3.05363 25.6706 3.8354C26.1576 4.15531 26.4738 3.86428 26.9687 3.40875C27.6831 2.75113 28.7699 1.7507 31.2808 1.7507C29.6091 2.50351 26.4867 4.54767 27.3707 6.70185C28.4757 9.39459 31.1958 7.65734 31.7058 6.70185C31.8396 6.45109 31.9501 6.0388 32.0878 5.52464C32.4748 4.07966 33.0773 1.8301 35.0208 0.100314Z" fill="#179860"/>
<path d="M7.8202 0.100314H0L17.5592 32L21.5002 24.9525L7.8202 0.100314Z" fill="#179860"/>
<path d="M19.5505 0.100314L27.4115 14.3813L23.4705 21.4288L11.7303 0.100314H19.5505Z" fill="#179860"/>
</g>
<g id="&#226;&#128;&#148; eco-friendly homes &#226;&#128;&#148;">
<path d="M3.58789 37.9174H8.87626V38.2739H3.58789V37.9174Z" fill="#2E2D2D"/>
<path d="M10.815 39.9062V35.5721H13.2721V35.9411H11.2327V37.4483H13.0509V37.8111H11.2327V39.5372H13.4318V39.9062H10.815Z" fill="#2E2D2D"/>
<path d="M15.8893 40C15.6149 40 15.359 39.95 15.1215 39.8499C14.8881 39.7498 14.6833 39.6039 14.5072 39.4121C14.3352 39.2203 14.1981 38.9848 14.0957 38.7054C13.9974 38.4219 13.9483 38.0988 13.9483 37.736C13.9483 37.3733 14.0015 37.0522 14.108 36.7729C14.2185 36.4894 14.3639 36.2517 14.5441 36.0599C14.7243 35.8681 14.9331 35.7243 15.1706 35.6284C15.4081 35.5283 15.6559 35.4783 15.9139 35.4783C16.0736 35.4783 16.2189 35.4887 16.35 35.5095C16.481 35.5304 16.5957 35.5575 16.694 35.5908C16.7923 35.62 16.8762 35.6513 16.9458 35.6847C17.0154 35.7138 17.0687 35.7409 17.1055 35.766L16.9704 36.135C16.868 36.0724 16.737 36.012 16.5773 35.9536C16.4217 35.891 16.2271 35.8598 15.9937 35.8598C15.7275 35.8598 15.4941 35.9056 15.2935 35.9974C15.0969 36.0891 14.9311 36.2183 14.7959 36.3851C14.6608 36.5519 14.5584 36.7499 14.4888 36.9793C14.4233 37.2086 14.3905 37.4629 14.3905 37.7423C14.3905 38.03 14.4233 38.2905 14.4888 38.524C14.5584 38.7534 14.6587 38.9493 14.7898 39.1119C14.9208 39.2745 15.0805 39.3996 15.2689 39.4872C15.4614 39.5747 15.6805 39.6185 15.9262 39.6185C16.1964 39.6185 16.4217 39.5935 16.6018 39.5435C16.7861 39.4893 16.9253 39.4351 17.0195 39.3809L17.1362 39.7436C17.1076 39.7644 17.0584 39.7895 16.9888 39.8186C16.9192 39.8437 16.8312 39.8708 16.7247 39.8999C16.6182 39.9291 16.4954 39.9521 16.3561 39.9687C16.2169 39.9896 16.0613 40 15.8893 40Z" fill="#2E2D2D"/>
<path d="M21.63 37.736C21.63 38.1071 21.5768 38.4344 21.4703 38.7179C21.3638 39.0014 21.2185 39.2391 21.0342 39.4309C20.854 39.6185 20.6431 39.7603 20.4015 39.8562C20.1599 39.9521 19.904 40 19.6337 40C19.3634 40 19.1075 39.9521 18.8659 39.8562C18.6243 39.7603 18.4113 39.6185 18.2271 39.4309C18.0469 39.2391 17.9036 39.0014 17.7971 38.7179C17.6906 38.4344 17.6374 38.1071 17.6374 37.736C17.6374 37.3649 17.6906 37.0397 17.7971 36.7604C17.9036 36.4768 18.0469 36.2413 18.2271 36.0537C18.4113 35.8619 18.6243 35.718 18.8659 35.6221C19.1075 35.5262 19.3634 35.4783 19.6337 35.4783C19.904 35.4783 20.1599 35.5262 20.4015 35.6221C20.6431 35.718 20.854 35.8619 21.0342 36.0537C21.2185 36.2413 21.3638 36.4768 21.4703 36.7604C21.5768 37.0397 21.63 37.3649 21.63 37.736ZM21.1878 37.736C21.1878 37.4442 21.1509 37.1836 21.0772 36.9542C21.0035 36.7208 20.8991 36.5227 20.7639 36.3601C20.6288 36.1975 20.465 36.0745 20.2725 35.9911C20.0842 35.9036 19.8712 35.8598 19.6337 35.8598C19.3962 35.8598 19.1812 35.9036 18.9887 35.9911C18.8004 36.0745 18.6386 36.1975 18.5035 36.3601C18.3683 36.5227 18.2639 36.7208 18.1902 36.9542C18.1165 37.1836 18.0796 37.4442 18.0796 37.736C18.0796 38.0279 18.1165 38.2905 18.1902 38.524C18.2639 38.7534 18.3683 38.9493 18.5035 39.1119C18.6386 39.2745 18.8004 39.3996 18.9887 39.4872C19.1812 39.5747 19.3962 39.6185 19.6337 39.6185C19.8712 39.6185 20.0842 39.5747 20.2725 39.4872C20.465 39.3996 20.6288 39.2745 20.7639 39.1119C20.8991 38.9493 21.0035 38.7534 21.0772 38.524C21.1509 38.2905 21.1878 38.0279 21.1878 37.736Z" fill="#2E2D2D"/>
<path d="M22.1854 37.8986H23.5736V38.2926H22.1854V37.8986Z" fill="#2E2D2D"/>
<path d="M24.2998 39.9062V35.5721H26.7261V35.9411H24.7175V37.4671H26.4988V37.8361H24.7175V39.9062H24.2998Z" fill="#2E2D2D"/>
<path d="M30.3289 36.8729C30.3289 37.1982 30.245 37.4546 30.0771 37.6422C29.9092 37.8298 29.688 37.9653 29.4137 38.0487C29.4792 38.1321 29.5631 38.2447 29.6655 38.3864C29.772 38.5282 29.8805 38.6846 29.9911 38.8555C30.1016 39.0223 30.2101 39.1974 30.3166 39.3809C30.4231 39.5643 30.5132 39.7394 30.5869 39.9062H30.1385C30.0525 39.7394 29.9583 39.5726 29.8559 39.4059C29.7576 39.2391 29.6553 39.0786 29.5488 38.9243C29.4464 38.7659 29.3461 38.6199 29.2478 38.4865C29.1495 38.3531 29.0635 38.2363 28.9898 38.1363C28.8588 38.1488 28.7278 38.155 28.5967 38.155H27.9087V39.9062H27.4911V35.6534C27.6385 35.6117 27.8105 35.5825 28.007 35.5658C28.2077 35.545 28.392 35.5346 28.5599 35.5346C29.1454 35.5346 29.5857 35.6471 29.8805 35.8723C30.1794 36.0974 30.3289 36.431 30.3289 36.8729ZM28.609 35.9036C28.4534 35.9036 28.3162 35.9098 28.1974 35.9223C28.0828 35.9307 27.9865 35.939 27.9087 35.9473V37.7923H28.4861C28.6786 37.7923 28.8608 37.784 29.0328 37.7673C29.2048 37.7464 29.3543 37.7047 29.4812 37.6422C29.6082 37.5755 29.7085 37.4817 29.7822 37.3608C29.8559 37.2399 29.8928 37.0752 29.8928 36.8667C29.8928 36.6749 29.8559 36.5165 29.7822 36.3914C29.7085 36.2663 29.6123 36.1683 29.4935 36.0974C29.3748 36.0224 29.2376 35.9723 29.082 35.9473C28.9305 35.9181 28.7728 35.9036 28.609 35.9036Z" fill="#2E2D2D"/>
<path d="M31.2881 35.5721H31.7058V39.9062H31.2881V35.5721Z" fill="#2E2D2D"/>
<path d="M32.8118 39.9062V35.5721H35.2688V35.9411H33.2295V37.4483H35.0477V37.8111H33.2295V39.5372H35.4285V39.9062H32.8118Z" fill="#2E2D2D"/>
<path d="M39.1182 39.9062C39.0404 39.7603 38.9401 39.5893 38.8173 39.3934C38.6985 39.1974 38.5675 38.9889 38.4241 38.7679C38.2808 38.5428 38.1293 38.3135 37.9696 38.08C37.8099 37.8423 37.6502 37.613 37.4905 37.392C37.3349 37.1669 37.1813 36.9563 37.0298 36.7604C36.8824 36.5644 36.7493 36.3955 36.6305 36.2538V39.9062H36.219V35.5721H36.5507C36.7595 35.8097 36.9827 36.0849 37.2202 36.3976C37.4618 36.7062 37.6973 37.023 37.9266 37.3483C38.1559 37.6693 38.3689 37.9841 38.5654 38.2926C38.7661 38.6012 38.9299 38.8701 39.0568 39.0994V35.5721H39.4684V39.9062H39.1182Z" fill="#2E2D2D"/>
<path d="M43.9523 37.736C43.9523 38.1071 43.895 38.4302 43.7803 38.7054C43.6657 38.9806 43.5039 39.2099 43.2951 39.3934C43.0903 39.5768 42.8446 39.7144 42.558 39.8061C42.2713 39.8979 41.956 39.9437 41.612 39.9437C41.44 39.9437 41.2598 39.9333 41.0715 39.9125C40.8831 39.8958 40.7173 39.8687 40.5739 39.8311V35.6534C40.7173 35.6117 40.8831 35.5825 41.0715 35.5658C41.2598 35.545 41.44 35.5346 41.612 35.5346C41.956 35.5346 42.2713 35.5804 42.558 35.6721C42.8446 35.7639 43.0903 35.9015 43.2951 36.0849C43.5039 36.2684 43.6657 36.4977 43.7803 36.7729C43.895 37.0481 43.9523 37.3691 43.9523 37.736ZM40.9916 39.531C41.0162 39.5351 41.0776 39.5435 41.1759 39.556C41.2783 39.5685 41.44 39.5747 41.6612 39.5747C41.9683 39.5747 42.2365 39.533 42.4658 39.4496C42.6951 39.3621 42.8876 39.2391 43.0432 39.0807C43.1988 38.9222 43.3155 38.7304 43.3933 38.5053C43.4712 38.276 43.5101 38.0195 43.5101 37.736C43.5101 37.4525 43.4712 37.1982 43.3933 36.973C43.3155 36.7479 43.1988 36.5561 43.0432 36.3976C42.8876 36.2392 42.6951 36.1183 42.4658 36.0349C42.2365 35.9473 41.9683 35.9036 41.6612 35.9036C41.44 35.9036 41.2783 35.9098 41.1759 35.9223C41.0776 35.9348 41.0162 35.9432 40.9916 35.9473V39.531Z" fill="#2E2D2D"/>
<path d="M47.3071 39.5372V39.9062H44.8869V35.5721H45.3046V39.5372H47.3071Z" fill="#2E2D2D"/>
<path d="M48.3353 39.9062V38.1238C48.0445 37.6693 47.7763 37.2315 47.5306 36.8104C47.289 36.3851 47.0638 35.9723 46.8549 35.5721H47.3402C47.5122 35.939 47.7005 36.3122 47.9053 36.6916C48.1141 37.0668 48.3312 37.4254 48.5564 37.7673C48.7734 37.4254 48.9864 37.0668 49.1952 36.6916C49.4041 36.3122 49.5965 35.939 49.7726 35.5721H50.2272C50.0101 35.9682 49.7808 36.381 49.5392 36.8104C49.2976 37.2357 49.0355 37.6693 48.7529 38.1113V39.9062H48.3353Z" fill="#2E2D2D"/>
<path d="M54.9684 35.5721H55.3861V39.9062H54.9684V37.8236H52.6588V39.9062H52.2411V35.5721H52.6588V37.4546H54.9684V35.5721Z" fill="#2E2D2D"/>
<path d="M60.3148 37.736C60.3148 38.1071 60.2615 38.4344 60.1551 38.7179C60.0486 39.0014 59.9032 39.2391 59.7189 39.4309C59.5388 39.6185 59.3279 39.7603 59.0863 39.8562C58.8447 39.9521 58.5887 40 58.3185 40C58.0482 40 57.7922 39.9521 57.5506 39.8562C57.309 39.7603 57.0961 39.6185 56.9118 39.4309C56.7316 39.2391 56.5883 39.0014 56.4818 38.7179C56.3754 38.4344 56.3221 38.1071 56.3221 37.736C56.3221 37.3649 56.3754 37.0397 56.4818 36.7604C56.5883 36.4768 56.7316 36.2413 56.9118 36.0537C57.0961 35.8619 57.309 35.718 57.5506 35.6221C57.7922 35.5262 58.0482 35.4783 58.3185 35.4783C58.5887 35.4783 58.8447 35.5262 59.0863 35.6221C59.3279 35.718 59.5388 35.8619 59.7189 36.0537C59.9032 36.2413 60.0486 36.4768 60.1551 36.7604C60.2615 37.0397 60.3148 37.3649 60.3148 37.736ZM59.8725 37.736C59.8725 37.4442 59.8357 37.1836 59.7619 36.9542C59.6882 36.7208 59.5838 36.5227 59.4487 36.3601C59.3135 36.1975 59.1497 36.0745 58.9573 35.9911C58.7689 35.9036 58.556 35.8598 58.3185 35.8598C58.0809 35.8598 57.866 35.9036 57.6735 35.9911C57.4851 36.0745 57.3234 36.1975 57.1882 36.3601C57.0531 36.5227 56.9487 36.7208 56.875 36.9542C56.8012 37.1836 56.7644 37.4442 56.7644 37.736C56.7644 38.0279 56.8012 38.2905 56.875 38.524C56.9487 38.7534 57.0531 38.9493 57.1882 39.1119C57.3234 39.2745 57.4851 39.3996 57.6735 39.4872C57.866 39.5747 58.0809 39.6185 58.3185 39.6185C58.556 39.6185 58.7689 39.5747 58.9573 39.4872C59.1497 39.3996 59.3135 39.2745 59.4487 39.1119C59.5838 38.9493 59.6882 38.7534 59.7619 38.524C59.8357 38.2905 59.8725 38.0279 59.8725 37.736Z" fill="#2E2D2D"/>
<path d="M63.1613 39.2808C63.1204 39.1765 63.061 39.039 62.9832 38.868C62.9095 38.6971 62.8255 38.5115 62.7313 38.3114C62.6371 38.1071 62.5409 37.8986 62.4426 37.686C62.3444 37.4692 62.2502 37.267 62.1601 37.0793C62.07 36.8917 61.9901 36.727 61.9205 36.5853C61.8509 36.4435 61.7997 36.3434 61.767 36.2851C61.7137 36.8062 61.6707 37.3733 61.638 37.9862C61.6093 38.5949 61.5827 39.2349 61.5581 39.9062H61.1466C61.1834 39.1182 61.2244 38.3635 61.2694 37.6422C61.3186 36.9209 61.3779 36.2309 61.4475 35.5721H61.8161C61.9389 35.7806 62.07 36.0224 62.2092 36.2976C62.3484 36.5686 62.4856 36.8521 62.6208 37.1481C62.76 37.44 62.8931 37.7298 63.02 38.0174C63.1511 38.301 63.2657 38.5574 63.364 38.7867C63.4623 38.5574 63.5749 38.301 63.7019 38.0174C63.8329 37.7298 63.966 37.44 64.1011 37.1481C64.2403 36.8521 64.3796 36.5686 64.5188 36.2976C64.658 36.0224 64.7891 35.7806 64.9119 35.5721H65.2621C65.3317 36.2309 65.389 36.9209 65.434 37.6422C65.4832 38.3635 65.5262 39.1182 65.563 39.9062H65.1392C65.1146 39.2349 65.086 38.5949 65.0532 37.9862C65.0245 37.3733 64.9836 36.8062 64.9304 36.2851C64.8976 36.3434 64.8464 36.4435 64.7768 36.5853C64.7072 36.727 64.6273 36.8917 64.5372 37.0793C64.4471 37.267 64.353 37.4692 64.2547 37.686C64.1564 37.8986 64.0602 38.1071 63.966 38.3114C63.8718 38.5115 63.7858 38.6971 63.708 38.868C63.6343 39.039 63.577 39.1765 63.536 39.2808H63.1613Z" fill="#2E2D2D"/>
<path d="M66.5657 39.9062V35.5721H69.0227V35.9411H66.9834V37.4483H68.8016V37.8111H66.9834V39.5372H69.1824V39.9062H66.5657Z" fill="#2E2D2D"/>
<path d="M70.8881 39.631C71.2198 39.631 71.4778 39.5706 71.6621 39.4496C71.8464 39.3246 71.9385 39.1244 71.9385 38.8492C71.9385 38.6908 71.9078 38.5595 71.8464 38.4552C71.789 38.3468 71.7112 38.2572 71.613 38.1863C71.5147 38.1113 71.4021 38.0487 71.2751 37.9987C71.1482 37.9445 71.0151 37.8882 70.8758 37.8298C70.6998 37.7589 70.5421 37.686 70.4029 37.6109C70.2636 37.5359 70.1449 37.4525 70.0466 37.3608C69.9483 37.2649 69.8726 37.1565 69.8193 37.0356C69.7702 36.9146 69.7456 36.7729 69.7456 36.6103C69.7456 36.2392 69.8664 35.9578 70.108 35.766C70.3496 35.5742 70.6854 35.4783 71.1154 35.4783C71.2301 35.4783 71.3427 35.4866 71.4532 35.5033C71.5638 35.52 71.6662 35.5429 71.7604 35.5721C71.8587 35.5971 71.9467 35.6263 72.0245 35.6596C72.1064 35.693 72.174 35.7284 72.2272 35.766L72.0798 36.1224C71.961 36.0391 71.8157 35.9723 71.6437 35.9223C71.4758 35.8723 71.2935 35.8473 71.097 35.8473C70.9618 35.8473 70.837 35.8619 70.7223 35.891C70.6117 35.9161 70.5155 35.9598 70.4336 36.0224C70.3517 36.0808 70.2862 36.1558 70.237 36.2475C70.192 36.3393 70.1695 36.4497 70.1695 36.579C70.1695 36.7124 70.194 36.825 70.2432 36.9167C70.2923 37.0084 70.3599 37.0877 70.4459 37.1544C70.536 37.2211 70.6404 37.2815 70.7591 37.3357C70.8779 37.39 71.0069 37.4462 71.1461 37.5046C71.314 37.5755 71.4717 37.6464 71.6191 37.7173C71.7706 37.7881 71.9017 37.8715 72.0122 37.9674C72.1228 38.0633 72.2108 38.1801 72.2763 38.3176C72.3419 38.4552 72.3746 38.6241 72.3746 38.8242C72.3746 39.2162 72.2395 39.5101 71.9692 39.7061C71.703 39.902 71.3406 40 70.882 40C70.7182 40 70.5687 39.9896 70.4336 39.9687C70.2984 39.9479 70.1777 39.9229 70.0712 39.8937C69.9647 39.8603 69.8746 39.827 69.8009 39.7936C69.7272 39.7603 69.6699 39.7311 69.6289 39.7061L69.7641 39.3371C69.805 39.3621 69.8603 39.3913 69.9299 39.4246C69.9995 39.458 70.0814 39.4913 70.1756 39.5247C70.2698 39.5539 70.3763 39.5789 70.495 39.5997C70.6138 39.6206 70.7448 39.631 70.8881 39.631Z" fill="#2E2D2D"/>
<path d="M73.9787 37.9174H79.2671V38.2739H73.9787V37.9174Z" fill="#2E2D2D"/>
</g>
</g>
</svg>
