<svg width="80" height="80" viewBox="0 0 80 80" fill="none" xmlns="http://www.w3.org/2000/svg">
<g id="&#208;&#184;&#208;&#186;&#208;&#190;&#208;&#189;&#208;&#186;&#208;&#184; &#208;&#190;&#208;&#191;&#208;&#187;&#208;&#176;&#209;&#130;&#208;&#176;">
<path id="Vector" d="M17.6366 11.6729H12.4184C9.53646 11.6729 7.2002 14.0092 7.2002 16.8911V67.582C7.2002 70.4639 9.53645 72.8002 12.4184 72.8002H67.582C70.4639 72.8002 72.8002 70.4639 72.8002 67.582V16.8911C72.8002 14.0092 70.4639 11.6729 67.582 11.6729H62.3638M22.8547 11.6729H57.1457M7.2002 22.8547H72.8002M7.2002 37.0184H72.8002M40.0002 22.8547L40.0002 65.3457M55.6547 22.8547V65.3457M28.8184 44.1002L31.0547 46.3366L35.9002 41.4911M44.4729 57.5184L46.7093 59.7547L51.5547 54.9093M60.8729 29.1911L63.1093 31.4275L67.9547 26.582M24.3457 22.8547L24.3457 65.3457M7.2002 51.182H72.8002M7.2002 65.3457H72.8002M20.2457 16.8911C18.8047 16.8911 17.6366 15.723 17.6366 14.282V9.80929C17.6366 8.36833 18.8047 7.2002 20.2457 7.2002C21.6866 7.2002 22.8547 8.36833 22.8547 9.80929V14.282C22.8547 15.723 21.6866 16.8911 20.2457 16.8911ZM59.7547 16.8911C58.3138 16.8911 57.1457 15.723 57.1457 14.282V9.80929C57.1457 8.36833 58.3138 7.2002 59.7547 7.2002C61.1957 7.2002 62.3638 8.36833 62.3638 9.80929V14.282C62.3638 15.723 61.1957 16.8911 59.7547 16.8911Z" stroke="#179860" stroke-width="3" stroke-linecap="round" stroke-linejoin="round"/>
</g>
</svg>
