<svg width="66" height="30" fill="none" xmlns="http://www.w3.org/2000/svg"><g clip-path="url(#clip0_295_890)" fill="#fff"><path opacity=".302" d="M1.176 23.695C.966 25.04.78 26.24.638 27.165l-.002.008a51.348 51.348 0 01-.288 1.782c1.87-1.075 4.638-2.61 5.29-5.952.042-.21.074-.424.096-.64l.323-6.392c-2.455 1.74-4.32 4.986-4.881 7.724z"/><path opacity=".6" d="M1.043 24.069zm6.9-8.768c-.727.21-1.424.569-2.079 1.037-2.422 1.735-4.261 4.973-4.815 7.703l-.006.028a289.82 289.82 0 011.103-6.608v-.003l.096-.517c.668-3.488 2.51-5.73 5.96-6.725l9.563-2.757.58-.168.012-.003.038-.011a.186.186 0 00.04-.011c-.707 2.12-2.421 5.208-5.157 6.536a6.951 6.951 0 01-.581.249l-4.755 1.25z"/><path d="M2.386 17.867v-.003.003zm.097-.525c.673-3.514 2.528-5.773 6.006-6.776l10.889-3.141c.2-.074.395-.158.586-.251C22.985 5.707 24.77 2.11 25.338 0L4.408 6.163C3.294 6.603.088 7.56 0 12.358l.407 17.197c.18-.87.935-5.895 1.978-11.688l.002-.003c.031-.177.063-.35.096-.522zm60.17 7.489l-2.645 5.17h-2.37l2.731-5.188-3.537-6.492h2.438l2.301 4.34 2.06-4.34h2.37l-3.349 6.51zM53.74 13.098h2.094V25.96H53.74V13.098zm-3.006 3.282c-.687 0-1.254-.583-1.254-1.288 0-.706.567-1.289 1.254-1.289s1.253.583 1.253 1.288c0 .706-.566 1.289-1.253 1.289zm-5.161 5.417c0-.9-.189-1.306-.344-1.5-.274-.353-.652-.389-.858-.389-.567 0-.927.265-1.15.671-.275.476-.292 1.076-.292 1.482v3.9h-2.095v-4.164c0-.9-.189-1.306-.343-1.5-.275-.353-.653-.389-.859-.389-.566 0-.927.265-1.15.671-.275.476-.292 1.076-.292 1.482v3.9h-2.095v-7.64h2.095v.864c.79-1.04 1.769-1.111 2.215-1.111 1.562 0 2.163 1.023 2.352 1.393.36-.617 1.081-1.393 2.387-1.393 1.133 0 1.716.547 2.009.934.48.654.515 1.306.515 2.153v4.8h-2.095v-4.164zm-13.554 3.175c-.755 1.112-1.734 1.236-2.283 1.236-2.267 0-3.795-1.818-3.795-4.076 0-2.26 1.494-4.059 3.692-4.059.55 0 1.7.106 2.386 1.235v-.987h2.095v7.64h-2.095v-.989zm-1.854-4.993c-1.185 0-2.06.953-2.06 2.153 0 1.217.875 2.17 2.06 2.17s2.06-.953 2.06-2.17c0-1.2-.875-2.153-2.06-2.153zm-8.697-1.182h3.606v1.976h-3.606v5.188h-2.232V14.19h6.078v1.977h-3.846v2.63zm30.313 7.163h-2.094v-7.64h2.094v7.64z"/></g><defs><clipPath id="clip0_295_890"><path fill="#fff" d="M0 0h66v30H0z"/></clipPath></defs></svg>