<svg width="80" height="80" fill="none" xmlns="http://www.w3.org/2000/svg"><path d="M45.6 56.8v5.6m0-5.6H39m6.6 0h6.6m-19.8 0v5.6m0-5.6H39m-6.6 0h-6.6m13.2 0V60m-13.2-3.2h-6.6v10.4H72V56.8h-6.6m-39.6 0V60m33-3.2v5.6m0-5.6h-6.6m6.6 0h6.6m-13.2 0V60m13.2-3.2V60m-2.2-32v20H28V28m35.2 0L45.6 10.4 28 28m35.2 0l3.6 3.6 4-4-8.4-8.4M28 28l-3.6 3.6-4-4L45.6 2.4l11.2 11.2m0 0V8.8h5.6v10.4m-5.6-5.6l5.6 5.6M40 34.4h11.2V48H40V34.4z" stroke="#179860" stroke-width="3" stroke-linecap="round" stroke-linejoin="round"/><path d="M68 31.2h10.4v45.6H7.2m16-45.6H12M6.8 76.8a5.2 5.2 0 01-5.2-5.2m0 0a5.2 5.2 0 1110.4 0V26a5.2 5.2 0 10-10.4 0v45.6z" stroke="#179860" stroke-width="3" stroke-linecap="round" stroke-linejoin="round"/></svg>