<svg width="80" height="80" fill="none" xmlns="http://www.w3.org/2000/svg"><path d="M9.6 60a2.4 2.4 0 012.4 2.4v8.8H7.2v-8.8A2.4 2.4 0 019.6 60zm0 0L20 50.4m36.8 2.4v18.4h-32V52.8M70.4 60a2.4 2.4 0 012.4 2.4v8.8H68v-8.8a2.4 2.4 0 012.4-2.4zm0 0l-9.6-10.4M56 44.8V34.4a.8.8 0 00-.8-.8H52a.8.8 0 00-.8.8v5.2M40.8 19.2v1.6c0 1.325 1.139 2.35 2.302 2.987A4.799 4.799 0 0143.453 32m-5.308 0A4.795 4.795 0 0136 28M6.4 76h67.2a2.4 2.4 0 100-4.8H6.4a2.4 2.4 0 100 4.8zm40-4.8V60a3.2 3.2 0 00-3.2-3.2h-4.8a3.2 3.2 0 00-3.2 3.2v11.2h11.2zm-27.2-20l3.53 3.53L40.8 36.66l18.07 18.07 3.53-3.53-21.6-21.6-21.6 21.6zm24-40a2.4 2.4 0 11-4.8 0 2.4 2.4 0 014.8 0zM31.2 4h19.2v7.2l-4.8 8H36l-4.8-8V4z" stroke="#179860" stroke-width="3" stroke-linecap="round" stroke-linejoin="round"/></svg>