<svg width="17" height="17" fill="none" xmlns="http://www.w3.org/2000/svg"><path d="M4.572 15.41l.232-.713-.232.713zm-2.274-2.274l.714-.232-.714.232zm12.404 0l-.714-.232.714.232zm-2.274 2.274l-.232-.713.232.713zm0-9.57l-.232.713.232-.713zm2.274 2.274l-.714.232.714-.232zM4.572 5.84l-.232-.713.232.713zM2.298 8.114l.714.232-.714-.232zm7.877-5.39a.75.75 0 00.9-1.199l-.9 1.2zM7.75 13.459a.75.75 0 001.5 0h-1.5zm-.667-7.041h2.834v-1.5H7.083v1.5zm2.834 8.416H7.083v1.5h2.834v-1.5zm-2.834 0c-1.376 0-1.887-.009-2.279-.136l-.464 1.426c.675.22 1.483.21 2.743.21v-1.5zm-5.708-4.208c0 1.26-.01 2.068.21 2.743l1.427-.464c-.128-.392-.137-.902-.137-2.279h-1.5zm3.429 4.072a2.792 2.792 0 01-1.792-1.793l-1.427.464a4.292 4.292 0 002.755 2.755l.464-1.426zm9.321-4.072c0 1.377-.01 1.887-.137 2.28l1.427.463c.22-.675.21-1.483.21-2.743h-1.5zm-4.208 5.708c1.26 0 2.068.01 2.742-.21l-.463-1.426c-.392.127-.903.136-2.28.136v1.5zm4.071-3.429a2.792 2.792 0 01-1.792 1.793l.463 1.426a4.292 4.292 0 002.756-2.755l-1.427-.464zM9.917 6.417c1.376 0 1.887.009 2.279.136l.463-1.426c-.674-.22-1.482-.21-2.742-.21v1.5zm5.708 4.208c0-1.26.01-2.068-.21-2.743l-1.427.464c.128.392.137.902.137 2.279h1.5zm-3.429-4.072c.85.276 1.516.943 1.792 1.793l1.427-.464a4.292 4.292 0 00-2.755-2.755l-.464 1.426zm-9.321 4.072c0-1.377.01-1.887.137-2.28l-1.427-.463c-.22.675-.21 1.483-.21 2.743h1.5zM4.34 5.127a4.292 4.292 0 00-2.755 2.755l1.427.464a2.792 2.792 0 011.792-1.793L4.34 5.127zM8.5.667a4.292 4.292 0 00-4.292 4.291h1.5A2.792 2.792 0 018.5 2.167v-1.5zm0 1.5c.63 0 1.208.207 1.675.558l.9-1.2A4.276 4.276 0 008.5.667v1.5zm-1.417 2.75c-.99 0-1.694-.003-2.25.09l.25 1.48c.4-.068.949-.07 2-.07v-1.5zm-2.25.09c-.17.03-.333.068-.493.12l.464 1.426a1.92 1.92 0 01.279-.066l-.25-1.48zm.875.74v-.789h-1.5v.79h1.5zm2.042 4.878v2.833h1.5v-2.833h-1.5zM6.333 9.208c0 1.197.97 2.167 2.167 2.167v-1.5a.667.667 0 01-.667-.667h-1.5zM8.5 11.375c1.197 0 2.167-.97 2.167-2.167h-1.5a.667.667 0 01-.667.667v1.5zm2.167-2.167c0-1.196-.97-2.166-2.167-2.166v1.5c.368 0 .667.298.667.666h1.5zM8.5 7.042c-1.197 0-2.167.97-2.167 2.166h1.5c0-.368.299-.666.667-.666v-1.5z" fill="#A7A7A7"/><path d="M7.75 13.458a.75.75 0 001.5 0h-1.5zm0-2.833v2.833h1.5v-2.833h-1.5zM6.333 9.208c0 1.197.97 2.167 2.167 2.167v-1.5a.667.667 0 01-.667-.667h-1.5zM8.5 11.375c1.196 0 2.166-.97 2.166-2.167h-1.5a.667.667 0 01-.666.667v1.5zm2.166-2.167c0-1.196-.97-2.166-2.166-2.166v1.5c.368 0 .666.298.666.666h1.5zM8.5 7.042c-1.197 0-2.167.97-2.167 2.166h1.5c0-.368.298-.666.667-.666v-1.5z" fill="#2E2D2D"/></svg>