<svg width="80" height="80" fill="none" xmlns="http://www.w3.org/2000/svg"><path d="M40.191 60.246c-5.545-.364-4.11-4.767-11.825-7.934-7.593-3.117-12.914 2.753-14.625 6.078-2.853-.104-8.558 1.465-8.558 8.571s5.705 8.987 8.558 9.039h55.857c4.824 0 5.602-2.493 5.602-4.364 0-1.87-1.712-4.675-5.602-4.675-3.89 0-6.379-1.558-8.246-3.584-1.867-2.026-4.201-5.767-16.026-3.585-2.212.408-3.858.538-5.135.454zm0 0c-.133-1.484.013-3.778.794-6.22m7.453-9.039c9.18-4.831 15.092-5.766 19.449-12.935m-19.45 12.935c-4.208 2.215-6.403 5.76-7.452 9.039m7.453-9.039c-1.764-4.727-2.645-14.525 7.935-15.896 10.58-1.372 16.648-8.78 18.36-12.312.83 6.753.622 21.85-6.846 28.208-9.336 7.948-16.337 4.675-19.45 0zm-7.453 9.039c.202-3.22-.202-10.473-3.439-13.714m0 0c-4.045-4.052-7.78-7.325-12.758-9.04-3.983-1.37-7.884-5.558-9.336-7.48m22.094 16.52c2.179-2.338 5.041-8.915-.933-16.52-7.469-9.506-12.292-2.65-20.383-8.415C9.757 10.764 6.895 5.87 6.272 4c-1.66 6.597-2.894 22.13 5.446 31.48 10.425 11.689 19.76 11.533 25.828 4.832z" stroke="#857067" stroke-width="3" stroke-linecap="round" stroke-linejoin="round"/></svg>