<svg width="80" height="80" fill="none" xmlns="http://www.w3.org/2000/svg"><path d="M75.2 30.884l-9.263-9.27H57.06m18.14 9.27v17.768m0-17.768H57.445v12.824c7.41 0 9.16 3.296 9.11 4.944H75.2m-9.263 17.769H75.2v-8.885m0-8.884v8.884M57.06 21.614h-8.878v3.09m8.877-3.09v-5.717h-7.95M9.895 54.369L4.8 43.71V30.883m0 0v-6.026c0-1.236 1.132-1.648 1.698-1.7h1.544M4.8 30.885h37.207l6.175-6.18m0 29.665V24.704M13.754 38.146h26.863m0 7.416H22.71M75.2 57.536H64.394m-20.38 0h-17.29m15.284 8.885H28.575M49.11 15.897h-3.86l-7.256 7.262H8.042m41.067-7.262c-.515-2.112-2.656-6.335-7.102-6.335-5.558 0-7.874-1.081-9.572-2.78C30.737 5.081 29.193 4 23.944 4c-5.25 0-7.874 1.854-10.19 5.562-1.852 2.967-4.58 10.3-5.712 13.597m9.572-4.172c.566-3.038 3.304-8.9 9.726-8.034m2.78 6.18c1.543.363 5.28.222 7.873-3.245m-9.727 50.37C28.267 70.742 23.014 76 16.534 76S4.8 70.743 4.8 64.257c0-6.485 5.253-11.742 11.733-11.742s11.733 5.257 11.733 11.742zm37.67 0C65.937 70.742 60.684 76 54.204 76S42.47 70.743 42.47 64.257c0-6.485 5.253-11.742 11.733-11.742s11.734 5.257 11.734 11.742zm-44.154 0a5.251 5.251 0 01-5.249 5.253 5.251 5.251 0 01-5.249-5.254 5.251 5.251 0 015.25-5.253 5.251 5.251 0 015.248 5.253zm37.67 0a5.251 5.251 0 01-5.249 5.253 5.251 5.251 0 01-5.249-5.254 5.251 5.251 0 015.25-5.253 5.251 5.251 0 015.248 5.253z" stroke="#857067" stroke-width="3" stroke-linecap="round" stroke-linejoin="round"/></svg>