<svg width="18" height="16" fill="none" xmlns="http://www.w3.org/2000/svg"><path d="M17.66.22c-.307-.254-.79-.29-1.288-.095C15.846.33 1.526 6.332.943 6.577c-.106.036-1.033.374-.937 1.126.085.678.83.959.92.991l3.64 1.218c.242.786 1.133 3.684 1.33 4.303.123.386.323.893.674.998.307.116.614.01.812-.142l2.226-2.017 3.593 2.738.085.05c.244.105.478.158.701.158.173 0 .338-.032.496-.095.538-.216.754-.717.776-.774l2.684-13.63c.165-.73-.063-1.1-.283-1.281zM7.78 10.4l-1.23 3.2-1.229-4 9.416-6.8-6.96 7.6z" fill="#289CCD"/></svg>