<svg width="18" height="20" fill="none" xmlns="http://www.w3.org/2000/svg"><path d="M17.478 4.416c-.334-1.213-.997-2.17-1.968-2.848C14.284.71 12.875.408 11.658.223c-1.685-.255-3.21-.29-4.664-.11-1.363.17-2.39.44-3.325.876C1.834 1.845.732 3.229.396 5.102A25.93 25.93 0 00.058 7.62c-.148 1.814-.014 3.419.408 4.907.412 1.45 1.13 2.486 2.197 3.167.27.173.62.299.956.42.19.067.376.134.529.207.14.066.14.078.139.197-.012 1.03 0 3.052 0 3.052l.003.43h.763l.124-.122c.082-.078 1.974-1.933 2.649-2.68l.092-.104c.115-.136.115-.136.234-.137a80.63 80.63 0 002.766-.106c1.12-.06 2.417-.171 3.64-.688 1.117-.473 1.934-1.226 2.425-2.235.512-1.053.815-2.192.929-3.485.2-2.272.059-4.244-.434-6.027zm-4.028 8.836c-.28.464-.7.787-1.193.996-.362.153-.73.12-1.087-.032-2.985-1.283-5.327-3.302-6.873-6.206-.32-.598-.541-1.25-.796-1.882-.052-.13-.048-.282-.072-.425.022-1.02.794-1.596 1.574-1.77.298-.067.563.04.784.255a6.956 6.956 0 011.461 2.05c.159.338.087.637-.184.889-.057.052-.116.1-.178.147-.619.472-.71.83-.38 1.542.563 1.211 1.497 2.025 2.704 2.53.318.132.618.066.86-.196.034-.034.07-.068.094-.109.476-.805 1.167-.725 1.805-.266.418.302.825.621 1.239.929.63.47.626.912.242 1.548zM9.492 5.218c-.14 0-.281.012-.42.035a.43.43 0 01-.494-.358.434.434 0 01.353-.5c.185-.032.374-.047.561-.047 1.857 0 3.367 1.532 3.367 3.415 0 .192-.015.384-.047.57a.43.43 0 01-.494.356.434.434 0 01-.351-.5c.023-.139.035-.281.035-.426 0-1.402-1.127-2.545-2.51-2.545zm2.081 2.608c0 .24-.192.435-.428.435a.433.433 0 01-.429-.435c0-.718-.578-1.304-1.286-1.304a.433.433 0 01-.428-.435c0-.24.192-.435.428-.435 1.182 0 2.143.975 2.143 2.174zm2.448.967a.43.43 0 01-.514.327.437.437 0 01-.323-.52c.062-.278.093-.565.093-.854 0-2.112-1.695-3.833-3.778-3.833-.285 0-.568.033-.84.095a.427.427 0 01-.513-.327.433.433 0 01.323-.52 4.537 4.537 0 011.03-.117c2.556 0 4.636 2.11 4.636 4.702 0 .354-.039.705-.114 1.047z" fill="#774E96"/></svg>