<svg width="80" height="80" fill="none" xmlns="http://www.w3.org/2000/svg"><path d="M37.35 32.448c-5.667 0-10.26-4.588-10.26-10.248m10.26-10.248c5.668 0 10.263 4.588 10.263 10.248M4 22.36h8.017m50.668-.16h8.017M5.984 10.964l7.533 2.739m47.667 17.154l7.534 2.739m-62.68.15l7.534-2.738M61.13 13.552l7.533-2.738M54.956 54.897l10.936-10.92c1.443-1.122 5.13-2.69 8.337 0s1.337 6.67 0 8.325c-2.993 3.096-9.973 10.248-13.95 14.09-3.976 3.844-9.032 4.911-11.063 4.965H23.722L19.072 76 4.481 61.59 15.384 50.7c1.604-1.494 5.933-4.483 10.422-4.483H51.14c1.71.106 5.131 1.28 5.131 5.124 0 1.541-.497 2.72-1.315 3.555zm0 0l-1.892 1.889H41.2M55.31 22.2c0 9.904-8.04 17.933-17.958 17.933S19.393 32.104 19.393 22.2 27.433 4.267 37.35 4.267 55.309 12.296 55.309 22.2z" stroke="#857067" stroke-width="3" stroke-linecap="round" stroke-linejoin="round"/></svg>