<svg width="80" height="80" fill="none" xmlns="http://www.w3.org/2000/svg"><path d="M40.133 10.107c8.157 0 14.77 6.62 14.77 14.786M29.859 35.515a14.75 14.75 0 01-4.496-10.622m-3.206 10.622a20.812 20.812 0 01-2.894-10.622C19.263 13.354 28.607 4 40.133 4c11.526 0 20.87 9.354 20.87 20.893 0 3.878-1.055 7.51-2.894 10.622m-46.641 14.61c-1.864 3.544-4.012 8.37-5.922 12.893C2.92 69.241 7.554 76 14.303 76h51.66c6.75 0 11.384-6.759 8.757-12.982-1.91-4.524-4.058-9.349-5.922-12.893m-57.33 0c1.663-3.161 3.1-5.304 3.942-5.304h49.446c.842 0 2.28 2.143 3.942 5.304m-57.33 0l23.849 9.16m33.481-9.16l-23.688 9.16M16.534 44.823h47.84a4.658 4.658 0 004.657-4.661 4.658 4.658 0 00-4.656-4.661H16.534a4.658 4.658 0 00-4.656 4.66 4.658 4.658 0 004.655 4.662zm28.415 16.392a4.819 4.819 0 01-4.816 4.822 4.819 4.819 0 01-4.816-4.822 4.819 4.819 0 014.816-4.821 4.819 4.819 0 014.816 4.821z" stroke="#857067" stroke-width="3" stroke-linecap="round" stroke-linejoin="round"/></svg>