<svg width="80" height="80" fill="none" xmlns="http://www.w3.org/2000/svg"><path d="M58.99 19.197c5.78 5.217 9.414 12.77 9.414 21.174 0 15.742-12.752 28.503-28.483 28.503S11.437 56.113 11.437 40.371c0-8.403 3.634-15.957 9.415-21.174m26.665.342C56.01 22.64 62.075 30.797 62.075 40.37c0 12.243-9.919 22.17-22.154 22.17s-22.154-9.926-22.154-22.17c0-9.574 6.064-17.73 14.558-20.832M14.602 53.672L4 64.282V76m0 0h12.501l10.286-10.293M4 76l15.033-15.044m46.365-7.284L76 64.282V76m0 0H63.499L53.213 65.707M76 76L60.967 60.956M16.185 4.9l4.43 14.568h38.611L63.657 4.9l-14.083 6.017-9.653-6.65-9.653 6.65L16.185 4.9zM39.92 27.07l3.906 7.92 8.736 1.27-6.321 6.166 1.492 8.706-7.813-4.11-7.813 4.11 1.492-8.706-6.32-6.166 8.734-1.27 3.907-7.92z" stroke="#857067" stroke-width="3" stroke-linecap="round" stroke-linejoin="round"/></svg>