<svg width="22" height="16" fill="none" xmlns="http://www.w3.org/2000/svg"><path fill-rule="evenodd" clip-rule="evenodd" d="M1.107 1.146C0 2.29 0 4.135 0 7.822v.356c0 3.687 0 5.53 1.107 6.676C2.216 16 3.998 16 7.563 16h6.875c3.566 0 5.348 0 6.455-1.146C22 13.71 22 11.866 22 8.178v-.356c0-3.687 0-5.53-1.108-6.676C19.785 0 18.002 0 14.438 0H7.561C3.998 0 2.215 0 1.107 1.146zm8.423 3.6c-.486-.26-1.065.106-1.065.671v4.974c0 .57.585.934 1.071.668l4.609-2.516c.522-.285.518-1.06-.007-1.34L9.53 4.746z" fill="#D53E3E"/></svg>