<svg width="80" height="80" viewBox="0 0 80 80" fill="none" xmlns="http://www.w3.org/2000/svg">
<g id="&#208;&#184;&#208;&#186;&#208;&#190;&#208;&#189;&#208;&#186;&#208;&#184; &#208;&#191;&#209;&#128;&#208;&#181;&#208;&#184;&#208;&#188;&#209;&#131;&#209;&#137;&#208;&#181;&#209;&#129;&#209;&#130;&#208;&#178;&#208;&#176;">
<path id="Vector" d="M37.3509 32.4476C31.6835 32.4476 27.0891 27.8595 27.0891 22.1999M37.3509 11.9523C43.0184 11.9523 47.6127 16.5403 47.6127 22.1999M4 22.3601H12.017M62.6848 22.1999H70.7018M5.98387 10.9643L13.5174 13.7025M61.1844 30.8574L68.7179 33.5956M6.03875 33.7461L13.5723 31.0079M61.1296 13.5521L68.6631 10.8139M54.9559 54.8967L65.8916 43.9761C67.3347 42.8553 71.0225 41.2861 74.2293 43.9761C77.4362 46.6661 75.5655 50.6478 74.2293 52.3023C71.2363 55.3979 64.2561 62.5499 60.2797 66.3928C56.3032 70.2356 51.2471 71.3031 49.2162 71.3565H23.7219L19.0721 75.9999L4.48102 61.5892L15.3842 50.7011C16.9876 49.2067 21.3168 46.2178 25.8064 46.2178H51.1402C52.8506 46.3245 56.2712 47.4987 56.2712 51.3416C56.2712 52.8835 55.774 54.0626 54.9559 54.8967ZM54.9559 54.8967L53.0643 56.7856H41.1991M55.3091 22.1999C55.3091 32.1042 47.269 40.1333 37.3509 40.1333C27.4329 40.1333 19.3927 32.1042 19.3927 22.1999C19.3927 12.2956 27.4329 4.2666 37.3509 4.2666C47.269 4.2666 55.3091 12.2956 55.3091 22.1999Z" stroke="#857067" stroke-width="3" stroke-linecap="round" stroke-linejoin="round"/>
</g>
</svg>
