<svg width="30" height="30" viewBox="0 0 30 30" fill="none" xmlns="http://www.w3.org/2000/svg">
<path d="M10 2.5V6.25" stroke="#857067" stroke-width="1.5" stroke-miterlimit="10" stroke-linecap="round" stroke-linejoin="round"/>
<path d="M20 2.5V6.25" stroke="#857067" stroke-width="1.5" stroke-miterlimit="10" stroke-linecap="round" stroke-linejoin="round"/>
<path opacity="0.4" d="M4.375 11.3623H25.625" stroke="#857067" stroke-width="1.5" stroke-miterlimit="10" stroke-linecap="round" stroke-linejoin="round"/>
<path d="M27.5 23.75C27.5 24.6875 27.2375 25.575 26.775 26.325C25.9125 27.775 24.325 28.75 22.5 28.75C21.2375 28.75 20.0875 28.2875 19.2125 27.5C18.825 27.175 18.4875 26.775 18.225 26.325C17.7625 25.575 17.5 24.6875 17.5 23.75C17.5 20.9875 19.7375 18.75 22.5 18.75C24 18.75 25.3375 19.4125 26.25 20.45C27.025 21.3375 27.5 22.4875 27.5 23.75Z" stroke="#857067" stroke-width="1.5" stroke-miterlimit="10" stroke-linecap="round" stroke-linejoin="round"/>
<path d="M20.5498 23.7499L21.7873 24.9874L24.4498 22.5249" stroke="#857067" stroke-width="1.5" stroke-linecap="round" stroke-linejoin="round"/>
<path d="M26.25 10.625V20.45C25.3375 19.4125 24 18.75 22.5 18.75C19.7375 18.75 17.5 20.9875 17.5 23.75C17.5 24.6875 17.7625 25.575 18.225 26.325C18.4875 26.775 18.825 27.175 19.2125 27.5H10C5.625 27.5 3.75 25 3.75 21.25V10.625C3.75 6.875 5.625 4.375 10 4.375H20C24.375 4.375 26.25 6.875 26.25 10.625Z" stroke="#857067" stroke-width="1.5" stroke-miterlimit="10" stroke-linecap="round" stroke-linejoin="round"/>
<path opacity="0.4" d="M14.9941 17.125H15.0053" stroke="#857067" stroke-width="2" stroke-linecap="round" stroke-linejoin="round"/>
<path opacity="0.4" d="M10.3681 17.125H10.3794" stroke="#857067" stroke-width="2" stroke-linecap="round" stroke-linejoin="round"/>
<path opacity="0.4" d="M10.3682 20.875H10.3794" stroke="#857067" stroke-width="2" stroke-linecap="round" stroke-linejoin="round"/>
</svg>
