<svg width="36" height="32" viewBox="0 0 36 32" fill="none" xmlns="http://www.w3.org/2000/svg">
<path d="M35.0208 0.100314C32.4991 -0.0444565 27.1666 -0.1429 26.0106 0.621488C24.5656 1.57697 24.4806 3.05363 25.6706 3.8354C26.1576 4.15531 26.4738 3.86428 26.9687 3.40875C27.6831 2.75113 28.7699 1.7507 31.2808 1.7507C29.6091 2.50351 26.4867 4.54767 27.3707 6.70185C28.4757 9.39459 31.1958 7.65734 31.7058 6.70185C31.8396 6.45109 31.9501 6.0388 32.0878 5.52464C32.4748 4.07966 33.0773 1.8301 35.0208 0.100314Z" fill="#179860"/>
<path d="M7.8202 0.100314H0L17.5592 32L21.5002 24.9525L7.8202 0.100314Z" fill="#179860"/>
<path d="M19.5505 0.100314L27.4115 14.3813L23.4705 21.4288L11.7303 0.100314H19.5505Z" fill="#179860"/>
</svg>
