<svg width="22" height="16" viewBox="0 0 22 16" fill="none" xmlns="http://www.w3.org/2000/svg">
<path id="Subtract" fill-rule="evenodd" clip-rule="evenodd" d="M1.1075 1.14554C0 2.29108 0 4.13479 0 7.82222V8.17778C0 11.8652 0 13.7089 1.1075 14.8545C2.215 16 3.9975 16 7.5625 16H14.4375C18.0025 16 19.785 16 20.8925 14.8545C22 13.7089 22 11.8652 22 8.17778V7.82222C22 4.13479 22 2.29108 20.8925 1.14554C19.785 0 18.0025 0 14.4375 0H7.5625C3.9975 0 2.215 0 1.1075 1.14554ZM9.53003 4.74577C9.04387 4.48653 8.46484 4.85159 8.46484 5.41734V10.3912C8.46484 10.9601 9.04989 11.325 9.53635 11.0593L14.1447 8.5428C14.6668 8.25768 14.6631 7.4829 14.1383 7.20307L9.53003 4.74577Z" fill="#D53E3E"/>
</svg>
