<svg width="50" height="50" fill="none" xmlns="http://www.w3.org/2000/svg"><g clip-path="url(#clip0_859_5884)" fill="#179860"><path d="M49.71 24.117l-4.248-5.766.048-7.163a1.488 1.488 0 00-1.038-1.429l-6.83-2.162-4.164-5.829a1.489 1.489 0 00-1.682-.546L25 3.49l-6.796-2.269a1.488 1.488 0 00-1.682.547l-4.164 5.828-6.83 2.163a1.487 1.487 0 00-1.038 1.428l.049 7.164-4.25 5.766a1.49 1.49 0 000 1.766l4.25 5.766-.05 7.163a1.488 1.488 0 001.04 1.428l6.828 2.163 4.165 5.828a1.488 1.488 0 001.682.547L25 46.51l6.796 2.269a1.49 1.49 0 001.682-.547l4.164-5.828 6.83-2.164a1.487 1.487 0 001.038-1.428l-.048-7.163 4.248-5.766a1.49 1.49 0 000-1.766zm-6.938 6.165c-.19.258-.293.571-.29.892l.044 6.56-6.256 1.982a1.482 1.482 0 00-.761.554l-3.813 5.337-6.225-2.078a1.487 1.487 0 00-.942 0l-6.225 2.078-3.814-5.338a1.492 1.492 0 00-.761-.554l-6.255-1.981.044-6.56c.002-.321-.1-.634-.29-.893L3.336 25l3.892-5.282c.19-.258.292-.572.29-.893l-.045-6.56 6.256-1.981c.307-.097.575-.292.762-.554l3.813-5.337 6.224 2.078c.306.102.637.102.943 0l6.224-2.078L35.51 9.73c.187.262.455.456.761.554l6.256 1.98-.045 6.561c-.002.321.1.634.29.893l3.893 5.28-3.892 5.283z"/><path d="M32.319 18.367L22.21 28.476l-4.528-4.528a1.487 1.487 0 10-2.104 2.104l5.58 5.58a1.487 1.487 0 002.105.001l11.16-11.161a1.49 1.49 0 00-2.105-2.105z"/></g><defs><clipPath id="clip0_859_5884"><path fill="#fff" d="M0 0h50v50H0z"/></clipPath></defs></svg>