<svg width="32" height="40" fill="none" xmlns="http://www.w3.org/2000/svg"><path d="M10.847 33.991a.631.631 0 01-.515-.27.627.627 0 01-.1-.467c1.23-6.737-1.47-10.682-1.497-10.72a.625.625 0 01-.011-.702c.4-.612.69-2.387.705-4.316.018-2.386-.371-3.535-.552-3.693a1.652 1.652 0 00-1.551-.168 1.149 1.149 0 00-.72.927c-.122.791-.499 1.912-.935 3.21-.48 1.431-1.026 3.054-1.282 4.435a27.785 27.785 0 00-.42 5.036.625.625 0 01-.159.432l-2.449 2.74a.623.623 0 01-1.029-.144.625.625 0 01.097-.688l2.287-2.56c0-1.691.148-3.38.443-5.045.273-1.467.833-3.134 1.328-4.605.4-1.19.778-2.316.883-3.001a2.402 2.402 0 011.474-1.89 2.907 2.907 0 012.769.31c1.479 1.069 1.28 7.198.353 9.333.668 1.138 2.627 5.137 1.495 11.335a.625.625 0 01-.614.511zM9.78 39.608a.624.624 0 01-.45-1.058l2.132-2.214a.623.623 0 01.565-.181c.023.004 2.453.435 4.525-.6 2.158-1.08 3.261-1.873 3.694-3.46a.625.625 0 011.206.328c-.551 2.023-1.951 3.053-4.34 4.248-1.98.99-4.146.86-4.972.762l-1.91 1.983a.623.623 0 01-.45.192zm17.386-12.575a.625.625 0 01-.043-1.248l1.722-.119a1.162 1.162 0 00-.19-2.316l-1.092.087a.623.623 0 01-.675-.574.624.624 0 01.576-.672l1.093-.087a2.412 2.412 0 01.38 4.809l-1.728.119a.578.578 0 01-.043.001z" fill="#857067"/><path d="M27.166 23.439a.625.625 0 01-.037-1.249l1.44-.086a1.162 1.162 0 00-.196-2.316l-1.092.087a.625.625 0 01-.099-1.247l1.093-.086a2.412 2.412 0 11.38 4.809l-1.452.087h-.037z" fill="#857067"/><path d="M27.231 19.876a.625.625 0 01-.049-1.248l1.093-.086a1.162 1.162 0 00-.183-2.317l-.876.07a.625.625 0 01-.099-1.246l.877-.07a2.412 2.412 0 01.38 4.809l-1.093.086-.05.002zm-.064-4.969a.625.625 0 01-.37-1.129l3.263-2.397a1.161 1.161 0 00-1.46-1.807l-1.02.9a.624.624 0 01-1.05-.506.625.625 0 01.223-.432l1.032-.909.02-.017a2.412 2.412 0 113.009 3.77l-3.277 2.406a.623.623 0 01-.37.121z" fill="#857067"/><path d="M27.166 27.109a.625.625 0 01-.625-.625V3.144c0-.829-.798-1.501-1.78-1.501h-13.11c-.981 0-1.78.673-1.78 1.5V13.32a.625.625 0 01-1.25 0V3.144C8.62 1.627 9.98.393 11.65.393h13.11c1.67 0 3.03 1.234 3.03 2.75v23.34a.625.625 0 01-.625.626z" fill="#857067"/><path d="M24.761 32.793h-13.51a.625.625 0 010-1.25h13.51c.982 0 1.78-.674 1.78-1.502V26.28a.625.625 0 011.25 0v3.762c0 1.517-1.359 2.752-3.03 2.752zM27.067 5.01H9.291a.625.625 0 010-1.25h17.776a.625.625 0 110 1.25z" fill="#857067"/><path d="M27.166 29.24H11.39a.625.625 0 110-1.25h15.777a.625.625 0 010 1.25z" fill="#857067"/></svg>