<svg width="50" height="50" fill="none" xmlns="http://www.w3.org/2000/svg"><path d="M21.743 36.904v-6.885m0 17.708v-7.513m6.769-10.195v17.708m-9.788-24.802l2.791 4.933m-2.79-4.933l-7.635 4.193m7.634-4.193l-.965-1.703c-.53-.94-1.745-1.279-2.697-.756l-4.17 2.291a1.94 1.94 0 00-.767 2.655l.965 1.706m2.79 4.932l-2.79-4.932m-1.515.834c-13.202 1.544-8.646-14.596 2.61-5.907m5.352 7.974h20.24c.555 0 1.011.45 1.011.997v14.929c0 .98-.813 1.782-1.809 1.782H13.276c-.996 0-1.81-.801-1.81-1.782V33.377m-1.583-9.07c-1.14-.41-2.018-.623-3.55-.789m8.46-8.797c-.83 1.414-1.267 3.513-.94 6.408m6.472.919c5.38-6.666.354-10.973-3.382-9.318m.072 7.75c.08-.992.569-2.484 1.184-3.481m17.683-3.405s.98 8.906-2.309 12.419m7.184-9.735s1.418-6.159 7.728-7.643M5.78 36.5l23.833-13.09c.668-.368.91-1.205.539-1.863l-1.438-2.541a1.404 1.404 0 00-1.891-.528L2.988 31.568a1.363 1.363 0 00-.536 1.86l1.438 2.544a1.408 1.408 0 001.891.528zM30.068 3.546L28.976 5.34c-.118.195-.134.26-.38.32l-2.16.528c-.418.103-.44.198-.154.518l1.394 1.652c.148.176.17.382.151.63l-.168 2.043c-.046.423.044.474.446.314l1.9-.78c.198-.081.508-.081.703 0l1.903.78c.401.16.49.109.442-.314L32.89 8.99c-.02-.25 0-.455.15-.631l1.392-1.652c.286-.32.267-.415-.154-.518l-2.161-.528c-.245-.06-.258-.125-.38-.32l-1.09-1.795c-.22-.366-.356-.366-.578 0zm13.864 16.059L42.838 21.4c-.119.195-.135.26-.377.32l-2.16.528c-.421.103-.443.198-.155.517l1.391 1.653c.152.176.17.381.152.63l-.168 2.04c-.044.425.044.477.445.317l1.9-.78c.198-.081.508-.081.706 0l1.9.78c.401.16.49.108.446-.317l-.168-2.04c-.02-.248 0-.454.151-.63l1.391-1.653c.289-.32.267-.414-.154-.517l-2.16-.528c-.243-.06-.26-.125-.377-.32l-1.092-1.795c-.223-.366-.357-.366-.577 0zM41.634 7.86c1.564 0 2.837-1.254 2.837-2.792 0-1.541-1.273-2.795-2.837-2.795-1.562 0-2.837 1.254-2.837 2.795 0 1.538 1.275 2.792 2.837 2.792z" stroke="#179860" stroke-width="1.5" stroke-miterlimit="10" stroke-linecap="round" stroke-linejoin="round"/></svg>