<svg width="80" height="80" fill="none" xmlns="http://www.w3.org/2000/svg"><path d="M58.32 71.537c.708 3.46 3.79 6.063 7.483 6.063 3.693 0 6.774-2.604 7.482-6.063m-14.964 0a7.555 7.555 0 01.869-5.306m-.87 5.306H46.564m0 0a7.555 7.555 0 00-.868-5.306m.868 5.306c-.707 3.46-3.788 6.063-7.482 6.063-3.693 0-6.774-2.604-7.482-6.063m27.59-5.306a7.642 7.642 0 016.614-3.789 7.642 7.642 0 016.613 3.79m-13.226 0h-7.13m-6.365 0a7.642 7.642 0 00-6.614-3.79 7.642 7.642 0 00-6.613 3.79m13.227 0h6.365m-19.592 0a7.562 7.562 0 00-.869 5.305m.87-5.306h-7.39m0 0a7.642 7.642 0 00-6.613-3.789 7.642 7.642 0 00-6.613 3.79m13.226 0a7.555 7.555 0 01.869 5.305M11.855 66.23a7.555 7.555 0 00-.869 5.305m.869-5.305h-4.84m3.971 5.306c.707 3.46 3.788 6.063 7.482 6.063 3.694 0 6.774-2.604 7.482-6.063m-14.964 0h-6.26V66.23h2.29m18.934 5.306h5.65m41.685 0a7.555 7.555 0 00-.869-5.306m.869 5.306H78.4V66.23h-2.672m-3.312 0h3.312m-68.712 0l5.344-8.715h4.581m35.12 0v8.715m0-8.715V29.853h16.032l2.97 5.305M52.06 57.516H40.99m34.738 8.715V59.98m0-15.726v-.758l-4.666-8.337m4.666 9.095H59.695v-9.095h11.367m4.666 9.095v6.442m0 0h-5.344v3.032h5.344m0-3.032v3.032m0 0v6.252M59.19 50.316h4.322m12.216 9.663h-3.312m-55.475-2.463h24.05m-24.05 0V52.21m0-3.032v3.032m24.05 5.305v-6.063m-24.05.758H7.779c-1.272 0-3.435-.91-1.908-4.548l.763-2.273M29.2 18.058c8.082 1.497 15.286 4.14 20.807 7.359l-4.78 25.421c-6.319 1.025-13.998.91-22.08-.587-8.448-1.565-15.936-4.382-21.546-7.8l4.67-24.834c6.473-1.18 14.481-1.124 22.93.44z" stroke="#179860" stroke-width="3" stroke-linecap="round" stroke-linejoin="round"/></svg>