<svg width="81" height="80" viewBox="0 0 81 80" fill="none" xmlns="http://www.w3.org/2000/svg">
<g id="&#208;&#184;&#208;&#186;&#208;&#190;&#208;&#189;&#208;&#186;&#208;&#184; &#208;&#190;&#208;&#191;&#208;&#187;&#208;&#176;&#209;&#130;&#208;&#176;">
<g id="Vector">
<path d="M4.5 27.145H76.5V36.5519H4.5V27.145Z" stroke="#179860" stroke-width="3" stroke-linecap="round" stroke-linejoin="round"/>
<path d="M40.5 3.2002L73.9286 27.145H7.07143L40.5 3.2002Z" stroke="#179860" stroke-width="3" stroke-linecap="round" stroke-linejoin="round"/>
<path d="M34.5 36.5519H46.5V39.1174C46.5 40.5343 45.3487 41.683 43.9286 41.683H37.0714C35.6513 41.683 34.5 40.5343 34.5 39.1174V36.5519Z" stroke="#179860" stroke-width="3" stroke-linecap="round" stroke-linejoin="round"/>
<path d="M34.5 68.1933H46.5V65.6278C46.5 64.2109 45.3487 63.0623 43.9286 63.0623H37.0714C35.6513 63.0623 34.5 64.2109 34.5 65.6278V68.1933Z" stroke="#179860" stroke-width="3" stroke-linecap="round" stroke-linejoin="round"/>
<path d="M36.2143 63.0623H44.7857V41.683H36.2143V63.0623Z" stroke="#179860" stroke-width="3" stroke-linecap="round" stroke-linejoin="round"/>
<path d="M59.3571 36.5519H71.3571V39.1174C71.3571 40.5343 70.2059 41.683 68.7857 41.683H61.9286C60.5084 41.683 59.3571 40.5343 59.3571 39.1174V36.5519Z" stroke="#179860" stroke-width="3" stroke-linecap="round" stroke-linejoin="round"/>
<path d="M59.3571 68.1933H71.3571V65.6278C71.3571 64.2109 70.2059 63.0623 68.7857 63.0623H61.9286C60.5084 63.0623 59.3571 64.2109 59.3571 65.6278V68.1933Z" stroke="#179860" stroke-width="3" stroke-linecap="round" stroke-linejoin="round"/>
<path d="M61.0714 63.0623H69.6429V41.683H61.0714V63.0623Z" stroke="#179860" stroke-width="3" stroke-linecap="round" stroke-linejoin="round"/>
<path d="M9.64286 36.5519H21.6429V39.1174C21.6429 40.5343 20.4916 41.683 19.0714 41.683H12.2143C10.7941 41.683 9.64286 40.5343 9.64286 39.1174V36.5519Z" stroke="#179860" stroke-width="3" stroke-linecap="round" stroke-linejoin="round"/>
<path d="M9.64286 68.1933H21.6429V65.6278C21.6429 64.2109 20.4916 63.0623 19.0714 63.0623H12.2143C10.7941 63.0623 9.64286 64.2109 9.64286 65.6278V68.1933Z" stroke="#179860" stroke-width="3" stroke-linecap="round" stroke-linejoin="round"/>
<path d="M11.3571 63.0623H19.9286V41.683H11.3571V63.0623Z" stroke="#179860" stroke-width="3" stroke-linecap="round" stroke-linejoin="round"/>
<path d="M4.5 72.4692C4.5 70.1077 6.41878 68.1933 8.78571 68.1933H72.2143C74.5812 68.1933 76.5 70.1077 76.5 72.4692V77.6002H4.5V72.4692Z" stroke="#179860" stroke-width="3" stroke-linecap="round" stroke-linejoin="round"/>
</g>
</g>
</svg>
