<svg width="80" height="80" viewBox="0 0 80 80" fill="none" xmlns="http://www.w3.org/2000/svg">
<g id="&#208;&#184;&#208;&#186;&#208;&#190;&#208;&#189;&#208;&#186;&#208;&#184; &#208;&#191;&#209;&#128;&#208;&#181;&#208;&#184;&#208;&#188;&#209;&#131;&#209;&#137;&#208;&#181;&#209;&#129;&#209;&#130;&#208;&#178;&#208;&#176;">
<path id="Vector" d="M58.9898 19.1972C64.7706 24.414 68.4044 31.9677 68.4044 40.3708C68.4044 56.1127 55.6519 68.8741 39.9209 68.8741C24.1899 68.8741 11.4374 56.1127 11.4374 40.3708C11.4374 31.9677 15.0711 24.414 20.852 19.1972M47.5165 19.5389C56.0106 22.6411 62.0747 30.7973 62.0747 40.3708C62.0747 52.6145 52.1561 62.5401 39.9209 62.5401C27.6856 62.5401 17.767 52.6145 17.767 40.3708C17.767 30.7973 23.8312 22.6411 32.3253 19.5389M14.6022 53.6723L4 64.2819V75.9999M4 75.9999H16.5011L26.7868 65.7071M4 75.9999L19.033 60.9565M65.3978 53.6723L76 64.2819V75.9999M76 75.9999H63.4989L53.2132 65.7071M76 75.9999L60.967 60.9565M16.1846 4.90001L20.6154 19.4684H59.2264L63.6571 4.90001L49.5736 10.9174L39.9209 4.2666L30.2681 10.9174L16.1846 4.90001ZM39.9209 27.0692L43.8274 34.9902L52.5626 36.2604L46.2417 42.426L47.7339 51.132L39.9209 47.0216L32.1079 51.132L33.6 42.426L27.2791 36.2604L36.0144 34.9902L39.9209 27.0692Z" stroke="#857067" stroke-width="3" stroke-linecap="round" stroke-linejoin="round"/>
</g>
</svg>
