<svg width="800" height="347" viewBox="0 0 800 347" fill="none" xmlns="http://www.w3.org/2000/svg">
<path d="M447.741 156.939H474.341L447.741 229.839C447.341 230.939 446.741 232.439 445.941 234.339C445.141 236.239 443.541 239.639 441.041 244.539C438.541 249.439 436.041 253.739 433.641 257.439C431.141 261.139 428.141 264.539 424.641 267.639C421.141 270.739 417.741 272.239 414.541 272.239C409.741 272.239 404.741 268.639 399.541 261.539C394.341 254.439 390.541 247.339 387.941 240.339L383.841 229.739L357.241 156.839L383.841 156.639L414.541 243.839L447.741 156.939Z" fill="#10372E"/>
<path d="M524.241 156.539V272.039H495.641V184.639C495.641 183.839 495.741 182.839 495.841 181.539C495.941 180.239 496.541 178.039 497.541 174.839C498.541 171.639 500.041 168.839 501.741 166.339C503.541 163.839 506.341 161.639 510.341 159.539C514.241 157.639 518.941 156.539 524.241 156.539Z" fill="#10372E"/>
<path d="M638.741 212.639C641.041 213.339 642.741 213.839 643.941 214.239C645.141 214.639 647.041 215.539 649.841 217.039C652.641 218.539 654.741 220.139 656.341 222.039C657.941 223.839 659.441 226.539 660.741 229.939C662.041 233.439 662.741 237.339 662.741 241.539V272.439H633.841V236.939C633.841 227.139 621.841 222.239 597.941 222.239C594.541 222.239 591.041 222.339 587.441 222.539C583.841 222.739 581.141 222.939 579.241 223.239L576.441 223.539V272.439H548.841V156.539H634.441C635.241 156.539 636.241 156.639 637.541 156.739C638.841 156.839 641.041 157.439 644.341 158.439C647.541 159.439 650.441 160.939 652.941 162.639C655.441 164.439 657.641 167.239 659.741 171.039C661.741 174.939 662.841 179.439 662.841 184.739C662.841 190.039 662.141 194.539 660.841 198.239C659.541 201.939 658.041 204.739 656.341 206.539C654.641 208.339 652.541 209.639 649.941 210.639C647.341 211.639 645.341 212.139 644.041 212.339C642.541 212.539 640.841 212.639 638.741 212.639ZM576.441 203.039H625.041C630.241 203.039 634.541 201.739 637.941 199.239C640.541 197.139 641.941 194.539 642.041 191.339C642.041 189.139 641.441 187.239 640.341 185.639C639.141 184.039 637.841 182.839 636.341 182.039C634.841 181.239 633.141 180.639 631.241 180.239C629.341 179.839 627.941 179.539 627.141 179.539C626.341 179.439 625.641 179.439 625.041 179.439H576.441V203.039Z" fill="#10372E"/>
<path d="M799.841 185.639V272.239H770.941V229.639H714.941V272.239H684.341V185.639C684.341 180.239 685.341 175.539 687.441 171.639C689.541 167.639 692.041 164.739 695.041 162.939C698.041 161.139 701.041 159.739 704.041 158.639C707.041 157.639 709.641 157.039 711.741 156.939L714.841 156.739H770.841C776.241 156.739 780.941 157.739 784.841 159.739C788.841 161.739 791.741 164.139 793.541 167.039C795.341 169.939 796.741 172.739 797.841 175.539C798.841 178.339 799.441 180.739 799.541 182.739L799.841 185.639ZM714.841 209.339H770.841V185.739H714.841V209.339Z" fill="#10372E"/>
<path d="M166.641 10.1392C166.741 10.6392 166.741 11.2392 166.741 11.7392C166.741 12.3392 166.841 12.9392 166.941 13.5392C167.941 19.4392 169.341 25.1392 170.241 31.0392C171.041 35.9392 171.541 40.1392 171.941 43.6392C172.541 49.3392 172.541 55.9392 172.141 63.4392C171.541 72.9392 168.541 82.2392 163.241 91.5392C161.341 94.7392 158.441 98.8392 154.641 103.839C152.141 107.139 149.841 111.339 147.741 116.339C145.941 120.439 145.041 124.239 144.741 127.639C144.341 133.339 145.241 138.839 147.441 144.039C147.741 144.739 147.841 144.739 147.841 143.939C147.441 138.539 147.841 132.539 150.041 127.439C152.141 122.439 154.841 117.839 158.241 113.739C161.341 110.039 164.641 106.239 168.341 102.239C170.041 100.439 171.941 97.6392 174.141 93.8392C178.841 86.0392 181.741 77.5392 182.841 68.1392C185.641 75.5392 186.541 82.9392 185.541 90.3392C184.541 97.8392 181.341 104.039 176.141 109.539C173.241 112.539 170.041 115.739 166.541 118.939C162.441 122.739 159.341 127.039 157.141 131.739C155.741 134.839 154.941 138.339 154.641 142.339C154.241 148.539 156.041 153.739 160.041 158.139C160.341 158.439 160.441 158.439 160.441 157.939C160.041 153.339 160.841 149.039 162.741 144.839C163.341 144.139 163.941 143.439 164.541 142.739C165.241 141.939 165.841 141.239 166.441 140.739C168.241 139.339 170.241 138.039 172.241 136.939C175.941 134.939 179.641 133.139 183.541 131.439C184.741 130.939 185.841 130.339 186.741 129.639C192.441 127.039 197.541 123.539 202.041 119.239C205.741 115.639 208.541 111.439 210.441 106.539C212.741 100.839 213.841 94.9392 213.941 88.7392C214.041 85.3392 213.541 81.8392 212.441 78.2392C211.441 74.7392 210.241 71.3392 208.741 68.2392C208.341 67.4392 208.541 66.8392 209.141 66.4392C212.341 70.9392 216.141 68.7392 219.341 66.1392C222.441 63.5392 225.541 60.9392 228.641 58.2392C229.141 57.8392 229.741 57.6392 230.141 57.0392C230.641 56.2392 230.841 56.3392 230.941 57.2392C230.941 57.7392 230.941 58.3392 230.841 58.7392C229.541 67.1392 228.341 75.3392 227.241 83.5392C226.741 87.0392 226.241 91.0392 225.541 95.4392C223.941 105.739 222.441 116.339 220.941 127.239C220.641 129.139 220.241 130.839 220.241 132.739C220.241 134.939 222.041 136.139 224.041 135.339C224.941 134.939 225.941 134.139 227.141 132.739C238.741 119.739 250.441 105.339 261.241 92.9392C261.541 92.6392 262.041 92.5392 262.441 92.8392C262.541 92.9392 262.641 93.0392 262.641 93.1392C264.741 98.2392 266.841 103.339 268.841 108.539C270.241 112.239 273.741 111.339 276.741 110.539C296.641 105.239 315.141 98.4392 332.641 88.1392C333.041 87.9392 333.541 87.8392 333.941 87.8392C334.141 87.8392 334.241 87.9392 334.141 88.2392C327.741 102.139 322.741 116.339 319.141 131.039C316.541 141.739 314.341 149.739 312.741 155.039C308.241 169.239 300.441 182.439 293.341 195.439C293.241 195.639 293.241 195.839 293.541 195.939C295.941 196.939 298.241 197.439 300.641 198.039C305.841 199.539 311.141 201.139 316.141 202.539C325.441 205.139 334.841 207.839 344.241 210.739C344.441 210.839 344.641 210.939 344.641 211.239C344.641 211.439 344.641 211.639 344.441 211.739C342.341 213.339 340.141 214.939 337.841 216.539C327.341 223.939 316.541 231.339 305.641 238.839C301.741 241.539 297.241 244.439 292.041 247.639C283.441 253.039 274.541 257.739 265.541 262.139C265.041 262.339 264.941 262.739 265.341 263.139C273.441 273.939 282.241 284.939 291.841 296.039C293.341 297.739 294.941 299.539 296.641 301.339C296.741 301.439 296.741 301.539 296.641 301.639L296.541 301.739C285.441 301.739 274.641 301.739 264.241 301.739C262.541 301.739 261.041 302.339 259.341 302.439C251.141 302.639 243.941 302.539 237.841 302.139C222.241 301.239 206.941 296.039 192.941 288.539C192.741 288.439 192.541 288.439 192.441 288.539C187.741 292.039 183.741 295.539 180.441 300.239C179.941 300.939 179.441 301.639 179.441 302.439C179.341 314.239 179.341 325.439 179.341 335.939C179.341 341.739 178.141 346.439 171.341 346.439C167.441 346.439 165.241 342.439 165.241 338.839C165.341 327.339 165.341 315.839 165.341 304.139C165.341 303.839 165.441 303.639 165.541 303.439C171.441 294.439 179.141 286.239 188.641 280.739C194.241 277.439 199.441 274.939 204.341 273.139C210.441 270.939 217.441 268.539 225.341 265.939C231.241 264.039 236.441 261.939 241.041 259.539C251.441 254.039 259.441 245.139 264.341 234.339C265.341 232.039 266.141 229.739 266.541 227.439C266.641 226.939 266.541 226.939 266.141 227.239C262.741 230.239 259.341 232.939 255.941 235.439C247.841 241.339 238.741 246.139 228.441 249.839C220.341 252.739 212.841 254.939 205.841 257.539C203.441 257.239 201.041 256.639 198.641 255.639C197.641 255.239 196.541 254.939 195.341 254.639C194.241 254.439 193.041 254.139 191.941 253.739H199.041C199.241 253.739 199.341 253.639 199.341 253.439C199.241 246.639 199.141 239.339 199.241 231.539C199.241 226.739 199.041 222.939 198.441 220.339C196.341 210.139 189.441 203.239 179.741 199.239C173.641 194.339 167.541 189.439 161.541 184.639C160.041 183.439 158.741 182.239 157.741 181.139L171.741 169.639C171.941 169.439 172.141 169.439 172.341 169.639L222.641 210.139C222.841 210.339 222.941 210.539 222.941 210.739L222.841 241.339C222.841 241.639 222.941 241.739 223.241 241.639C226.341 240.639 229.441 239.339 232.641 237.839C232.841 237.739 232.941 237.539 232.941 237.339L232.841 218.339C232.841 218.239 232.941 218.039 233.141 218.039C233.241 218.039 233.241 218.039 233.341 218.139L247.041 229.939C247.241 230.139 247.441 230.139 247.641 229.939C249.441 228.239 251.641 226.639 254.141 225.039C255.141 224.439 256.041 223.739 256.941 223.039C257.241 222.739 257.241 222.439 256.941 222.139L224.241 196.239C223.841 195.939 223.741 195.539 223.741 195.139V155.439C223.741 155.339 223.641 155.239 223.641 155.239H195.141C195.041 155.239 194.841 155.339 194.841 155.539L194.741 171.739C194.741 172.039 194.641 172.139 194.341 171.939C193.541 171.239 192.741 170.439 191.941 169.839C184.941 164.639 178.441 159.539 172.341 154.539C172.241 154.439 172.041 154.439 171.941 154.539L125.441 192.339C125.341 192.439 125.241 192.439 125.241 192.339C125.141 192.239 125.141 192.039 125.141 191.839C125.641 187.939 126.441 184.139 126.441 180.239C126.541 175.239 126.241 170.139 125.741 164.639C125.341 161.139 124.641 157.539 123.441 153.839C120.641 144.839 116.941 136.639 112.341 129.239C112.241 129.039 112.141 128.739 112.241 128.539C112.341 128.239 112.641 128.039 113.241 127.939C115.041 130.039 116.941 132.039 118.941 133.839C119.841 134.739 120.641 135.139 121.341 135.339C123.541 135.739 125.141 133.739 124.841 131.639C123.841 123.739 122.741 115.539 121.341 107.239C120.741 103.439 120.141 99.4392 119.541 95.3392C118.641 88.8392 117.641 82.4392 116.541 75.9392C115.741 70.9392 115.141 65.9392 114.441 60.7392C114.241 59.4392 114.141 58.1392 114.041 56.7392C114.041 56.3392 114.141 56.3392 114.441 56.5392C119.341 61.0392 124.041 64.8392 128.541 67.8392C129.941 68.7392 132.041 69.0392 133.641 68.3392C135.441 67.6392 136.741 66.3392 137.741 64.5392C146.141 49.0392 155.041 32.4392 164.241 14.5392C164.841 13.4392 165.741 11.8392 166.641 10.1392ZM249.041 164.539C247.341 153.639 247.341 142.139 251.341 132.039C252.041 130.339 253.041 128.639 254.441 126.739C254.441 126.739 254.441 126.739 254.441 126.639C254.441 126.639 254.441 126.639 254.341 126.639C254.341 126.639 254.341 126.639 254.241 126.639C253.041 127.739 252.141 128.939 251.241 130.139C249.441 132.839 247.741 135.639 246.141 138.739C241.141 148.039 239.441 160.039 243.541 170.039C243.641 170.339 243.541 170.739 243.341 170.939C238.341 174.939 235.441 180.039 233.741 186.339C233.641 186.739 233.741 186.739 233.941 186.439C235.241 184.639 236.841 183.039 238.641 181.739C241.741 179.439 245.241 177.739 249.041 176.639C250.441 176.239 252.541 176.039 255.541 176.139C257.541 176.139 259.641 176.039 261.841 175.839C269.841 174.939 277.241 171.839 284.041 166.539C286.441 164.639 288.941 162.639 291.541 160.439C288.841 161.839 286.341 163.539 283.441 164.639C274.541 167.939 265.341 169.439 255.741 169.039C255.441 169.039 255.341 168.839 255.541 168.639C255.941 168.039 256.741 167.639 257.241 167.139C265.241 159.039 273.741 150.639 282.641 141.739C290.441 134.039 297.841 125.839 304.941 117.339C305.641 116.539 306.341 115.639 307.241 114.839C307.741 114.339 307.741 114.239 307.141 114.739C300.041 120.239 292.841 125.739 286.041 131.639C273.641 142.439 261.441 153.439 249.441 164.739C249.341 164.739 249.241 164.739 249.041 164.539C249.141 164.639 249.041 164.639 249.041 164.539ZM299.541 217.739C291.741 217.939 284.141 220.239 276.941 224.039C276.241 224.439 275.541 224.839 274.941 225.439C274.741 225.639 274.741 225.739 275.041 225.739C277.541 225.739 280.141 225.639 282.841 225.639C293.041 225.639 302.041 222.039 311.241 217.939C311.541 217.839 311.441 217.739 311.241 217.739C307.441 217.639 303.541 217.639 299.541 217.739ZM251.841 282.539C246.941 280.339 242.041 278.339 236.841 277.439C232.141 276.639 227.841 276.839 223.541 276.439C222.841 276.339 222.741 276.539 223.341 277.039C230.341 282.339 238.441 285.139 247.641 285.339C250.741 285.439 253.941 285.439 257.441 285.539C257.941 285.539 257.941 285.439 257.541 285.239C255.641 284.339 253.741 283.439 251.841 282.539Z" fill="#013C24"/>
<path d="M207.641 64.2392L209.141 66.4392C208.541 66.8392 208.341 67.3392 208.741 68.2392C210.241 71.4392 211.441 74.7392 212.441 78.2392C213.441 81.8392 213.941 85.4392 213.941 88.7392C213.841 94.9392 212.641 100.839 210.441 106.539C208.541 111.439 205.641 115.639 202.041 119.239C197.641 123.539 192.541 127.039 186.741 129.639C192.241 125.239 196.441 121.239 199.341 117.639C202.641 113.639 205.441 108.939 207.641 103.539C209.341 99.5393 210.341 95.6393 210.641 91.9393C211.141 87.1393 210.841 82.3393 209.641 77.5393L206.441 64.3392C206.341 64.0392 206.541 63.7392 206.841 63.7392C207.041 63.6392 207.241 63.7393 207.341 63.9393L207.641 64.2392Z" fill="#3F9E09"/>
<path d="M209.741 77.4392L206.541 64.2392C206.441 64.0392 206.541 63.8392 206.741 63.7392C206.941 63.5392 207.241 63.6392 207.441 63.8392L207.741 64.2392C197.841 46.9392 188.241 29.5392 178.941 12.0392C176.841 8.13923 174.841 4.13922 172.841 0.239215C172.841 0.139215 172.741 0.0392337 172.641 0.0392337C172.441 -0.0607663 172.141 0.0392154 171.941 0.239215L166.741 10.2392C166.841 10.7392 166.841 11.3392 166.841 11.8392C166.841 12.4392 166.941 13.0392 167.041 13.6392C168.041 19.5392 169.441 25.2392 170.341 31.1392C171.141 36.0392 171.641 40.2392 172.041 43.7392C172.641 49.4392 172.641 56.0392 172.241 63.5392C171.641 73.0392 168.641 82.3392 163.341 91.6392C161.441 94.8392 158.541 98.9392 154.741 103.939C152.241 107.239 149.941 111.439 147.841 116.439C146.041 120.539 145.141 124.339 144.841 127.739C144.441 133.439 145.341 138.939 147.541 144.139C147.841 144.839 147.941 144.839 147.941 144.039C147.541 138.639 147.941 132.639 150.141 127.539C152.241 122.539 154.941 117.939 158.341 113.839C161.441 110.139 164.741 106.339 168.441 102.339C170.141 100.539 172.041 97.7392 174.241 93.9392C178.941 86.1392 181.841 77.6392 182.941 68.2392L182.341 65.5392C182.241 65.1392 182.341 65.0392 182.641 65.3392C187.741 70.1392 191.241 75.9392 193.341 82.7392C195.841 89.8392 195.641 97.3392 193.341 104.639C193.041 105.639 192.641 106.639 192.141 107.539C190.941 109.939 189.941 112.239 188.341 114.339C185.341 118.539 182.341 121.939 179.341 124.539C175.741 127.739 172.841 130.339 170.641 132.439C167.141 135.839 164.541 139.939 162.841 144.739C163.441 144.039 164.041 143.339 164.641 142.639C165.341 141.839 165.941 141.139 166.541 140.639C168.341 139.239 170.341 137.939 172.341 136.839C176.041 134.839 179.741 133.039 183.641 131.339C184.841 130.839 185.941 130.239 186.841 129.539C192.341 125.139 196.541 121.139 199.441 117.539C202.741 113.539 205.541 108.839 207.741 103.439C209.441 99.4392 210.441 95.5392 210.741 91.8392C211.141 87.0392 210.841 82.2392 209.741 77.4392Z" fill="#52BA0F"/>
<path d="M107.541 121.739L113.041 128.239C112.541 128.339 112.141 128.539 112.041 128.839C111.941 129.039 111.941 129.339 112.141 129.539C116.741 136.839 120.441 145.039 123.241 154.139C124.441 157.839 125.141 161.439 125.541 164.939C126.141 170.339 126.341 175.539 126.241 180.539C126.141 184.539 125.441 188.339 124.941 192.139C124.941 192.339 124.941 192.439 125.041 192.639C125.041 192.739 125.141 192.739 125.241 192.639L119.841 197.139C119.841 196.439 119.941 195.739 120.141 195.039C120.341 194.139 120.441 193.439 120.441 192.939C120.741 184.839 120.641 176.739 119.841 168.839C119.541 165.139 118.841 161.339 118.041 157.339C116.441 150.039 114.841 143.839 113.441 138.639C112.341 134.639 110.041 129.439 106.641 123.139C106.541 122.939 106.541 122.739 106.541 122.539C106.541 122.339 106.541 122.139 106.341 122.039C106.241 121.939 106.141 121.739 106.141 121.539C106.141 121.439 106.241 121.339 106.241 121.339C106.341 121.239 106.541 121.239 106.641 121.339L107.541 121.739Z" fill="#3F9E09"/>
<path d="M205.441 181.939V166.239C205.441 166.139 205.541 166.039 205.641 166.039L213.141 165.939C213.241 165.939 213.341 166.039 213.341 166.139L213.241 187.539C213.241 187.639 213.141 187.739 213.041 187.739H212.941L205.441 182.139C205.541 182.039 205.441 182.039 205.441 181.939Z" fill="#013C24"/>
<path d="M153.541 223.739C154.041 215.039 159.841 208.639 168.441 207.439C168.541 207.439 168.641 207.539 168.641 207.639L168.741 223.939C168.741 224.039 168.641 224.239 168.541 224.239H153.841C153.641 224.039 153.541 223.939 153.541 223.739Z" fill="#013C24"/>
<path d="M190.341 218.639C191.041 220.339 191.241 222.039 191.041 223.939C191.041 224.039 190.941 224.139 190.841 224.139H176.241C176.041 224.139 175.941 224.039 175.941 223.839L175.841 207.639C175.841 207.439 175.941 207.339 176.141 207.339C176.941 207.339 177.741 207.539 178.541 207.839C184.241 209.639 188.141 213.239 190.341 218.639Z" fill="#013C24"/>
<path d="M154.041 231.039H168.641C168.741 231.039 168.841 231.139 168.841 231.239V245.439C168.841 245.539 168.741 245.639 168.641 245.639H154.041C153.941 245.639 153.841 245.539 153.841 245.439V231.239C153.841 231.139 153.941 231.039 154.041 231.039Z" fill="#013C24"/>
<path d="M176.041 231.139H190.841C190.941 231.139 191.041 231.239 191.041 231.339V245.439C191.041 245.539 190.941 245.639 190.841 245.639H176.041C175.941 245.639 175.841 245.539 175.841 245.439V231.339C175.941 231.139 175.941 231.139 176.041 231.139Z" fill="#013C24"/>
<path d="M198.641 255.939C197.641 255.539 196.541 255.239 195.341 254.939C194.241 254.739 193.041 254.439 191.941 254.039H145.941C145.641 254.039 145.441 253.839 145.441 253.539C145.441 245.739 145.441 237.739 145.441 229.439C145.441 224.339 145.841 220.439 146.641 217.839C148.441 211.739 151.941 206.939 156.941 203.439C162.241 199.839 167.841 198.239 173.841 198.539C175.941 198.639 177.841 199.139 179.841 199.539C173.741 194.639 167.641 189.739 161.641 184.939C160.141 183.739 158.841 182.539 157.841 181.439C152.741 185.539 147.541 189.739 142.341 193.739C135.741 198.939 129.341 204.439 122.941 209.739C122.341 210.239 122.041 210.839 122.041 211.639L122.341 256.339C122.341 256.839 122.141 257.039 121.641 257.039H112.041C111.741 257.039 111.541 256.839 111.541 256.539L111.641 218.839C111.641 218.739 111.641 218.739 111.541 218.639C111.441 218.539 111.341 218.539 111.241 218.639C106.341 222.639 101.641 226.739 97.1414 230.839C96.9414 231.039 96.8414 231.039 96.6414 230.839L87.7414 223.039C87.6414 222.939 87.6414 222.739 87.7414 222.639L119.941 196.939C119.941 196.239 120.041 195.539 120.241 194.839C120.441 193.939 120.541 193.239 120.541 192.739C120.841 184.639 120.741 176.539 119.941 168.639C119.641 164.939 118.941 161.139 118.141 157.139C116.541 149.839 114.941 143.639 113.541 138.439C112.441 134.439 110.141 129.239 106.741 122.939C106.641 122.739 106.641 122.539 106.641 122.339C106.641 122.139 106.641 121.939 106.441 121.839C106.341 121.739 106.241 121.539 106.241 121.339C106.241 121.239 106.341 121.139 106.341 121.139C106.441 121.039 106.641 121.039 106.741 121.139L107.441 121.639L82.7414 93.1392L82.6414 93.0392C82.4414 92.9392 82.2414 93.0392 82.2414 93.2392C79.9414 98.6392 77.6414 104.039 75.3414 109.439C74.9414 110.339 74.3414 110.939 73.3414 111.039C72.2414 111.139 71.3414 111.039 70.7414 110.939C59.8414 108.639 49.0414 104.839 38.3414 100.839C32.3414 98.5392 26.4414 95.9392 20.5414 92.9392C17.4414 91.3392 14.4414 89.4392 11.3414 87.9392C10.7414 87.6392 10.5414 87.7392 10.8414 88.4392C15.4414 98.0392 19.0414 108.139 22.1414 118.439C24.9414 127.639 27.2414 139.139 29.4414 146.439C33.0414 158.639 36.2414 167.339 41.6414 177.539C45.0414 184.039 47.9414 189.239 50.1414 193.339C50.6414 194.239 51.1414 195.239 51.6414 196.139C51.6414 196.139 51.6414 196.139 51.6414 196.239C51.6414 196.439 51.5414 196.539 51.4414 196.639C47.6414 197.639 43.9414 198.739 40.1414 199.839C36.7414 200.839 33.0414 201.939 28.9414 203.039C21.2414 205.039 12.0414 207.739 1.34141 211.039C0.841411 211.139 0.441414 211.339 0.141414 211.539C0.141414 211.539 0.0414233 211.539 0.0414233 211.639C-0.0585767 211.739 0.0414141 211.939 0.141414 211.939C3.84141 214.239 7.14142 216.939 10.7414 219.539C20.2414 226.439 29.8414 233.239 39.6414 239.739C51.5414 247.739 63.5414 254.939 75.7414 261.239C76.8414 261.839 77.9414 262.239 79.0414 262.639C79.1414 262.639 79.1414 262.639 79.1414 262.739C79.3414 262.939 79.4414 263.239 79.2414 263.439L78.6414 264.239C68.8414 277.039 58.7414 289.539 48.3414 301.939V302.039C48.3414 302.139 48.4414 302.239 48.5414 302.239C60.6414 302.139 72.9414 301.939 85.6414 302.639C90.1414 302.939 94.4414 302.839 98.9414 302.739C102.141 302.739 105.041 302.539 107.441 302.339C116.141 301.639 123.841 299.739 133.241 296.939C142.941 293.639 152.141 289.139 160.641 283.239C168.841 277.539 176.941 271.639 185.941 267.039C192.541 263.639 199.241 260.539 205.941 257.939C203.541 257.539 201.141 256.939 198.641 255.939ZM108.041 274.439C107.941 274.439 107.941 274.439 108.041 274.439V274.439ZM93.6414 272.039C93.6414 272.139 93.6414 272.139 93.6414 272.239C93.6414 272.139 93.6414 272.039 93.6414 272.039ZM93.5414 272.339L93.4414 272.439C93.5414 272.439 93.5414 272.339 93.5414 272.339ZM93.3414 272.539L93.2414 272.639C93.3414 272.639 93.3414 272.639 93.3414 272.539ZM93.1414 272.739C93.1414 272.739 93.0414 272.739 92.9414 272.739C93.0414 272.739 93.0414 272.739 93.1414 272.739ZM92.3414 273.039C92.3414 273.139 92.2414 273.139 92.2414 273.239C92.2414 273.139 92.3414 273.039 92.3414 273.039ZM91.9414 273.439C91.8414 273.439 91.8414 273.539 91.7414 273.539C91.8414 273.439 91.8414 273.439 91.9414 273.439ZM91.7414 273.539H91.6414C91.6414 273.539 91.6414 273.539 91.7414 273.539ZM91.3414 273.539C91.2414 273.539 91.2414 273.539 91.1414 273.539C91.1414 273.539 91.2414 273.539 91.3414 273.539ZM91.0414 273.539C90.9414 273.539 90.9414 273.539 90.8414 273.439C90.9414 273.439 91.0414 273.439 91.0414 273.539ZM73.0414 225.639C68.9414 225.639 65.1414 225.639 61.6414 225.539C58.1414 225.439 54.3414 224.839 50.3414 223.839C44.9414 222.539 40.1414 219.639 35.1414 217.539C34.3414 217.239 34.4414 217.039 35.2414 217.139C36.1414 217.139 37.1414 217.439 38.0414 217.439C43.8414 217.339 49.3414 217.739 54.6414 218.539C59.6414 219.339 64.3414 221.439 68.8414 223.539C70.2414 224.239 71.8414 224.539 73.2414 225.139C73.8414 225.439 73.8414 225.539 73.0414 225.639ZM72.2414 172.939C65.5414 169.839 59.3414 165.639 53.5414 160.439V160.339H53.6414C57.5414 162.939 61.6414 164.839 66.0414 166.039C69.9414 167.139 73.7414 168.039 77.7414 168.339C81.4414 168.539 85.1414 168.639 88.7414 168.639C89.1414 168.639 89.1414 168.539 88.8414 168.239C70.5414 150.939 53.6414 133.539 38.3414 116.039C37.8414 115.539 37.3414 114.939 36.6414 114.339C36.5414 114.239 36.5414 114.239 36.6414 114.139C36.7414 114.039 36.7414 114.039 36.8414 114.139C39.1414 115.739 41.3414 117.439 43.5414 119.239C56.0414 129.239 64.4414 136.139 68.7414 140.039C74.4414 145.239 80.1414 150.339 85.8414 155.439C89.1414 158.439 91.9414 161.439 95.0414 164.439C95.1414 164.439 95.1414 164.539 95.2414 164.539C95.4414 164.639 95.7414 164.439 95.7414 164.239C95.9414 163.439 96.1414 162.639 96.2414 161.739C96.7414 156.339 96.8414 151.239 96.6414 146.339C96.2414 139.139 94.2414 132.639 90.4414 126.639C90.1414 126.139 90.1414 126.139 90.5414 126.539C96.2414 133.339 100.941 141.639 102.641 150.139C103.841 156.339 103.441 162.739 101.441 169.639C101.341 170.139 101.441 170.539 101.741 170.939C102.341 171.539 103.041 172.239 103.941 173.039C108.041 176.739 109.941 181.939 110.941 187.139C111.041 187.739 110.941 187.839 110.541 187.339C107.741 183.639 104.341 180.539 100.341 178.139C98.0414 176.839 95.3414 176.139 92.6414 176.139C85.7414 176.339 78.4414 175.839 72.2414 172.939ZM108.541 284.139C106.541 284.739 103.941 285.139 100.741 285.339C96.1414 285.539 91.5414 285.639 86.9414 285.639C85.9414 285.639 85.9414 285.539 86.8414 285.239C87.4414 285.039 87.9414 284.839 88.5414 284.539C93.5414 282.239 97.7414 280.339 101.141 279.039C104.941 277.639 109.641 276.839 115.241 276.839L123.641 276.539C124.241 276.539 124.241 276.639 123.741 276.939L121.241 278.239C116.841 280.839 112.641 282.839 108.541 284.139ZM131.241 296.739V296.639C131.241 296.639 131.341 296.639 131.241 296.739C131.341 296.739 131.341 296.639 131.241 296.739Z" fill="#3F9E09"/>
</svg>
