<svg width="81" height="80" viewBox="0 0 81 80" fill="none" xmlns="http://www.w3.org/2000/svg">
<g id="&#208;&#184;&#208;&#186;&#208;&#190;&#208;&#189;&#208;&#186;&#208;&#184; &#208;&#190;&#208;&#191;&#208;&#187;&#208;&#176;&#209;&#130;&#208;&#176;">
<path id="Vector 133" d="M27.825 43.4779V48.1292M19.767 55.4938C19.767 61.0127 23.8509 63.9777 28.1423 66.3469M19.767 55.4938L5.56955 40.7646C3.39517 37.4053 0.504524 28.8262 6.33698 21.3841C12.7834 12.0815 22.2725 13.7883 26.2112 15.8046M19.767 55.4938C19.767 52.775 19.767 50.2548 19.767 48.1292M29.7436 35.3381C21.7623 35.3381 19.767 39.9894 19.767 42.315C19.767 43.3309 19.767 45.4063 19.767 48.1292M29.7436 35.3381L23.9878 30.2992C30.1273 30.2992 30.6389 25.6478 30.1273 23.3221M29.7436 35.3381C30.3622 35.4422 31.23 35.5254 32.0458 35.486M34.3481 30.6867C34.3481 31.2035 34.3481 32.6248 34.3481 34.1752C34.3481 35.1008 33.2542 35.4278 32.0458 35.486M34.3481 30.6867C32.9412 29.7823 30.1273 27.0432 30.1273 23.3221M34.3481 30.6867C38.9527 34.5628 42.7899 33.0124 46.627 30.6867M30.1273 23.3221C30.1273 19.6011 30.1273 18.4124 30.1273 18.2832M30.1273 23.3221C28.5924 23.1929 25.5227 22.0042 25.5227 18.2832C25.5227 16.9938 25.8003 16.2256 26.2112 15.8046M30.1273 18.2832C29.7539 17.7982 29.2915 16.9761 28.9906 15.9576M30.1273 18.2832C31.1627 18.4912 34.0519 17.8984 37.3255 13.8633M34.7319 6.65487C32.8133 6.26726 31.2784 7.04248 29.3598 10.9186C28.4651 12.7262 28.5701 14.5339 28.9906 15.9576M34.7319 6.65487C35.3714 4.32918 38.262 0.453028 44.7084 3.55391C51.1548 6.6548 52.7664 12.0813 52.7664 14.407C52.2104 15.0623 51.4539 15.5692 50.6194 15.9576M34.7319 6.65487C34.7319 8.58133 35.3638 11.5716 37.3255 13.8633M50.6194 15.9576C48.6895 16.8558 46.3423 17.1203 45.0921 17.1203C41.381 17.1203 38.9161 15.7215 37.3255 13.8633M50.6194 15.9576V23.3221M50.6194 15.9576C51.397 15.6866 52.5822 15.4866 53.5339 15.8046M50.6194 23.3221C50.5677 25.0018 49.6967 28.8262 46.627 30.6867M50.6194 23.3221C52.1025 22.9345 55.0687 21.3841 55.0687 18.2832C55.0687 16.808 54.3974 16.0931 53.5339 15.8046M50.6194 23.3221C50.3119 25.6478 51.1548 30.2992 56.9873 30.2992L51.6153 35.3381M46.627 30.6867V34.1752C46.627 34.5628 47.1642 35.3381 49.313 35.3381M53.5339 15.8046C56.9873 14.1759 65.3523 12.1588 71.1847 17.1203C78.4753 23.3221 81.1613 36.8885 73.487 44.2531C69.5575 48.0241 64.8944 52.6313 61.2081 56.3064M56.2199 61.308C54.685 55.1063 48.6735 50.9717 45.8596 49.6797M56.2199 61.308C56.4757 66.6053 54.4548 77.2776 44.3247 77.5876C31.6621 77.9753 28.4596 69.0602 28.1423 66.3469M56.2199 61.308C57.3708 60.1453 59.135 58.3733 61.2081 56.3064M28.1423 66.3469C29.8788 67.3057 31.6494 68.1668 33.197 69.0602C38.569 72.1611 39.3364 72.1611 43.1736 70.223C46.2433 68.6726 44.4526 66.2177 43.1736 65.1841L27.825 56.269V48.1292M28.9906 15.9576C28.2352 15.451 26.9862 15.0106 26.2112 15.8046M49.313 35.3381C51.4618 35.3381 54.5571 35.3381 55.8361 35.3381C57.6268 35.4672 61.2081 37.0435 61.2081 42.315C61.2081 44.2003 61.2081 46.211 61.2081 48.1292M49.313 35.3381C49.1851 37.6637 47.2409 42.315 40.4875 42.315C33.7342 42.315 32.0458 37.7624 32.0458 35.486M61.2081 56.3064C61.2081 54.7215 61.2081 51.5747 61.2081 48.1292M61.2081 48.1292H53.1501M53.1501 48.1292V43.4779M53.1501 48.1292V55.1062M27.825 48.1292H19.767" stroke="#179860" stroke-width="3" stroke-linecap="round" stroke-linejoin="round"/>
</g>
</svg>
