<svg width="18" height="18" viewBox="0 0 18 18" fill="none" xmlns="http://www.w3.org/2000/svg">
<path d="M10.4062 16.875C9.43692 16.8738 8.50763 16.4882 7.82221 15.8028C7.13678 15.1174 6.75119 14.1881 6.75 13.2188V6.75C6.75 6.15326 6.98705 5.58097 7.40901 5.15901C7.83097 4.73705 8.40326 4.5 9 4.5C9.59674 4.5 10.169 4.73705 10.591 5.15901C11.0129 5.58097 11.25 6.15326 11.25 6.75V12.9375C11.25 13.0867 11.1907 13.2298 11.0852 13.3352C10.9798 13.4407 10.8367 13.5 10.6875 13.5C10.5383 13.5 10.3952 13.4407 10.2898 13.3352C10.1843 13.2298 10.125 13.0867 10.125 12.9375V6.75C10.125 6.45163 10.0065 6.16548 9.7955 5.9545C9.58452 5.74353 9.29837 5.625 9 5.625C8.70163 5.625 8.41548 5.74353 8.2045 5.9545C7.99353 6.16548 7.875 6.45163 7.875 6.75V13.2188C7.875 13.8901 8.14168 14.5339 8.61639 15.0086C9.09109 15.4833 9.73492 15.75 10.4062 15.75C11.0776 15.75 11.7214 15.4833 12.1961 15.0086C12.6708 14.5339 12.9375 13.8901 12.9375 13.2188V6.1875C12.9375 5.14321 12.5227 4.14169 11.7842 3.40327C11.0458 2.66484 10.0443 2.25 9 2.25C7.95571 2.25 6.95419 2.66484 6.21577 3.40327C5.47734 4.14169 5.0625 5.14321 5.0625 6.1875V11.8125C5.0625 11.9617 5.00324 12.1048 4.89775 12.2102C4.79226 12.3157 4.64918 12.375 4.5 12.375C4.35082 12.375 4.20774 12.3157 4.10225 12.2102C3.99676 12.1048 3.9375 11.9617 3.9375 11.8125V6.1875C3.9375 4.84484 4.47087 3.55717 5.42027 2.60777C6.36967 1.65837 7.65734 1.125 9 1.125C10.3427 1.125 11.6303 1.65837 12.5797 2.60777C13.5291 3.55717 14.0625 4.84484 14.0625 6.1875V13.2188C14.0613 14.1881 13.6757 15.1174 12.9903 15.8028C12.3049 16.4882 11.3756 16.8738 10.4062 16.875Z" fill="#857067"/>
</svg>
