<svg width="32" height="40" viewBox="0 0 32 40" fill="none" xmlns="http://www.w3.org/2000/svg">
<path d="M10.8468 33.9914C10.8089 33.9914 10.771 33.988 10.7337 33.9812C10.653 33.9665 10.5759 33.9359 10.507 33.8914C10.438 33.8469 10.3785 33.7892 10.3318 33.7217C10.2852 33.6542 10.2523 33.5781 10.235 33.4979C10.2177 33.4176 10.2165 33.3348 10.2312 33.254C11.4614 26.5171 8.76246 22.5721 8.73543 22.5331C8.66367 22.4308 8.62423 22.3093 8.6222 22.1844C8.62016 22.0594 8.65563 21.9367 8.72402 21.8321C9.12418 21.22 9.41418 19.4451 9.42871 17.516C9.44715 15.1301 9.05777 13.9806 8.8773 13.8225C8.65247 13.6689 8.39317 13.5732 8.12246 13.544C7.85175 13.5148 7.57801 13.5529 7.32558 13.655C7.13329 13.7305 6.96493 13.8565 6.83819 14.0197C6.71146 14.1828 6.63105 14.3771 6.60543 14.5821C6.48386 15.3731 6.10746 16.4939 5.67136 17.7915C5.19043 19.2232 4.64527 20.8462 4.38855 22.2268C4.09595 23.8893 3.95548 25.5751 3.96886 27.2631C3.97271 27.4219 3.91595 27.5762 3.81011 27.6946L1.36121 30.4357C1.30653 30.497 1.24034 30.5468 1.1664 30.5824C1.09246 30.6181 1.01223 30.6388 0.930281 30.6434C0.848333 30.6481 0.766276 30.6365 0.688795 30.6094C0.611314 30.5823 0.539926 30.5403 0.478708 30.4856C0.417489 30.4309 0.367639 30.3647 0.332002 30.2908C0.296366 30.2168 0.275643 30.1366 0.271014 30.0547C0.266386 29.9727 0.277943 29.8906 0.305027 29.8132C0.332111 29.7357 0.374191 29.6643 0.428864 29.6031L2.71558 27.0428C2.71517 25.3515 2.86371 23.6635 3.15949 21.9982C3.43246 20.5312 3.99246 18.8642 4.48652 17.3935C4.88668 16.2021 5.26464 15.077 5.37011 14.392C5.42878 13.9755 5.59578 13.5817 5.85441 13.25C6.11304 12.9183 6.45424 12.6603 6.84386 12.5018C7.29452 12.3176 7.78425 12.2495 8.26809 12.3038C8.75192 12.3581 9.21436 12.5331 9.61293 12.8128C11.0918 13.8809 10.8926 20.0096 9.96574 22.1446C10.6337 23.2826 12.5925 27.2817 11.4607 33.4795C11.4343 33.6231 11.3584 33.7529 11.2463 33.8464C11.1342 33.9399 10.9928 33.9912 10.8468 33.9914ZM9.77996 39.6079C9.65738 39.6079 9.53753 39.5718 9.43531 39.5041C9.3331 39.4365 9.25303 39.3403 9.20507 39.2275C9.15711 39.1147 9.14338 38.9902 9.16558 38.8697C9.18779 38.7491 9.24495 38.6378 9.32996 38.5495L11.4617 36.3356C11.5335 36.2609 11.6228 36.2052 11.7215 36.1737C11.8202 36.1421 11.9252 36.1356 12.027 36.1548C12.0503 36.1592 14.4801 36.5898 16.552 35.5542C18.7101 34.4751 19.8132 33.6823 20.2462 32.095C20.2911 31.9366 20.3966 31.8023 20.54 31.7213C20.6833 31.6402 20.8528 31.619 21.0116 31.6623C21.1705 31.7055 21.3058 31.8096 21.3884 31.9521C21.4709 32.0945 21.4938 32.2638 21.4523 32.4231C20.9006 34.4456 19.5009 35.4765 17.1111 36.6714C15.1321 37.6609 12.9659 37.5315 12.1398 37.4326L10.2301 39.4165C10.1719 39.4771 10.102 39.5254 10.0246 39.5583C9.94725 39.5912 9.86403 39.608 9.77996 39.6079ZM27.1657 27.0332C27.0036 27.0333 26.8477 26.9704 26.7311 26.8578C26.6144 26.7451 26.5462 26.5915 26.5407 26.4294C26.5352 26.2673 26.5929 26.1095 26.7016 25.9892C26.8103 25.8688 26.9616 25.7955 27.1234 25.7846L28.8446 25.6664C29.15 25.639 29.4322 25.492 29.6296 25.2575C29.8271 25.023 29.9239 24.7199 29.8989 24.4144C29.8739 24.1088 29.7291 23.8255 29.4961 23.6262C29.2632 23.4269 28.9609 23.3278 28.6551 23.3504L27.5626 23.4368C27.4806 23.4437 27.398 23.4343 27.3197 23.4091C27.2413 23.384 27.1687 23.3436 27.1059 23.2903C27.0432 23.237 26.9916 23.1719 26.9542 23.0986C26.9167 23.0253 26.894 22.9453 26.8876 22.8633C26.8811 22.7812 26.8908 22.6987 26.9163 22.6205C26.9418 22.5422 26.9825 22.4697 27.0361 22.4073C27.0896 22.3448 27.155 22.2935 27.2284 22.2563C27.3019 22.2192 27.3819 22.1969 27.464 22.1907L28.5565 22.1043C29.1914 22.059 29.8184 22.2664 30.301 22.6814C30.7836 23.0965 31.0825 23.6854 31.1327 24.3199C31.1829 24.9544 30.9802 25.583 30.5689 26.0687C30.1576 26.5545 29.5709 26.8579 28.9368 26.9129L27.2092 27.0317C27.1946 27.0328 27.1801 27.0332 27.1657 27.0332Z" fill="#857067"/>
<path d="M27.1658 23.4389C27.0037 23.4382 26.8482 23.3745 26.7321 23.2613C26.616 23.1482 26.5485 22.9943 26.5437 22.8323C26.539 22.6702 26.5973 22.5127 26.7066 22.3929C26.8158 22.2731 26.9673 22.2004 27.129 22.1901L28.5686 22.1037C28.8738 22.0756 29.1556 21.9279 29.3525 21.6929C29.5494 21.458 29.6454 21.1547 29.6197 20.8492C29.5939 20.5437 29.4485 20.2608 29.2151 20.062C28.9816 19.8633 28.6791 19.7649 28.3734 19.7883L27.2809 19.8747C27.1157 19.8877 26.952 19.8346 26.8259 19.727C26.6998 19.6194 26.6216 19.4661 26.6085 19.3008C26.5954 19.1356 26.6485 18.9719 26.7561 18.8458C26.8638 18.7197 27.0171 18.6415 27.1823 18.6284L28.275 18.5422C28.9126 18.4918 29.5442 18.6967 30.0307 19.1119C30.5172 19.5272 30.8189 20.1187 30.8693 20.7563C30.9197 21.394 30.7147 22.0255 30.2995 22.512C29.8843 22.9986 29.2928 23.3002 28.6551 23.3506L27.2033 23.438C27.1911 23.438 27.1784 23.4389 27.1658 23.4389Z" fill="#857067"/>
<path d="M27.2311 19.8762C27.0695 19.8763 26.9142 19.8138 26.7976 19.7018C26.6811 19.5898 26.6125 19.437 26.6062 19.2756C26.5999 19.1141 26.6564 18.9564 26.7638 18.8357C26.8712 18.715 27.0213 18.6405 27.1824 18.628L28.275 18.5418C28.4271 18.5298 28.5753 18.4879 28.7113 18.4186C28.8472 18.3493 28.9681 18.2539 29.0672 18.1379C29.1662 18.0219 29.2414 17.8874 29.2885 17.7423C29.3356 17.5972 29.3537 17.4443 29.3417 17.2922C29.3297 17.1401 29.2878 16.9919 29.2185 16.8559C29.1492 16.72 29.0538 16.5991 28.9378 16.5001C28.8217 16.401 28.6873 16.3258 28.5422 16.2787C28.3971 16.2316 28.2441 16.2135 28.0921 16.2255L27.2157 16.2948C27.0508 16.3071 26.8878 16.2536 26.7623 16.146C26.6368 16.0385 26.5591 15.8856 26.546 15.7208C26.533 15.556 26.5857 15.3928 26.6928 15.2668C26.7998 15.1409 26.9523 15.0624 27.1171 15.0487L27.9935 14.9793C28.6311 14.9289 29.2627 15.1339 29.7492 15.5491C30.2357 15.9644 30.5374 16.5559 30.5878 17.1936C30.6382 17.8312 30.4332 18.4628 30.0179 18.9493C29.6026 19.4359 29.0111 19.7375 28.3735 19.7879L27.281 19.8743C27.2642 19.8751 27.2475 19.8762 27.2311 19.8762ZM27.1669 14.9073C27.0351 14.9074 26.9066 14.8659 26.7998 14.7886C26.6931 14.7114 26.6134 14.6024 26.5723 14.4771C26.5312 14.3519 26.5308 14.2169 26.571 14.0914C26.6113 13.9659 26.6902 13.8563 26.7964 13.7783L30.0603 11.3813C30.2951 11.1861 30.4436 10.9064 30.4736 10.6025C30.5037 10.2987 30.413 9.99529 30.2211 9.75785C30.0292 9.5204 29.7515 9.36804 29.4482 9.33372C29.1448 9.2994 28.8401 9.38587 28.6 9.57444L27.5794 10.4732C27.5183 10.5301 27.4464 10.5742 27.3679 10.6028C27.2895 10.6314 27.2061 10.6441 27.1227 10.64C27.0393 10.6358 26.9575 10.615 26.8823 10.5788C26.8071 10.5425 26.7398 10.4916 26.6846 10.4289C26.6294 10.3663 26.5873 10.2932 26.5608 10.214C26.5344 10.1348 26.524 10.0511 26.5304 9.96781C26.5368 9.88454 26.5598 9.8034 26.5981 9.72919C26.6364 9.65497 26.6892 9.58917 26.7533 9.53569L27.7846 8.6271C27.7911 8.62116 27.798 8.61554 27.8049 8.60991C28.3025 8.20794 28.9394 8.02011 29.5755 8.08774C29.8905 8.12123 30.1957 8.21643 30.4739 8.3679C30.7521 8.51937 30.9977 8.72414 31.1967 8.97054C31.3958 9.21693 31.5443 9.50011 31.6339 9.80392C31.7235 10.1077 31.7524 10.4262 31.7189 10.7412C31.6854 11.0561 31.5902 11.3614 31.4388 11.6396C31.2873 11.9178 31.0825 12.1634 30.8361 12.3624C30.8288 12.3685 30.8213 12.3744 30.8136 12.3801L27.5369 14.7863C27.4297 14.8651 27.3 14.9075 27.1669 14.9073Z" fill="#857067"/>
<path d="M27.1663 27.1087C27.0005 27.1087 26.8416 27.0428 26.7244 26.9256C26.6071 26.8084 26.5413 26.6494 26.5413 26.4837V3.14352C26.5413 2.31539 25.7427 1.64258 24.761 1.64258H11.6516C10.6697 1.64258 9.87036 2.31586 9.87036 3.14352V13.3187C9.87036 13.4844 9.80451 13.6434 9.6873 13.7606C9.57009 13.8778 9.41112 13.9437 9.24536 13.9437C9.0796 13.9437 8.92063 13.8778 8.80342 13.7606C8.68621 13.6434 8.62036 13.4844 8.62036 13.3187V3.14352C8.62036 1.62664 9.97974 0.392578 11.6516 0.392578H24.761C26.4319 0.392578 27.7913 1.62695 27.7913 3.14352V26.4837C27.7913 26.6494 27.7255 26.8084 27.6082 26.9256C27.491 27.0428 27.3321 27.1087 27.1663 27.1087Z" fill="#857067"/>
<path d="M24.761 32.7929H11.2501C11.0843 32.7929 10.9253 32.727 10.8081 32.6098C10.6909 32.4926 10.6251 32.3336 10.6251 32.1679C10.6251 32.0021 10.6909 31.8432 10.8081 31.7259C10.9253 31.6087 11.0843 31.5429 11.2501 31.5429H24.761C25.7427 31.5429 26.5413 30.8693 26.5413 30.0413V26.2791C26.5413 26.1134 26.6072 25.9544 26.7244 25.8372C26.8416 25.72 27.0006 25.6541 27.1663 25.6541C27.3321 25.6541 27.4911 25.72 27.6083 25.8372C27.7255 25.9544 27.7913 26.1134 27.7913 26.2791V30.0413C27.7913 31.5585 26.432 32.7929 24.761 32.7929ZM27.0674 5.00977H9.29102C9.12526 5.00977 8.96628 4.94392 8.84907 4.82671C8.73186 4.7095 8.66602 4.55053 8.66602 4.38477C8.66602 4.21901 8.73186 4.06003 8.84907 3.94282C8.96628 3.82561 9.12526 3.75977 9.29102 3.75977H27.0674C27.2332 3.75977 27.3922 3.82561 27.5094 3.94282C27.6266 4.06003 27.6924 4.21901 27.6924 4.38477C27.6924 4.55053 27.6266 4.7095 27.5094 4.82671C27.3922 4.94392 27.2332 5.00977 27.0674 5.00977Z" fill="#857067"/>
<path d="M27.1665 29.2402H11.3887C11.2229 29.2402 11.0639 29.1744 10.9467 29.0572C10.8295 28.94 10.7637 28.781 10.7637 28.6152C10.7637 28.4495 10.8295 28.2905 10.9467 28.1733C11.0639 28.0561 11.2229 27.9902 11.3887 27.9902H27.1665C27.3322 27.9902 27.4912 28.0561 27.6084 28.1733C27.7256 28.2905 27.7915 28.4495 27.7915 28.6152C27.7915 28.781 27.7256 28.94 27.6084 29.0572C27.4912 29.1744 27.3322 29.2402 27.1665 29.2402Z" fill="#857067"/>
</svg>
