<svg width="50" height="50" viewBox="0 0 50 50" fill="none" xmlns="http://www.w3.org/2000/svg">
<path d="M21.7431 36.904V30.0189M21.7431 47.7273V40.2137M28.5117 30.0189V47.7273M18.7245 22.9253L21.515 27.8576M18.7245 22.9253L11.09 27.1181M18.7245 22.9253L17.7595 21.2216C17.2289 20.2817 16.0137 19.9432 15.0625 20.466L10.892 22.7573C9.938 23.2801 9.59427 24.4746 10.1249 25.4117L11.09 27.1181M13.8804 32.0503L11.09 27.1181M9.57509 27.9523C-3.62659 29.4962 0.928839 13.356 12.1841 22.045M17.5368 30.0189H37.7765C38.3318 30.0189 38.7882 30.4685 38.7882 31.0156V45.945C38.7882 46.9256 37.9745 47.7273 36.9792 47.7273H13.2755C12.2803 47.7273 11.4666 46.9256 11.4666 45.945V33.3775M9.883 24.3066C8.74208 23.8976 7.86504 23.6837 6.33371 23.5184M14.7931 14.7211C13.9629 16.1349 13.5257 18.2341 13.8528 21.1294M20.3245 22.0477C25.7047 15.382 20.6791 11.0754 16.943 12.7303M17.0145 20.4795C17.0941 19.4881 17.5835 17.9957 18.1994 16.999M35.8823 13.5944C35.8823 13.5944 36.8611 22.5001 33.573 26.013M40.7567 16.2785C40.7567 16.2785 42.1753 10.1193 48.4847 8.63504M5.78121 36.5004L29.6141 23.41C30.2822 23.0417 30.5241 22.2047 30.1529 21.5466L28.7151 19.0059C28.3413 18.3478 27.4917 18.1094 26.8236 18.4778L2.988 31.5682C2.32266 31.9338 2.08071 32.7708 2.45185 33.4289L3.88971 35.9722C4.26094 36.6277 5.11313 36.866 5.78121 36.5004ZM30.0677 3.54571L28.9764 5.34144C28.8581 5.53649 28.8416 5.6015 28.5969 5.66102L26.4361 6.18925C26.0181 6.29217 25.9962 6.3869 26.2821 6.70657L27.6759 8.35877C27.8244 8.53481 27.8464 8.74066 27.8271 8.98982L27.6595 11.0321C27.6127 11.4546 27.7034 11.506 28.1048 11.3463L30.0045 10.5662C30.2025 10.485 30.5132 10.485 30.7083 10.5662L32.6108 11.3463C33.0122 11.506 33.1002 11.4546 33.0534 11.0321L32.8885 8.98982C32.8693 8.74066 32.8885 8.53481 33.0397 8.35877L34.4308 6.70657C34.7166 6.3869 34.6975 6.29217 34.2768 6.18925L32.1159 5.66102C31.8713 5.6015 31.8575 5.53649 31.7366 5.34144L30.6451 3.54571C30.4252 3.18003 30.2904 3.18003 30.0677 3.54571ZM43.9319 19.6046L42.8377 21.4003C42.7195 21.5954 42.703 21.6604 42.4611 21.7199L40.3002 22.2481C39.8796 22.351 39.8576 22.4458 40.1463 22.7654L41.5374 24.4176C41.6886 24.5937 41.7079 24.7995 41.6886 25.0487L41.5209 27.0883C41.4769 27.5135 41.5649 27.5649 41.9662 27.4052L43.866 26.6251C44.0639 26.5438 44.3745 26.5438 44.5725 26.6251L46.4721 27.4052C46.8735 27.5649 46.9616 27.5135 46.9176 27.0883L46.7498 25.0487C46.7306 24.7995 46.7498 24.5937 46.9011 24.4176L48.2922 22.7654C48.5808 22.4458 48.5589 22.351 48.1382 22.2481L45.9774 21.7199C45.7354 21.6604 45.7189 21.5954 45.6007 21.4003L44.5093 19.6046C44.2865 19.2389 44.1519 19.2389 43.9319 19.6046ZM41.6337 7.86045C43.198 7.86045 44.4709 6.60635 44.4709 5.06797C44.4709 3.5268 43.198 2.27271 41.6337 2.27271C40.0721 2.27271 38.7965 3.5268 38.7965 5.06797C38.7965 6.60635 40.0721 7.86045 41.6337 7.86045Z" stroke="#179860" stroke-width="1.5" stroke-miterlimit="10" stroke-linecap="round" stroke-linejoin="round"/>
</svg>
