<svg width="80" height="80" viewBox="0 0 80 80" fill="none" xmlns="http://www.w3.org/2000/svg">
<path d="M67.0134 57.6001C67.0134 62.334 63.157 66.1715 58.3999 66.1715C53.6429 66.1715 49.7865 62.334 49.7865 57.6001C49.7865 52.8662 53.6429 49.0287 58.3999 49.0287C63.157 49.0287 67.0134 52.8662 67.0134 57.6001Z" stroke="#179860" stroke-width="3" stroke-linecap="round" stroke-linejoin="round"/>
<path d="M61.9889 37.6001H54.811L54.2094 43.1874C51.8305 43.8711 49.6935 45.1223 47.956 46.784L42.789 44.5072L39.2 50.6931L43.762 54.0053C43.4773 55.157 43.3264 56.361 43.3264 57.6001C43.3264 58.8392 43.4773 60.0431 43.762 61.1948L39.2 64.5071L42.7889 70.693L47.956 68.4161C49.6935 70.0779 51.8305 71.3291 54.2094 72.0128L54.811 77.6001H61.9889L62.5905 72.0128C64.9694 71.3291 67.1064 70.0779 68.8439 68.4162L74.011 70.6931L77.5999 64.5072L73.0379 61.1948C73.3226 60.0432 73.4735 58.8392 73.4735 57.6001C73.4735 56.361 73.3226 55.157 73.0379 54.0053L77.5999 50.693L74.0109 44.5071L68.8439 46.784C67.1064 45.1222 64.9694 43.8711 62.5905 43.1874L61.9889 37.6001Z" stroke="#179860" stroke-width="3" stroke-linecap="round" stroke-linejoin="round"/>
<path d="M16.3499 7.79502H10.1499C5.8697 7.79502 2.3999 11.2457 2.3999 15.5023V16.2731M16.3499 7.79502L19.4499 2.3999H27.9749L31.8499 7.79502M16.3499 7.79502H31.8499M31.8499 7.79502H35.7249M2.3999 16.2731H7.8249M2.3999 16.2731V22.4389M2.3999 22.4389V23.2097C2.3999 27.4663 5.8697 30.917 10.1499 30.917H46.5749C47.859 30.917 48.8999 29.8818 48.8999 28.6048V10.1072C48.8999 8.83023 47.859 7.79502 46.5749 7.79502H43.4749M2.3999 22.4389H7.8249M43.4749 7.79502V13.1901M43.4749 7.79502H39.5999M39.5999 7.79502V13.1901M39.5999 7.79502H35.7249M35.7249 7.79502V13.1901M6.2749 60.2048H5.8874C4.38933 60.2048 3.1749 61.4125 3.1749 62.9023C3.1749 64.3922 4.38933 65.5999 5.8874 65.5999H23.7124C25.2105 65.5999 26.4249 64.3922 26.4249 62.9023C26.4249 61.4125 25.2105 60.2048 23.7124 60.2048H23.3249M6.2749 60.2048L11.6999 30.917M6.2749 60.2048H23.3249M23.3249 60.2048L27.6078 38.6243M29.1374 30.917L27.6078 38.6243M27.6078 38.6243H33.1014C34.6859 38.6243 36.1108 37.6649 36.6992 36.2018L38.8249 30.917M48.8999 12.4194H58.9749V26.2926H48.8999V12.4194ZM58.9749 16.2731H73.6999C75.412 16.2731 76.7999 17.6533 76.7999 19.356C76.7999 21.0587 75.412 22.4389 73.6999 22.4389H58.9749V16.2731Z" stroke="#179860" stroke-width="3" stroke-linecap="round" stroke-linejoin="round"/>
</svg>
