<svg width="80" height="80" viewBox="0 0 80 80" fill="none" xmlns="http://www.w3.org/2000/svg">
<path d="M45.6 56.7998V62.3998M45.6 56.7998H39M45.6 56.7998H52.2M32.4 56.7998V62.3998M32.4 56.7998H39M32.4 56.7998H25.8M39 56.7998V59.9998M25.8 56.7998H19.2V67.1998H72V56.7998H65.4M25.8 56.7998V59.9998M58.8 56.7998V62.3998M58.8 56.7998H52.2M58.8 56.7998H65.4M52.2 56.7998V59.9998M65.4 56.7998V59.9998" stroke="#179860" stroke-width="3" stroke-linecap="round" stroke-linejoin="round"/>
<path d="M63.1999 27.9999V47.9999H27.9999V27.9999M63.1999 27.9999L45.5999 10.3999L27.9999 27.9999M63.1999 27.9999L66.7999 31.5999L70.7999 27.5999L62.3999 19.1999M27.9999 27.9999L24.3999 31.5999L20.3999 27.5999L45.5999 2.3999L56.7999 13.5999M56.7999 13.5999V8.7999H62.3999V19.1999M56.7999 13.5999L62.3999 19.1999M39.9999 34.3999H51.1999V47.9999H39.9999V34.3999Z" stroke="#179860" stroke-width="3" stroke-linecap="round" stroke-linejoin="round"/>
<path d="M68.0001 31.1998H78.4001V76.7998H7.2001M23.2001 31.1998H12.0001M6.8001 76.7998C3.92822 76.7998 1.6001 74.4717 1.6001 71.5998M1.6001 71.5998C1.6001 68.7279 3.92822 66.3998 6.8001 66.3998C9.67198 66.3998 12.0001 68.7279 12.0001 71.5998V25.9998C12.0001 23.1279 9.67198 20.7998 6.8001 20.7998C3.92822 20.7998 1.6001 23.1279 1.6001 25.9998V71.5998Z" stroke="#179860" stroke-width="3" stroke-linecap="round" stroke-linejoin="round"/>
</svg>
