<svg width="18" height="18" viewBox="0 0 18 18" fill="none" xmlns="http://www.w3.org/2000/svg">
<path d="M17.421 12.96C17.3718 12.921 13.8 10.3464 12.8196 10.5312C12.3516 10.614 12.084 10.9332 11.547 11.5722C11.4606 11.6754 11.253 11.9226 11.0916 12.0984C10.7522 11.9877 10.4212 11.853 10.101 11.6952C8.44831 10.8906 7.11299 9.55529 6.3084 7.9026C6.15052 7.58245 6.01577 7.2514 5.9052 6.912C6.0816 6.75 6.3288 6.5424 6.4344 6.4536C7.0704 5.9196 7.3902 5.652 7.473 5.1828C7.6428 4.2108 5.07 0.6144 5.043 0.582C4.92627 0.415242 4.77393 0.276518 4.597 0.175862C4.42008 0.0752062 4.22299 0.0151369 4.02 0C2.9772 0 0 3.8622 0 4.5126C0 4.5504 0.0546001 8.3928 4.7928 13.2126C9.6078 17.9454 13.4496 18 13.4874 18C14.1384 18 18 15.0228 18 13.98C17.985 13.7777 17.9253 13.5813 17.8252 13.4049C17.7251 13.2285 17.587 13.0765 17.421 12.96Z" fill="#179860"/>
</svg>
