<svg width="17" height="17" viewBox="0 0 17 17" fill="none" xmlns="http://www.w3.org/2000/svg">
<path d="M4.57223 15.41L4.80399 14.6967L4.57223 15.41ZM2.29834 13.1361L3.01163 12.9044L2.29834 13.1361ZM14.7017 13.1361L13.9884 12.9044L14.7017 13.1361ZM12.4278 15.41L12.196 14.6967L12.4278 15.41ZM12.4278 5.84003L12.196 6.55332L12.4278 5.84003ZM14.7017 8.11392L13.9884 8.34568L14.7017 8.11392ZM4.57223 5.84003L4.34047 5.12674L4.57223 5.84003ZM2.29834 8.11392L3.01163 8.34568L2.29834 8.11392ZM10.1748 2.72464C10.506 2.97345 10.9762 2.90669 11.225 2.57553C11.4738 2.24437 11.407 1.77421 11.0759 1.5254L10.1748 2.72464ZM7.75 13.4584C7.75 13.8726 8.08579 14.2084 8.5 14.2084C8.91421 14.2084 9.25 13.8726 9.25 13.4584H7.75ZM7.08333 6.41669H9.91667V4.91669H7.08333V6.41669ZM9.91667 14.8334H7.08333V16.3334H9.91667V14.8334ZM7.08333 14.8334C5.70655 14.8334 5.19603 14.8241 4.80399 14.6967L4.34047 16.1233C5.01541 16.3426 5.8233 16.3334 7.08333 16.3334V14.8334ZM1.375 10.625C1.375 11.8851 1.36575 12.6929 1.58505 13.3679L3.01163 12.9044C2.88425 12.5123 2.875 12.0018 2.875 10.625H1.375ZM4.80399 14.6967C3.95411 14.4206 3.28778 13.7542 3.01163 12.9044L1.58505 13.3679C2.00957 14.6744 3.03392 15.6988 4.34047 16.1233L4.80399 14.6967ZM14.125 10.625C14.125 12.0018 14.1157 12.5123 13.9884 12.9044L15.415 13.3679C15.6343 12.6929 15.625 11.8851 15.625 10.625H14.125ZM9.91667 16.3334C11.1767 16.3334 11.9846 16.3426 12.6595 16.1233L12.196 14.6967C11.804 14.8241 11.2934 14.8334 9.91667 14.8334V16.3334ZM13.9884 12.9044C13.7122 13.7542 13.0459 14.4206 12.196 14.6967L12.6595 16.1233C13.9661 15.6988 14.9904 14.6744 15.415 13.3679L13.9884 12.9044ZM9.91667 6.41669C11.2934 6.41669 11.804 6.42594 12.196 6.55332L12.6595 5.12674C11.9846 4.90743 11.1767 4.91669 9.91667 4.91669V6.41669ZM15.625 10.625C15.625 9.36499 15.6343 8.5571 15.415 7.88216L13.9884 8.34568C14.1157 8.73772 14.125 9.24824 14.125 10.625H15.625ZM12.196 6.55332C13.0459 6.82947 13.7122 7.49579 13.9884 8.34568L15.415 7.88216C14.9904 6.57561 13.9661 5.55126 12.6595 5.12674L12.196 6.55332ZM2.875 10.625C2.875 9.24824 2.88425 8.73772 3.01163 8.34568L1.58505 7.88216C1.36575 8.5571 1.375 9.36499 1.375 10.625H2.875ZM4.34047 5.12674C3.03392 5.55126 2.00957 6.57561 1.58505 7.88216L3.01163 8.34568C3.28778 7.49579 3.9541 6.82947 4.80399 6.55332L4.34047 5.12674ZM8.5 0.666687C6.12978 0.666687 4.20833 2.58813 4.20833 4.95835H5.70833C5.70833 3.41656 6.95821 2.16669 8.5 2.16669V0.666687ZM8.5 2.16669C9.12945 2.16669 9.70829 2.37411 10.1748 2.72464L11.0759 1.5254C10.3584 0.986391 9.46547 0.666687 8.5 0.666687V2.16669ZM7.08333 4.91669C6.09235 4.91669 5.38926 4.91407 4.83374 5.00766L5.08293 6.48681C5.48366 6.4193 6.03197 6.41669 7.08333 6.41669V4.91669ZM4.83374 5.00766C4.66335 5.03636 4.50037 5.07478 4.34047 5.12674L4.80399 6.55332C4.88464 6.52712 4.97498 6.505 5.08293 6.48681L4.83374 5.00766ZM5.70833 5.74724V4.95835H4.20833V5.74724H5.70833ZM7.75 10.625V13.4584H9.25V10.625H7.75ZM6.33333 9.20835C6.33333 10.405 7.30338 11.375 8.5 11.375V9.87502C8.13181 9.87502 7.83333 9.57654 7.83333 9.20835H6.33333ZM8.5 11.375C9.69662 11.375 10.6667 10.405 10.6667 9.20835H9.16667C9.16667 9.57654 8.86819 9.87502 8.5 9.87502V11.375ZM10.6667 9.20835C10.6667 8.01174 9.69662 7.04169 8.5 7.04169V8.54169C8.86819 8.54169 9.16667 8.84016 9.16667 9.20835H10.6667ZM8.5 7.04169C7.30338 7.04169 6.33333 8.01174 6.33333 9.20835H7.83333C7.83333 8.84016 8.13181 8.54169 8.5 8.54169V7.04169Z" fill="#A7A7A7"/>
<path d="M7.74967 13.4584C7.74967 13.8726 8.08546 14.2084 8.49967 14.2084C8.91389 14.2084 9.24967 13.8726 9.24967 13.4584H7.74967ZM7.74967 10.625V13.4584H9.24967V10.625H7.74967ZM6.33301 9.20835C6.33301 10.405 7.30306 11.375 8.49967 11.375V9.87502C8.13148 9.87502 7.83301 9.57654 7.83301 9.20835H6.33301ZM8.49967 11.375C9.69629 11.375 10.6663 10.405 10.6663 9.20835H9.16634C9.16634 9.57654 8.86786 9.87502 8.49967 9.87502V11.375ZM10.6663 9.20835C10.6663 8.01174 9.69629 7.04169 8.49967 7.04169V8.54169C8.86786 8.54169 9.16634 8.84016 9.16634 9.20835H10.6663ZM8.49967 7.04169C7.30306 7.04169 6.33301 8.01174 6.33301 9.20835H7.83301C7.83301 8.84016 8.13148 8.54169 8.49967 8.54169V7.04169Z" fill="#2E2D2D"/>
</svg>
